<svg version="1.1" xmlns="http://www.w3.org/2000/svg" 
xmlns:xlink="http://www.w3.org/1999/xlink" width="188" height="107"><defs/>
<g><text fill="#eeeeee" stroke="none" font-family="Arial" font-size="24px" font-style="normal" font-weight="normal" text-decoration="none" x="0" y="90">UNREGISTERED</text><g transform="translate(-1470,-294) scale(1,1)"><rect fill="#C0C0C0" stroke="none" x="1487" y="311" width="168" height="87" opacity="0.2"/></g><g transform="translate(-1470,-294) scale(1,1)"><rect fill="#ffffff" stroke="none" x="1480" y="304" width="168" height="87"/></g><g transform="translate(-1470,-294) scale(1,1)"><path fill="none" stroke="#000000" d="M 1480 304 L 1648 304 L 1648 391 L 1480 391 L 1480 304 Z Z" stroke-miterlimit="10"/></g><g transform="translate(-1470,-294) scale(1,1)"><path fill="none" stroke="#000000" d="M 1480 329 L 1648 329" stroke-miterlimit="10"/></g><g transform="translate(-1470,-294) scale(1,1)"><g><path fill="none" stroke="none"/><text fill="#000000" stroke="none" font-family="Arial" font-size="13px" font-style="normal" font-weight="bold" text-decoration="none" x="1494.98828125" y="323.5">Bibliographic Reference</text></g></g><g transform="translate(-1470,-294) scale(1,1)"><g><path fill="none" stroke="none"/><text fill="#000000" stroke="none" font-family="Arial" font-size="13px" font-style="normal" font-weight="normal" text-decoration="none" x="1485" y="346.5">+id: String</text></g></g><g transform="translate(-1470,-294) scale(1,1)"><g><path fill="none" stroke="none"/><text fill="#000000" stroke="none" font-family="Arial" font-size="13px" font-style="normal" font-weight="normal" text-decoration="none" x="1485" y="361.5">+title: String</text></g></g><g transform="translate(-1470,-294) scale(1,1)"><g><path fill="none" stroke="none"/><text fill="#000000" stroke="none" font-family="Arial" font-size="13px" font-style="normal" font-weight="normal" text-decoration="none" x="1485" y="376.5">+year: Integer</text></g></g></g></svg>