<svg version="1.1" xmlns="http://www.w3.org/2000/svg" 
xmlns:xlink="http://www.w3.org/1999/xlink" width="670.7890625" height="108"><defs/><g>
<g transform="translate(-1270,-886) scale(1,1)"><rect fill="#C0C0C0" stroke="none" x="1287" y="903" width="114.1552734375" height="87" opacity="0.2"/></g><g transform="translate(-1270,-886) scale(1,1)"><rect fill="#e2e2e2" stroke="none" x="1280" y="896" width="114.1552734375" height="87"/></g><g transform="translate(-1270,-886) scale(1,1)"><path fill="none" stroke="#000000" d="M 1280 896 L 1394.1552734375 896 L 1394.1552734375 983 L 1280 983 L 1280 896 Z Z" stroke-miterlimit="10"/></g><g transform="translate(-1270,-886) scale(1,1)"><path fill="none" stroke="#000000" d="M 1280 921 L 1394.1552734375 921" stroke-miterlimit="10"/></g><g transform="translate(-1270,-886) scale(1,1)"><g><path fill="none" stroke="none"/><text fill="#000000" stroke="none" font-family="Arial" font-size="13px" font-style="normal" font-weight="bold" text-decoration="none" x="1316.482666015625" y="915.5">Protein</text></g></g><g transform="translate(-1270,-886) scale(1,1)"><g><path fill="none" stroke="none"/><text fill="#000000" stroke="none" font-family="Arial" font-size="13px" font-style="normal" font-weight="normal" text-decoration="none" x="1285" y="938.5">+id: String</text></g></g><g transform="translate(-1270,-886) scale(1,1)"><g><path fill="none" stroke="none"/><text fill="#000000" stroke="none" font-family="Arial" font-size="13px" font-style="normal" font-weight="normal" text-decoration="none" x="1285" y="953.5">+name: String</text></g></g><g transform="translate(-1270,-886) scale(1,1)"><g><path fill="none" stroke="none"/><text fill="#000000" stroke="none" font-family="Arial" font-size="13px" font-style="normal" font-weight="normal" text-decoration="none" x="1285" y="968.5">+sequence: String</text></g></g><g transform="translate(-1270,-886) scale(1,1)"><rect fill="#C0C0C0" stroke="none" x="1527" y="903" width="144" height="87" opacity="0.2"/></g><g transform="translate(-1270,-886) scale(1,1)"><rect fill="#d8ffd8" stroke="none" x="1520" y="896" width="144" height="87"/></g><g transform="translate(-1270,-886) scale(1,1)"><path fill="none" stroke="#000000" d="M 1520 896 L 1664 896 L 1664 983 L 1520 983 L 1520 896 Z Z" stroke-miterlimit="10"/></g><g transform="translate(-1270,-886) scale(1,1)"><path fill="none" stroke="#000000" d="M 1520 921 L 1664 921" stroke-miterlimit="10"/></g><g transform="translate(-1270,-886) scale(1,1)"><g><path fill="none" stroke="none"/><text fill="#000000" stroke="none" font-family="Arial" font-size="13px" font-style="normal" font-weight="bold" text-decoration="none" x="1534.5537109375" y="915.5">Cellular Component</text></g></g><g transform="translate(-1270,-886) scale(1,1)"><g><path fill="none" stroke="none"/><text fill="#000000" stroke="none" font-family="Arial" font-size="13px" font-style="normal" font-weight="normal" text-decoration="none" x="1525" y="938.5">+id: String</text></g></g><g transform="translate(-1270,-886) scale(1,1)"><g><path fill="none" stroke="none"/><text fill="#000000" stroke="none" font-family="Arial" font-size="13px" font-style="normal" font-weight="normal" text-decoration="none" x="1525" y="953.5">+name: String</text></g></g><g transform="translate(-1270,-886) scale(1,1)"><g><path fill="none" stroke="none"/><text fill="#000000" stroke="none" font-family="Arial" font-size="13px" font-style="normal" font-weight="normal" text-decoration="none" x="1525" y="968.5">+description: String</text></g></g><g transform="translate(-1270,-886) scale(1,1)"><path fill="none" stroke="#000000" d="M 1395 939 L 1519 939" stroke-miterlimit="10"/></g><g transform="translate(-1270,-886) scale(1,1)"><g><path fill="none" stroke="none"/><text fill="#000000" stroke="none" font-family="Arial" font-size="13px" font-style="normal" font-weight="normal" text-decoration="none" x="1425.5" y="924.5">+Is part of</text></g></g><g transform="translate(-1270,-886) scale(1,1)"><g><path fill="none" stroke="none"/><text fill="#000000" stroke="none" font-family="Arial" font-size="13px" font-style="normal" font-weight="normal" text-decoration="none" x="1413.726806640625" y="957.5">*</text></g></g><g transform="translate(-1270,-886) scale(1,1)"><g><path fill="none" stroke="none"/><text fill="#000000" stroke="none" font-family="Arial" font-size="13px" font-style="normal" font-weight="normal" text-decoration="none" x="1494.220458984375" y="957.5">*</text></g></g><g transform="translate(-1270,-886) scale(1,1)"><rect fill="#C0C0C0" stroke="none" x="1767" y="903" width="170.7890625" height="88" opacity="0.2"/></g><g transform="translate(-1270,-886) scale(1,1)"><rect fill="#e2e2e2" stroke="none" x="1760" y="896" width="170.7890625" height="88"/></g><g transform="translate(-1270,-886) scale(1,1)"><path fill="none" stroke="#000000" d="M 1760 896 L 1930.7890625 896 L 1930.7890625 984 L 1760 984 L 1760 896 Z Z" stroke-miterlimit="10"/></g><g transform="translate(-1270,-886) scale(1,1)"><path fill="none" stroke="#000000" d="M 1760 921 L 1930.7890625 921" stroke-miterlimit="10"/></g><g transform="translate(-1270,-886) scale(1,1)"><g><path fill="none" stroke="none"/><text fill="#000000" stroke="none" font-family="Arial" font-size="13px" font-style="normal" font-weight="bold" text-decoration="none" x="1770.235107421875" y="915.5">Malfunction Consequence</text></g></g><g transform="translate(-1270,-886) scale(1,1)"><g><path fill="none" stroke="none"/><text fill="#000000" stroke="none" font-family="Arial" font-size="13px" font-style="normal" font-weight="normal" text-decoration="none" x="1765" y="938.5">+name: String</text></g></g><g transform="translate(-1270,-886) scale(1,1)"><g><path fill="none" stroke="none"/><text fill="#000000" stroke="none" font-family="Arial" font-size="13px" font-style="normal" font-weight="normal" text-decoration="none" x="1765" y="953.5">+description: String</text></g></g><g transform="translate(-1270,-886) scale(1,1)"><path fill="none" stroke="#000000" d="M 1665 939 L 1759 940" stroke-miterlimit="10"/></g><g transform="translate(-1270,-886) scale(1,1)"><g><path fill="none" stroke="none"/><text fill="#000000" stroke="none" font-family="Arial" font-size="13px" font-style="normal" font-weight="normal" text-decoration="none" x="1675.5" y="957.5">0..1</text></g></g><g transform="translate(-1270,-886) scale(1,1)"><g><path fill="none" stroke="none"/><text fill="#000000" stroke="none" font-family="Arial" font-size="13px" font-style="normal" font-weight="normal" text-decoration="none" x="1734.5" y="958.5">*</text></g></g></g></svg>