<svg version="1.1" xmlns="http://www.w3.org/2000/svg" xmlns:xlink="http://www.w3.org/1999/xlink" width="586.904296875" height="287"><defs/><g><g transform="translate(-598,-86) scale(1,1)"><rect fill="#C0C0C0" stroke="none" x="615" y="223" width="171.9443359375" height="147" opacity="0.2"/></g><g transform="translate(-598,-86) scale(1,1)"><rect fill="#e2e2e2" stroke="none" x="608" y="216" width="171.9443359375" height="147"/></g><g transform="translate(-598,-86) scale(1,1)"><path fill="none" stroke="#000000" d="M 608 216 L 779.9443359375 216 L 779.9443359375 363 L 608 363 L 608 216 Z Z" stroke-miterlimit="10"/></g><g transform="translate(-598,-86) scale(1,1)"><path fill="none" stroke="#000000" d="M 608 241 L 779.9443359375 241" stroke-miterlimit="10"/></g><g transform="translate(-598,-86) scale(1,1)"><g><path fill="none" stroke="none"/><text fill="#000000" stroke="none" font-family="Arial" font-size="13px" font-style="normal" font-weight="bold" text-decoration="none" x="673.859619140625" y="235.5">Variant</text></g></g><g transform="translate(-598,-86) scale(1,1)"><g><path fill="none" stroke="none"/><text fill="#000000" stroke="none" font-family="Arial" font-size="13px" font-style="normal" font-weight="normal" text-decoration="none" x="613" y="258.5">+id: String</text></g></g><g transform="translate(-598,-86) scale(1,1)"><g><path fill="none" stroke="none"/><text fill="#000000" stroke="none" font-family="Arial" font-size="13px" font-style="normal" font-weight="normal" text-decoration="none" x="613" y="273.5">+name: String</text></g></g><g transform="translate(-598,-86) scale(1,1)"><g><path fill="none" stroke="none"/><text fill="#000000" stroke="none" font-family="Arial" font-size="13px" font-style="normal" font-weight="normal" text-decoration="none" x="613" y="288.5">+reference_allele: String</text></g></g><g transform="translate(-598,-86) scale(1,1)"><g><path fill="none" stroke="none"/><text fill="#000000" stroke="none" font-family="Arial" font-size="13px" font-style="normal" font-weight="normal" text-decoration="none" x="613" y="303.5">+alternative_allele: String</text></g></g><g transform="translate(-598,-86) scale(1,1)"><g><path fill="none" stroke="none"/><text fill="#000000" stroke="none" font-family="Arial" font-size="13px" font-style="normal" font-weight="normal" text-decoration="none" x="613" y="318.5">+start: Long</text></g></g><g transform="translate(-598,-86) scale(1,1)"><g><path fill="none" stroke="none"/><text fill="#000000" stroke="none" font-family="Arial" font-size="13px" font-style="normal" font-weight="normal" text-decoration="none" x="613" y="333.5">+end: Long</text></g></g><g transform="translate(-598,-86) scale(1,1)"><g><path fill="none" stroke="none"/><text fill="#000000" stroke="none" font-family="Arial" font-size="13px" font-style="normal" font-weight="normal" text-decoration="none" x="613" y="348.5">+clinical_significance: String</text></g></g><g transform="translate(-598,-86) scale(1,1)"><rect fill="#C0C0C0" stroke="none" x="1015" y="103" width="166.904296875" height="102" opacity="0.2"/></g><g transform="translate(-598,-86) scale(1,1)"><rect fill="#d8ffd8" stroke="none" x="1008" y="96" width="166.904296875" height="102"/></g><g transform="translate(-598,-86) scale(1,1)"><path fill="none" stroke="#000000" d="M 1008 96 L 1174.904296875 96 L 1174.904296875 198 L 1008 198 L 1008 96 Z Z" stroke-miterlimit="10"/></g><g transform="translate(-598,-86) scale(1,1)"><path fill="none" stroke="#000000" d="M 1008 121 L 1174.904296875 121" stroke-miterlimit="10"/></g><g transform="translate(-598,-86) scale(1,1)"><g><path fill="none" stroke="none"/><text fill="#000000" stroke="none" font-family="Arial" font-size="13px" font-style="normal" font-weight="bold" text-decoration="none" x="1052.439453125" y="115.5">Chromosome</text></g></g><g transform="translate(-598,-86) scale(1,1)"><g><path fill="none" stroke="none"/><text fill="#000000" stroke="none" font-family="Arial" font-size="13px" font-style="normal" font-weight="normal" text-decoration="none" x="1013" y="138.5">+id: String</text></g></g><g transform="translate(-598,-86) scale(1,1)"><g><path fill="none" stroke="none"/><text fill="#000000" stroke="none" font-family="Arial" font-size="13px" font-style="normal" font-weight="normal" text-decoration="none" x="1013" y="153.5">+name: String</text></g></g><g transform="translate(-598,-86) scale(1,1)"><g><path fill="none" stroke="none"/><text fill="#000000" stroke="none" font-family="Arial" font-size="13px" font-style="normal" font-weight="normal" text-decoration="none" x="1013" y="168.5">+sequence: String</text></g></g><g transform="translate(-598,-86) scale(1,1)"><g><path fill="none" stroke="none"/><text fill="#000000" stroke="none" font-family="Arial" font-size="13px" font-style="normal" font-weight="normal" text-decoration="none" x="1013" y="183.5">+reference_genome: String</text></g></g><g transform="translate(-598,-86) scale(1,1)"><rect fill="#C0C0C0" stroke="none" x="1015" y="247" width="160" height="102" opacity="0.2"/></g><g transform="translate(-598,-86) scale(1,1)"><rect fill="#e2e2e2" stroke="none" x="1008" y="240" width="160" height="102"/></g><g transform="translate(-598,-86) scale(1,1)"><path fill="none" stroke="#000000" d="M 1008 240 L 1168 240 L 1168 342 L 1008 342 L 1008 240 Z Z" stroke-miterlimit="10"/></g><g transform="translate(-598,-86) scale(1,1)"><path fill="none" stroke="#000000" d="M 1008 265 L 1168 265" stroke-miterlimit="10"/></g><g transform="translate(-598,-86) scale(1,1)"><g><path fill="none" stroke="none"/><text fill="#000000" stroke="none" font-family="Arial" font-size="13px" font-style="normal" font-weight="bold" text-decoration="none" x="1023.33642578125" y="259.5">Chromosome Element</text></g></g><g transform="translate(-598,-86) scale(1,1)"><g><path fill="none" stroke="none"/><text fill="#000000" stroke="none" font-family="Arial" font-size="13px" font-style="normal" font-weight="normal" text-decoration="none" x="1013" y="282.5">+id: String</text></g></g><g transform="translate(-598,-86) scale(1,1)"><g><path fill="none" stroke="none"/><text fill="#000000" stroke="none" font-family="Arial" font-size="13px" font-style="normal" font-weight="normal" text-decoration="none" x="1013" y="297.5">+start: Long</text></g></g><g transform="translate(-598,-86) scale(1,1)"><g><path fill="none" stroke="none"/><text fill="#000000" stroke="none" font-family="Arial" font-size="13px" font-style="normal" font-weight="normal" text-decoration="none" x="1013" y="312.5">+end: Long</text></g></g><g transform="translate(-598,-86) scale(1,1)"><g><path fill="none" stroke="none"/><text fill="#000000" stroke="none" font-family="Arial" font-size="13px" font-style="normal" font-weight="normal" text-decoration="none" x="1013" y="327.5">+strand: String</text></g></g><g transform="translate(-598,-86) scale(1,1)"><path fill="none" stroke="#000000" d="M 1089 239 L 1090 199" stroke-miterlimit="10"/></g><g transform="translate(-598,-86) scale(1,1)"><path fill="#000000" stroke="none" d="M 1093.954215385284 209.26470558207993 L 1090 199 L 1085.5378095892345 209.05429543717867 L 1089.4501717944756 220.9931282209787"/></g><g transform="translate(-598,-86) scale(1,1)"><path fill="none" stroke="#000000" d="M 1093.954215385284 209.26470558207993 L 1090 199 L 1085.5378095892345 209.05429543717867 L 1089.4501717944756 220.9931282209787 L 1093.954215385284 209.26470558207993" stroke-miterlimit="10"/></g><g transform="translate(-598,-86) scale(1,1)"><path fill="none" stroke="#000000" d="M 781 289 L 1007 291" stroke-miterlimit="10"/></g><g transform="translate(-598,-86) scale(1,1)"><g><path fill="none" stroke="none"/><text fill="#000000" stroke="none" font-family="Arial" font-size="13px" font-style="normal" font-weight="normal" text-decoration="none" x="865.34423828125" y="283.5">+Affects</text></g></g><g transform="translate(-598,-86) scale(1,1)"><g><path fill="none" stroke="none"/><text fill="#000000" stroke="none" font-family="Arial" font-size="13px" font-style="normal" font-weight="normal" text-decoration="none" x="799.726806640625" y="307.5">*</text></g></g><g transform="translate(-598,-86) scale(1,1)"><g><path fill="none" stroke="none"/><text fill="#000000" stroke="none" font-family="Arial" font-size="13px" font-style="normal" font-weight="normal" text-decoration="none" x="975.5" y="309.5">1..*</text></g></g><g transform="translate(-598,-86) scale(1,1)"><path fill="none" stroke="#000000" d="M 690 215 L 688 144 L 1007 146" stroke-miterlimit="10"/></g><g transform="translate(-598,-86) scale(1,1)"><g><path fill="none" stroke="none"/><text fill="#000000" stroke="none" font-family="Arial" font-size="13px" font-style="normal" font-weight="normal" text-decoration="none" x="649.5" y="135.5">+Is located in</text></g></g><g transform="translate(-598,-86) scale(1,1)"><g><path fill="none" stroke="none"/><text fill="#000000" stroke="none" font-family="Arial" font-size="13px" font-style="normal" font-weight="normal" text-decoration="none" x="691.5" y="199.5">0..*</text></g></g><g transform="translate(-598,-86) scale(1,1)"><g><path fill="none" stroke="none"/><text fill="#000000" stroke="none" font-family="Arial" font-size="13px" font-style="normal" font-weight="normal" text-decoration="none" x="975.5" y="164.5">1..*</text></g></g></g></svg>