<svg version="1.1" xmlns="http://www.w3.org/2000/svg" xmlns:xlink="http://www.w3.org/1999/xlink" width="614.29443359375" height="451"><defs/><g><g transform="translate(-590,-86) scale(1,1)"><rect fill="#C0C0C0" stroke="none" x="607" y="223" width="171.9443359375" height="147" opacity="0.2"/></g><g transform="translate(-590,-86) scale(1,1)"><rect fill="#e2e2e2" stroke="none" x="600" y="216" width="171.9443359375" height="147"/></g><g transform="translate(-590,-86) scale(1,1)"><path fill="none" stroke="#000000" d="M 600 216 L 771.9443359375 216 L 771.9443359375 363 L 600 363 L 600 216 Z Z" stroke-miterlimit="10"/></g><g transform="translate(-590,-86) scale(1,1)"><path fill="none" stroke="#000000" d="M 600 241 L 771.9443359375 241" stroke-miterlimit="10"/></g><g transform="translate(-590,-86) scale(1,1)"><g><path fill="none" stroke="none"/><text fill="#000000" stroke="none" font-family="Arial" font-size="13px" font-style="normal" font-weight="bold" text-decoration="none" x="665.859619140625" y="235.5">Variant</text></g></g><g transform="translate(-590,-86) scale(1,1)"><g><path fill="none" stroke="none"/><text fill="#000000" stroke="none" font-family="Arial" font-size="13px" font-style="normal" font-weight="normal" text-decoration="none" x="605" y="258.5">+id: String</text></g></g><g transform="translate(-590,-86) scale(1,1)"><g><path fill="none" stroke="none"/><text fill="#000000" stroke="none" font-family="Arial" font-size="13px" font-style="normal" font-weight="normal" text-decoration="none" x="605" y="273.5">+name: String</text></g></g><g transform="translate(-590,-86) scale(1,1)"><g><path fill="none" stroke="none"/><text fill="#000000" stroke="none" font-family="Arial" font-size="13px" font-style="normal" font-weight="normal" text-decoration="none" x="605" y="288.5">+reference_allele: String</text></g></g><g transform="translate(-590,-86) scale(1,1)"><g><path fill="none" stroke="none"/><text fill="#000000" stroke="none" font-family="Arial" font-size="13px" font-style="normal" font-weight="normal" text-decoration="none" x="605" y="303.5">+alternative_allele: String</text></g></g><g transform="translate(-590,-86) scale(1,1)"><g><path fill="none" stroke="none"/><text fill="#000000" stroke="none" font-family="Arial" font-size="13px" font-style="normal" font-weight="normal" text-decoration="none" x="605" y="318.5">+start: Long</text></g></g><g transform="translate(-590,-86) scale(1,1)"><g><path fill="none" stroke="none"/><text fill="#000000" stroke="none" font-family="Arial" font-size="13px" font-style="normal" font-weight="normal" text-decoration="none" x="605" y="333.5">+end: Long</text></g></g><g transform="translate(-590,-86) scale(1,1)"><g><path fill="none" stroke="none"/><text fill="#000000" stroke="none" font-family="Arial" font-size="13px" font-style="normal" font-weight="normal" text-decoration="none" x="605" y="348.5">+clinical_significance: String</text></g></g><g transform="translate(-590,-86) scale(1,1)"><rect fill="#C0C0C0" stroke="none" x="1015" y="103" width="166.904296875" height="102" opacity="0.2"/></g><g transform="translate(-590,-86) scale(1,1)"><rect fill="#e2e2e2" stroke="none" x="1008" y="96" width="166.904296875" height="102"/></g><g transform="translate(-590,-86) scale(1,1)"><path fill="none" stroke="#000000" d="M 1008 96 L 1174.904296875 96 L 1174.904296875 198 L 1008 198 L 1008 96 Z Z" stroke-miterlimit="10"/></g><g transform="translate(-590,-86) scale(1,1)"><path fill="none" stroke="#000000" d="M 1008 121 L 1174.904296875 121" stroke-miterlimit="10"/></g><g transform="translate(-590,-86) scale(1,1)"><g><path fill="none" stroke="none"/><text fill="#000000" stroke="none" font-family="Arial" font-size="13px" font-style="normal" font-weight="bold" text-decoration="none" x="1052.439453125" y="115.5">Chromosome</text></g></g><g transform="translate(-590,-86) scale(1,1)"><g><path fill="none" stroke="none"/><text fill="#000000" stroke="none" font-family="Arial" font-size="13px" font-style="normal" font-weight="normal" text-decoration="none" x="1013" y="138.5">+id: String</text></g></g><g transform="translate(-590,-86) scale(1,1)"><g><path fill="none" stroke="none"/><text fill="#000000" stroke="none" font-family="Arial" font-size="13px" font-style="normal" font-weight="normal" text-decoration="none" x="1013" y="153.5">+name: String</text></g></g><g transform="translate(-590,-86) scale(1,1)"><g><path fill="none" stroke="none"/><text fill="#000000" stroke="none" font-family="Arial" font-size="13px" font-style="normal" font-weight="normal" text-decoration="none" x="1013" y="168.5">+sequence: String</text></g></g><g transform="translate(-590,-86) scale(1,1)"><g><path fill="none" stroke="none"/><text fill="#000000" stroke="none" font-family="Arial" font-size="13px" font-style="normal" font-weight="normal" text-decoration="none" x="1013" y="183.5">+reference_genome: String</text></g></g><g transform="translate(-590,-86) scale(1,1)"><rect fill="#C0C0C0" stroke="none" x="1015" y="247" width="160" height="102" opacity="0.2"/></g><g transform="translate(-590,-86) scale(1,1)"><rect fill="#d8ffd8" stroke="none" x="1008" y="240" width="160" height="102"/></g><g transform="translate(-590,-86) scale(1,1)"><path fill="none" stroke="#000000" d="M 1008 240 L 1168 240 L 1168 342 L 1008 342 L 1008 240 Z Z" stroke-miterlimit="10"/></g><g transform="translate(-590,-86) scale(1,1)"><path fill="none" stroke="#000000" d="M 1008 265 L 1168 265" stroke-miterlimit="10"/></g><g transform="translate(-590,-86) scale(1,1)"><g><path fill="none" stroke="none"/><text fill="#000000" stroke="none" font-family="Arial" font-size="13px" font-style="normal" font-weight="bold" text-decoration="none" x="1023.33642578125" y="259.5">Chromosome Element</text></g></g><g transform="translate(-590,-86) scale(1,1)"><g><path fill="none" stroke="none"/><text fill="#000000" stroke="none" font-family="Arial" font-size="13px" font-style="normal" font-weight="normal" text-decoration="none" x="1013" y="282.5">+id: String</text></g></g><g transform="translate(-590,-86) scale(1,1)"><g><path fill="none" stroke="none"/><text fill="#000000" stroke="none" font-family="Arial" font-size="13px" font-style="normal" font-weight="normal" text-decoration="none" x="1013" y="297.5">+start: Long</text></g></g><g transform="translate(-590,-86) scale(1,1)"><g><path fill="none" stroke="none"/><text fill="#000000" stroke="none" font-family="Arial" font-size="13px" font-style="normal" font-weight="normal" text-decoration="none" x="1013" y="312.5">+end: Long</text></g></g><g transform="translate(-590,-86) scale(1,1)"><g><path fill="none" stroke="none"/><text fill="#000000" stroke="none" font-family="Arial" font-size="13px" font-style="normal" font-weight="normal" text-decoration="none" x="1013" y="327.5">+strand: String</text></g></g><g transform="translate(-590,-86) scale(1,1)"><rect fill="#C0C0C0" stroke="none" x="975" y="447" width="99.6953125" height="87" opacity="0.2"/></g><g transform="translate(-590,-86) scale(1,1)"><rect fill="#e2e2e2" stroke="none" x="968" y="440" width="99.6953125" height="87"/></g><g transform="translate(-590,-86) scale(1,1)"><path fill="none" stroke="#000000" d="M 968 440 L 1067.6953125 440 L 1067.6953125 527 L 968 527 L 968 440 Z Z" stroke-miterlimit="10"/></g><g transform="translate(-590,-86) scale(1,1)"><path fill="none" stroke="#000000" d="M 968 465 L 1067.6953125 465" stroke-miterlimit="10"/></g><g transform="translate(-590,-86) scale(1,1)"><g><path fill="none" stroke="none"/><text fill="#000000" stroke="none" font-family="Arial" font-size="13px" font-style="normal" font-weight="bold" text-decoration="none" x="1001.94677734375" y="459.5">Gene</text></g></g><g transform="translate(-590,-86) scale(1,1)"><g><path fill="none" stroke="none"/><text fill="#000000" stroke="none" font-family="Arial" font-size="13px" font-style="normal" font-weight="normal" text-decoration="none" x="973" y="482.5">+name: String</text></g></g><g transform="translate(-590,-86) scale(1,1)"><g><path fill="none" stroke="none"/><text fill="#000000" stroke="none" font-family="Arial" font-size="13px" font-style="normal" font-weight="normal" text-decoration="none" x="973" y="497.5">+symbol: String</text></g></g><g transform="translate(-590,-86) scale(1,1)"><g><path fill="none" stroke="none"/><text fill="#000000" stroke="none" font-family="Arial" font-size="13px" font-style="normal" font-weight="normal" text-decoration="none" x="973" y="512.5">+biotype: String</text></g></g><g transform="translate(-590,-86) scale(1,1)"><path fill="none" stroke="#000000" d="M 1033 439 L 1069 343" stroke-miterlimit="10"/></g><g transform="translate(-590,-86) scale(1,1)"><path fill="#FFFFFF" stroke="none" d="M 1069.7462818533998 364.9873387065212 L 1069 343 L 1053.980304659589 359.0750972588421"/></g><g transform="translate(-590,-86) scale(1,1)"><path fill="none" stroke="#000000" d="M 1069.7462818533998 364.9873387065212 L 1069 343 L 1053.980304659589 359.0750972588421 L 1069.7462818533998 364.9873387065212" stroke-miterlimit="10"/></g><g transform="translate(-590,-86) scale(1,1)"><rect fill="#C0C0C0" stroke="none" x="1111" y="447" width="90.29443359375" height="57" opacity="0.2"/></g><g transform="translate(-590,-86) scale(1,1)"><rect fill="#e2e2e2" stroke="none" x="1104" y="440" width="90.29443359375" height="57"/></g><g transform="translate(-590,-86) scale(1,1)"><path fill="none" stroke="#000000" d="M 1104 440 L 1194.29443359375 440 L 1194.29443359375 497 L 1104 497 L 1104 440 Z Z" stroke-miterlimit="10"/></g><g transform="translate(-590,-86) scale(1,1)"><path fill="none" stroke="#000000" d="M 1104 465 L 1194.29443359375 465" stroke-miterlimit="10"/></g><g transform="translate(-590,-86) scale(1,1)"><g><path fill="none" stroke="none"/><text fill="#000000" stroke="none" font-family="Arial" font-size="13px" font-style="normal" font-weight="bold" text-decoration="none" x="1134.331787109375" y="459.5">Exon</text></g></g><g transform="translate(-590,-86) scale(1,1)"><g><path fill="none" stroke="none"/><text fill="#000000" stroke="none" font-family="Arial" font-size="13px" font-style="normal" font-weight="normal" text-decoration="none" x="1109" y="482.5">+name: String</text></g></g><g transform="translate(-590,-86) scale(1,1)"><path fill="none" stroke="#000000" d="M 1139 439 L 1106 343" stroke-miterlimit="10"/></g><g transform="translate(-590,-86) scale(1,1)"><path fill="#FFFFFF" stroke="none" d="M 1120.5691290431394 359.48455273655765 L 1106 343 L 1104.6455909175386 364.958268967233"/></g><g transform="translate(-590,-86) scale(1,1)"><path fill="none" stroke="#000000" d="M 1120.5691290431394 359.48455273655765 L 1106 343 L 1104.6455909175386 364.958268967233 L 1120.5691290431394 359.48455273655765" stroke-miterlimit="10"/></g><g transform="translate(-590,-86) scale(1,1)"><path fill="none" stroke="#000000" d="M 1089 239 L 1090 199" stroke-miterlimit="10"/></g><g transform="translate(-590,-86) scale(1,1)"><path fill="#000000" stroke="none" d="M 1093.954215385284 209.26470558207993 L 1090 199 L 1085.5378095892345 209.05429543717867 L 1089.4501717944756 220.9931282209787"/></g><g transform="translate(-590,-86) scale(1,1)"><path fill="none" stroke="#000000" d="M 1093.954215385284 209.26470558207993 L 1090 199 L 1085.5378095892345 209.05429543717867 L 1089.4501717944756 220.9931282209787 L 1093.954215385284 209.26470558207993" stroke-miterlimit="10"/></g><g transform="translate(-590,-86) scale(1,1)"><path fill="none" stroke="#000000" d="M 773 289 L 1007 291" stroke-miterlimit="10"/></g><g transform="translate(-590,-86) scale(1,1)"><g><path fill="none" stroke="none"/><text fill="#000000" stroke="none" font-family="Arial" font-size="13px" font-style="normal" font-weight="normal" text-decoration="none" x="861.34423828125" y="283.5">+Affects</text></g></g><g transform="translate(-590,-86) scale(1,1)"><g><path fill="none" stroke="none"/><text fill="#000000" stroke="none" font-family="Arial" font-size="13px" font-style="normal" font-weight="normal" text-decoration="none" x="791.726806640625" y="307.5">*</text></g></g><g transform="translate(-590,-86) scale(1,1)"><g><path fill="none" stroke="none"/><text fill="#000000" stroke="none" font-family="Arial" font-size="13px" font-style="normal" font-weight="normal" text-decoration="none" x="975.5" y="309.5">1..*</text></g></g><g transform="translate(-590,-86) scale(1,1)"><path fill="none" stroke="#000000" d="M 687 215 L 688 144 L 1007 146" stroke-miterlimit="10"/></g><g transform="translate(-590,-86) scale(1,1)"><g><path fill="none" stroke="none"/><text fill="#000000" stroke="none" font-family="Arial" font-size="13px" font-style="normal" font-weight="normal" text-decoration="none" x="649.5" y="135.5">+Is located in</text></g></g><g transform="translate(-590,-86) scale(1,1)"><g><path fill="none" stroke="none"/><text fill="#000000" stroke="none" font-family="Arial" font-size="13px" font-style="normal" font-weight="normal" text-decoration="none" x="689.5" y="199.5">0..*</text></g></g><g transform="translate(-590,-86) scale(1,1)"><g><path fill="none" stroke="none"/><text fill="#000000" stroke="none" font-family="Arial" font-size="13px" font-style="normal" font-weight="normal" text-decoration="none" x="975.5" y="164.5">1..*</text></g></g></g></svg>