<svg version="1.1" xmlns="http://www.w3.org/2000/svg" 
xmlns:xlink="http://www.w3.org/1999/xlink" width="172" height="112"><defs/><g>
<g transform="translate(-1478,-86) scale(1,1)"><rect fill="#C0C0C0" stroke="none" x="1495" y="103" width="152" height="92" opacity="0.2"/></g><g transform="translate(-1478,-86) scale(1,1)"><rect fill="#ffffff" stroke="none" x="1488" y="96" width="152" height="92"/></g><g transform="translate(-1478,-86) scale(1,1)"><path fill="none" stroke="#000000" d="M 1488 96 L 1640 96 L 1640 188 L 1488 188 L 1488 96 Z Z" stroke-miterlimit="10"/></g><g transform="translate(-1478,-86) scale(1,1)"><path fill="none" stroke="#000000" d="M 1488 121 L 1640 121" stroke-miterlimit="10"/></g><g transform="translate(-1478,-86) scale(1,1)"><g><path fill="none" stroke="none"/><text fill="#000000" stroke="none" font-family="Arial" font-size="13px" font-style="normal" font-weight="bold" text-decoration="none" x="1527.869140625" y="115.5">Data Source</text></g></g><g transform="translate(-1478,-86) scale(1,1)"><g><path fill="none" stroke="none"/><text fill="#000000" stroke="none" font-family="Arial" font-size="13px" font-style="normal" font-weight="normal" text-decoration="none" x="1493" y="138.5">+name: String</text></g></g><g transform="translate(-1478,-86) scale(1,1)"><g><path fill="none" stroke="none"/><text fill="#000000" stroke="none" font-family="Arial" font-size="13px" font-style="normal" font-weight="normal" text-decoration="none" x="1493" y="153.5">+url: String</text></g></g><g transform="translate(-1478,-86) scale(1,1)"><g><path fill="none" stroke="none"/><text fill="#000000" stroke="none" font-family="Arial" font-size="13px" font-style="normal" font-weight="normal" text-decoration="none" x="1493" y="168.5">+version: String</text></g></g><g transform="translate(-1478,-86) scale(1,1)"><g><path fill="none" stroke="none"/><text fill="#000000" stroke="none" font-family="Arial" font-size="13px" font-style="normal" font-weight="normal" text-decoration="none" x="1493" y="183.5">+date_accessed: String</text></g></g></g></svg>