<svg version="1.1" xmlns="http://www.w3.org/2000/svg" 
xmlns:xlink="http://www.w3.org/1999/xlink" width="159.4443359375" 
height="387"><defs/><g><g transform="translate(-1446,-566) scale(1,1)"><rect fill="#C0C0C0" stroke="none" x="1471" y="863" width="114.1552734375" height="87" opacity="0.2"/></g><g transform="translate(-1446,-566) scale(1,1)"><rect fill="#e2e2e2" stroke="none" x="1464" y="856" width="114.1552734375" height="87"/></g><g transform="translate(-1446,-566) scale(1,1)"><path fill="none" stroke="#000000" d="M 1464 856 L 1578.1552734375 856 L 1578.1552734375 943 L 1464 943 L 1464 856 Z Z" stroke-miterlimit="10"/></g><g transform="translate(-1446,-566) scale(1,1)"><path fill="none" stroke="#000000" d="M 1464 881 L 1578.1552734375 881" stroke-miterlimit="10"/></g><g transform="translate(-1446,-566) scale(1,1)"><g><path fill="none" stroke="none"/><text fill="#000000" stroke="none" font-family="Arial" font-size="13px" font-style="normal" font-weight="bold" text-decoration="none" x="1500.482666015625" y="875.5">Protein</text></g></g><g transform="translate(-1446,-566) scale(1,1)"><g><path fill="none" stroke="none"/><text fill="#000000" stroke="none" font-family="Arial" font-size="13px" font-style="normal" font-weight="normal" text-decoration="none" x="1469" y="898.5">+id: String</text></g></g><g transform="translate(-1446,-566) scale(1,1)"><g><path fill="none" stroke="none"/><text fill="#000000" stroke="none" font-family="Arial" font-size="13px" font-style="normal" font-weight="normal" text-decoration="none" x="1469" y="913.5">+name: String</text></g></g><g transform="translate(-1446,-566) scale(1,1)"><g><path fill="none" stroke="none"/><text fill="#000000" stroke="none" font-family="Arial" font-size="13px" font-style="normal" font-weight="normal" text-decoration="none" x="1469" y="928.5">+sequence: String</text></g></g><g transform="translate(-1446,-566) scale(1,1)"><rect fill="#C0C0C0" stroke="none" x="1471" y="735" width="120.642578125" height="72" opacity="0.2"/></g><g transform="translate(-1446,-566) scale(1,1)"><rect fill="#d8ffd8" stroke="none" x="1464" y="728" width="120.642578125" height="72"/></g><g transform="translate(-1446,-566) scale(1,1)"><path fill="none" stroke="#000000" d="M 1464 728 L 1584.642578125 728 L 1584.642578125 800 L 1464 800 L 1464 728 Z Z" stroke-miterlimit="10"/></g><g transform="translate(-1446,-566) scale(1,1)"><path fill="none" stroke="#000000" d="M 1464 753 L 1584.642578125 753" stroke-miterlimit="10"/></g><g transform="translate(-1446,-566) scale(1,1)"><g><path fill="none" stroke="none"/><text fill="#000000" stroke="none" font-family="Arial" font-size="13px" font-style="normal" font-weight="bold" text-decoration="none" x="1500.84130859375" y="747.5">Enzyme</text></g></g><g transform="translate(-1446,-566) scale(1,1)"><g><path fill="none" stroke="none"/><text fill="#000000" stroke="none" font-family="Arial" font-size="13px" font-style="normal" font-weight="normal" text-decoration="none" x="1469" y="770.5">+enzyme_id: String</text></g></g><g transform="translate(-1446,-566) scale(1,1)"><g><path fill="none" stroke="none"/><text fill="#000000" stroke="none" font-family="Arial" font-size="13px" font-style="normal" font-weight="normal" text-decoration="none" x="1469" y="785.5">+class: String</text></g></g><g transform="translate(-1446,-566) scale(1,1)"><path fill="none" stroke="#000000" d="M 1523 801 L 1522 855" stroke-miterlimit="10"/></g><g transform="translate(-1446,-566) scale(1,1)"><path fill="#FFFFFF" stroke="none" d="M 1513.9587385519949 834.5222531921887 L 1522 855 L 1530.793923132046 834.834015869597"/></g><g transform="translate(-1446,-566) scale(1,1)"><path fill="none" stroke="#000000" d="M 1513.9587385519949 834.5222531921887 L 1522 855 L 1530.793923132046 834.834015869597 L 1513.9587385519949 834.5222531921887" stroke-miterlimit="10"/></g><g transform="translate(-1446,-566) scale(1,1)"><rect fill="#C0C0C0" stroke="none" x="1463" y="583" width="139.4443359375" height="102" opacity="0.2"/></g><g transform="translate(-1446,-566) scale(1,1)"><rect fill="#e2e2e2" stroke="none" x="1456" y="576" width="139.4443359375" height="102"/></g><g transform="translate(-1446,-566) scale(1,1)"><path fill="none" stroke="#000000" d="M 1456 576 L 1595.4443359375 576 L 1595.4443359375 678 L 1456 678 L 1456 576 Z Z" stroke-miterlimit="10"/></g><g transform="translate(-1446,-566) scale(1,1)"><path fill="none" stroke="#000000" d="M 1456 601 L 1595.4443359375 601" stroke-miterlimit="10"/></g><g transform="translate(-1446,-566) scale(1,1)"><g><path fill="none" stroke="none"/><text fill="#000000" stroke="none" font-family="Arial" font-size="13px" font-style="normal" font-weight="bold" text-decoration="none" x="1480.56494140625" y="595.5">Mutant Enzyme</text></g></g><g transform="translate(-1446,-566) scale(1,1)"><g><path fill="none" stroke="none"/><text fill="#000000" stroke="none" font-family="Arial" font-size="13px" font-style="normal" font-weight="normal" text-decoration="none" x="1461" y="618.5">+reference_aa: String</text></g></g><g transform="translate(-1446,-566) scale(1,1)"><g><path fill="none" stroke="none"/><text fill="#000000" stroke="none" font-family="Arial" font-size="13px" font-style="normal" font-weight="normal" text-decoration="none" x="1461" y="633.5">+alternative_aa: String</text></g></g><g transform="translate(-1446,-566) scale(1,1)"><g><path fill="none" stroke="none"/><text fill="#000000" stroke="none" font-family="Arial" font-size="13px" font-style="normal" font-weight="normal" text-decoration="none" x="1461" y="648.5">+start: Long</text></g></g><g transform="translate(-1446,-566) scale(1,1)"><g><path fill="none" stroke="none"/><text fill="#000000" stroke="none" font-family="Arial" font-size="13px" font-style="normal" font-weight="normal" text-decoration="none" x="1461" y="663.5">+end: Long</text></g></g><g transform="translate(-1446,-566) scale(1,1)"><path fill="none" stroke="#000000" d="M 1525 679 L 1524 727" stroke-miterlimit="10"/></g><g transform="translate(-1446,-566) scale(1,1)"><path fill="#FFFFFF" stroke="none" d="M 1516.0061438633152 706.5037012105603 L 1524 727 L 1532.840561981159 706.8544182546821"/></g><g transform="translate(-1446,-566) scale(1,1)"><path fill="none" stroke="#000000" d="M 1516.0061438633152 706.5037012105603 L 1524 727 L 1532.840561981159 706.8544182546821 L 1516.0061438633152 706.5037012105603" stroke-miterlimit="10"/></g></g></svg>