<svg version="1.1" xmlns="http://www.w3.org/2000/svg" 
xmlns:xlink="http://www.w3.org/1999/xlink" width="166.97265625" height="438"><defs/><g>
<g transform="translate(-909,-320) scale(1,1)"><rect fill="#C0C0C0" 
  stroke="none" x="959" y="511" width="90.29443359375" height="57" opacity="0.2"/></g><g 
  transform="translate(-909,-320) scale(1,1)"><rect fill="#d8ffd8" stroke="none" x="952" y="504" 
  width="90.29443359375" height="57"/></g><g transform="translate(-909,-320) scale(1,1)"><path 
  fill="none" stroke="#000000" d="M 952 504 L 1042.29443359375 504 L 1042.29443359375 561 L 952 561 
  L 952 504 Z Z" stroke-miterlimit="10"/></g><g transform="translate(-909,-320) scale(1,1)">
  <path fill="none" stroke="#000000" d="M 952 529 L 1042.29443359375 529" stroke-miterlimit="10"/></g>
  <g transform="translate(-909,-320) scale(1,1)"><g><path fill="none" stroke="none"/><text fill="#000000" stroke="none" font-family="Arial" font-size="13px" font-style="normal" font-weight="bold" text-decoration="none" x="982.331787109375" y="523.5">Exon</text></g></g><g transform="translate(-909,-320) scale(1,1)"><g><path fill="none" stroke="none"/><text fill="#000000" stroke="none" font-family="Arial" font-size="13px" font-style="normal" font-weight="normal" text-decoration="none" x="957" y="546.5">+name: String</text></g></g><g transform="translate(-909,-320) scale(1,1)"><path fill="none" stroke="#000000" d="M 996 503 L 994 433" stroke-miterlimit="10"/></g><g transform="translate(-909,-320) scale(1,1)"><path fill="#FFFFFF" stroke="none" d="M 1002.9960886657418 453.0766129792381 L 994 433 L 986.1648861188244 453.5575044805786"/></g><g transform="translate(-909,-320) scale(1,1)"><path fill="none" stroke="#000000" d="M 1002.9960886657418 453.0766129792381 L 994 433 L 986.1648861188244 453.5575044805786 L 1002.9960886657418 453.0766129792381" stroke-miterlimit="10"/></g><g transform="translate(-909,-320) scale(1,1)"><rect fill="#C0C0C0" stroke="none" x="926" y="337" width="146.97265625" height="102" opacity="0.2"/></g><g transform="translate(-909,-320) scale(1,1)"><rect fill="#e2e2e2" stroke="none" x="919" y="330" width="146.97265625" height="102"/></g><g transform="translate(-909,-320) scale(1,1)"><path fill="none" stroke="#000000" d="M 919 330 L 1065.97265625 330 L 1065.97265625 432 L 919 432 L 919 330 Z Z" stroke-miterlimit="10"/></g><g transform="translate(-909,-320) scale(1,1)"><path fill="none" stroke="#000000" d="M 919 355 L 1065.97265625 355" stroke-miterlimit="10"/></g><g transform="translate(-909,-320) scale(1,1)"><g><path fill="none" stroke="none"/><text fill="#000000" stroke="none" font-family="Arial" font-size="13px" font-style="normal" font-weight="bold" text-decoration="none" x="927.82275390625" y="349.5">Chromosome Element</text></g></g><g transform="translate(-909,-320) scale(1,1)"><g><path fill="none" stroke="none"/><text fill="#000000" stroke="none" font-family="Arial" font-size="13px" font-style="normal" font-weight="normal" text-decoration="none" x="924" y="372.5">+id: String</text></g></g><g transform="translate(-909,-320) scale(1,1)"><g><path fill="none" stroke="none"/><text fill="#000000" stroke="none" font-family="Arial" font-size="13px" font-style="normal" font-weight="normal" text-decoration="none" x="924" y="387.5">+start: Long</text></g></g><g transform="translate(-909,-320) scale(1,1)"><g><path fill="none" stroke="none"/><text fill="#000000" stroke="none" font-family="Arial" font-size="13px" font-style="normal" font-weight="normal" text-decoration="none" x="924" y="402.5">+end: Long</text></g></g><g transform="translate(-909,-320) scale(1,1)"><g><path fill="none" stroke="none"/><text fill="#000000" stroke="none" font-family="Arial" font-size="13px" font-style="normal" font-weight="normal" text-decoration="none" x="924" y="417.5">+strand: String</text></g></g><g transform="translate(-909,-320) scale(1,1)"><path fill="none" stroke="#000000" d="M 998 562 L 1001 655" stroke-miterlimit="10"/></g><g transform="translate(-909,-320) scale(1,1)"><path fill="#FFFFFF" stroke="none" d="M 996.4650129238797 644.9783288709207 L 1001 655 L 1004.8796715000755 644.7068882716885 L 1000.290691531759 633.0114374845266"/></g><g transform="translate(-909,-320) scale(1,1)"><path fill="none" stroke="#000000" d="M 996.4650129238797 644.9783288709207 L 1001 655 L 1004.8796715000755 644.7068882716885 L 1000.290691531759 633.0114374845266 L 996.4650129238797 644.9783288709207" stroke-miterlimit="10"/></g><g transform="translate(-909,-320) scale(1,1)"><g><path fill="none" stroke="none"/><text fill="#000000" stroke="none" font-family="Arial" font-size="13px" font-style="normal" font-weight="normal" text-decoration="none" x="976.5" y="590.5">1..*</text></g></g><g transform="translate(-909,-320) scale(1,1)"><rect fill="#C0C0C0" stroke="none" x="951" y="663" width="118.08447265625" height="92" opacity="0.2"/></g><g transform="translate(-909,-320) scale(1,1)"><rect fill="#e2e2e2" stroke="none" x="944" y="656" width="118.08447265625" height="92"/></g><g transform="translate(-909,-320) scale(1,1)"><path fill="none" stroke="#000000" d="M 944 656 L 1062.08447265625 656 L 1062.08447265625 748 L 944 748 L 944 656 Z Z" stroke-miterlimit="10"/></g><g transform="translate(-909,-320) scale(1,1)"><path fill="none" stroke="#000000" d="M 944 681 L 1062.08447265625 681" stroke-miterlimit="10"/></g><g transform="translate(-909,-320) scale(1,1)"><g><path fill="none" stroke="none"/><text fill="#000000" stroke="none" font-family="Arial" font-size="13px" font-style="normal" font-weight="bold" text-decoration="none" x="952.35302734375" y="675.5">Mature Transcript</text></g></g><g transform="translate(-909,-320) scale(1,1)"><g><path fill="none" stroke="none"/><text fill="#000000" stroke="none" font-family="Arial" font-size="13px" font-style="normal" font-weight="normal" text-decoration="none" x="949" y="698.5">+id: String</text></g></g><g transform="translate(-909,-320) scale(1,1)"><g><path fill="none" stroke="none"/><text fill="#000000" stroke="none" font-family="Arial" font-size="13px" font-style="normal" font-weight="normal" text-decoration="none" x="949" y="713.5">+start: Long</text></g></g><g transform="translate(-909,-320) scale(1,1)"><g><path fill="none" stroke="none"/><text fill="#000000" stroke="none" font-family="Arial" font-size="13px" font-style="normal" font-weight="normal" text-decoration="none" x="949" y="728.5">+end: Long</text></g></g><g transform="translate(-909,-320) scale(1,1)"><g><path fill="none" stroke="none"/><text fill="#000000" stroke="none" font-family="Arial" font-size="13px" font-style="normal" font-weight="normal" text-decoration="none" x="949" y="743.5">+/sequence: String</text></g></g></g></svg>