<svg version="1.1" xmlns="http://www.w3.org/2000/svg" 
xmlns:xlink="http://www.w3.org/1999/xlink" width="166.97265625" 
height="419"><defs/><g><g transform="translate(-1086,-422) scale(1,1)"><rect fill="#C0C0C0" stroke="none" x="1103" y="439" width="146.97265625" height="102" opacity="0.2"/></g><g transform="translate(-1086,-422) scale(1,1)"><rect fill="#e2e2e2" stroke="none" x="1096" y="432" width="146.97265625" height="102"/></g><g transform="translate(-1086,-422) scale(1,1)"><path fill="none" stroke="#000000" d="M 1096 432 L 1242.97265625 432 L 1242.97265625 534 L 1096 534 L 1096 432 Z Z" stroke-miterlimit="10"/></g><g transform="translate(-1086,-422) scale(1,1)"><path fill="none" stroke="#000000" d="M 1096 457 L 1242.97265625 457" stroke-miterlimit="10"/></g><g transform="translate(-1086,-422) scale(1,1)"><g><path fill="none" stroke="none"/><text fill="#000000" stroke="none" font-family="Arial" font-size="13px" font-style="normal" font-weight="bold" text-decoration="none" x="1104.82275390625" y="451.5">Chromosome Element</text></g></g><g transform="translate(-1086,-422) scale(1,1)"><g><path fill="none" stroke="none"/><text fill="#000000" stroke="none" font-family="Arial" font-size="13px" font-style="normal" font-weight="normal" text-decoration="none" x="1101" y="474.5">+id: String</text></g></g><g transform="translate(-1086,-422) scale(1,1)"><g><path fill="none" stroke="none"/><text fill="#000000" stroke="none" font-family="Arial" font-size="13px" font-style="normal" font-weight="normal" text-decoration="none" x="1101" y="489.5">+start: Long</text></g></g><g transform="translate(-1086,-422) scale(1,1)"><g><path fill="none" stroke="none"/><text fill="#000000" stroke="none" font-family="Arial" font-size="13px" font-style="normal" font-weight="normal" text-decoration="none" x="1101" y="504.5">+end: Long</text></g></g><g transform="translate(-1086,-422) scale(1,1)"><g><path fill="none" stroke="none"/><text fill="#000000" stroke="none" font-family="Arial" font-size="13px" font-style="normal" font-weight="normal" text-decoration="none" x="1101" y="519.5">+strand: String</text></g></g><g transform="translate(-1086,-422) scale(1,1)"><rect fill="#C0C0C0" stroke="none" x="1135" y="615" width="90.29443359375" height="57" opacity="0.2"/></g><g transform="translate(-1086,-422) scale(1,1)"><rect fill="#d8ffd8" stroke="none" x="1128" y="608" width="90.29443359375" height="57"/></g><g transform="translate(-1086,-422) scale(1,1)"><path fill="none" stroke="#000000" d="M 1128 608 L 1218.29443359375 608 L 1218.29443359375 665 L 1128 665 L 1128 608 Z Z" stroke-miterlimit="10"/></g><g transform="translate(-1086,-422) scale(1,1)"><path fill="none" stroke="#000000" d="M 1128 633 L 1218.29443359375 633" stroke-miterlimit="10"/></g><g transform="translate(-1086,-422) scale(1,1)"><g><path fill="none" stroke="none"/><text fill="#000000" stroke="none" font-family="Arial" font-size="13px" font-style="normal" font-weight="bold" text-decoration="none" x="1158.331787109375" y="627.5">Exon</text></g></g><g transform="translate(-1086,-422) scale(1,1)"><g><path fill="none" stroke="none"/><text fill="#000000" stroke="none" font-family="Arial" font-size="13px" font-style="normal" font-weight="normal" text-decoration="none" x="1133" y="650.5">+name: String</text></g></g><g transform="translate(-1086,-422) scale(1,1)"><path fill="none" stroke="#000000" d="M 1172 607 L 1170 535" stroke-miterlimit="10"/></g><g transform="translate(-1086,-422) scale(1,1)"><path fill="#FFFFFF" stroke="none" d="M 1178.9801646580415 555.0837407550104 L 1170 535 L 1162.1485860464124 555.5512846053333"/></g><g transform="translate(-1086,-422) scale(1,1)"><path fill="none" stroke="#000000" d="M 1178.9801646580415 555.0837407550104 L 1170 535 L 1162.1485860464124 555.5512846053333 L 1178.9801646580415 555.0837407550104" stroke-miterlimit="10"/></g><g transform="translate(-1086,-422) scale(1,1)"><path fill="none" stroke="#000000" d="M 1173 666 L 1172 743" stroke-miterlimit="10"/></g><g transform="translate(-1086,-422) scale(1,1)"><path fill="#FFFFFF" stroke="none" d="M 1167.9228088544846 732.7835176130465 L 1172 743 L 1176.3411344685 732.8928465171246 L 1172.285690194118 721.0018550529145"/></g><g transform="translate(-1086,-422) scale(1,1)"><path fill="none" stroke="#000000" d="M 1167.9228088544846 732.7835176130465 L 1172 743 L 1176.3411344685 732.8928465171246 L 1172.285690194118 721.0018550529145 L 1167.9228088544846 732.7835176130465" stroke-miterlimit="10"/></g><g transform="translate(-1086,-422) scale(1,1)"><g><path fill="none" stroke="none"/><text fill="#000000" stroke="none" font-family="Arial" font-size="13px" font-style="normal" font-weight="normal" text-decoration="none" x="1150.5" y="693.5">1..*</text></g></g><g transform="translate(-1086,-422) scale(1,1)"><rect fill="#C0C0C0" stroke="none" x="1119" y="751" width="118.08447265625" height="87" opacity="0.2"/></g><g transform="translate(-1086,-422) scale(1,1)"><rect fill="#e2e2e2" stroke="none" x="1112" y="744" width="118.08447265625" height="87"/></g><g transform="translate(-1086,-422) scale(1,1)"><path fill="none" stroke="#000000" d="M 1112 744 L 1230.08447265625 744 L 1230.08447265625 831 L 1112 831 L 1112 744 Z Z" stroke-miterlimit="10"/></g><g transform="translate(-1086,-422) scale(1,1)"><path fill="none" stroke="#000000" d="M 1112 769 L 1230.08447265625 769" stroke-miterlimit="10"/></g><g transform="translate(-1086,-422) scale(1,1)"><g><path fill="none" stroke="none"/><text fill="#000000" stroke="none" font-family="Arial" font-size="13px" font-style="normal" font-weight="bold" text-decoration="none" x="1120.35302734375" y="763.5">Mature Transcript</text></g></g><g transform="translate(-1086,-422) scale(1,1)"><g><path fill="none" stroke="none"/><text fill="#000000" stroke="none" font-family="Arial" font-size="13px" font-style="normal" font-weight="normal" text-decoration="none" x="1117" y="786.5">+id: String</text></g></g><g transform="translate(-1086,-422) scale(1,1)"><g><path fill="none" stroke="none"/><text fill="#000000" stroke="none" font-family="Arial" font-size="13px" font-style="normal" font-weight="normal" text-decoration="none" x="1117" y="801.5">+start: Long</text></g></g><g transform="translate(-1086,-422) scale(1,1)"><g><path fill="none" stroke="none"/><text fill="#000000" stroke="none" font-family="Arial" font-size="13px" font-style="normal" font-weight="normal" text-decoration="none" x="1117" y="816.5">+end: Long</text></g></g></g></svg>