<svg version="1.1" xmlns="http://www.w3.org/2000/svg" xmlns:xlink="http://www.w3.org/1999/xlink" width="360.51171875" height="467"><defs/><g><g transform="translate(-742,-414) scale(1,1)"><rect fill="#C0C0C0" stroke="none" x="951" y="431" width="146.97265625" height="102" opacity="0.2"/></g><g transform="translate(-742,-414) scale(1,1)"><rect fill="#e2e2e2" stroke="none" x="944" y="424" width="146.97265625" height="102"/></g><g transform="translate(-742,-414) scale(1,1)"><path fill="none" stroke="#000000" d="M 944 424 L 1090.97265625 424 L 1090.97265625 526 L 944 526 L 944 424 Z Z" stroke-miterlimit="10"/></g><g transform="translate(-742,-414) scale(1,1)"><path fill="none" stroke="#000000" d="M 944 449 L 1090.97265625 449" stroke-miterlimit="10"/></g><g transform="translate(-742,-414) scale(1,1)"><g><path fill="none" stroke="none"/><text fill="#000000" stroke="none" font-family="Arial" font-size="13px" font-style="normal" font-weight="bold" text-decoration="none" x="952.82275390625" y="443.5">Chromosome Element</text></g></g><g transform="translate(-742,-414) scale(1,1)"><g><path fill="none" stroke="none"/><text fill="#000000" stroke="none" font-family="Arial" font-size="13px" font-style="normal" font-weight="normal" text-decoration="none" x="949" y="466.5">+id: String</text></g></g><g transform="translate(-742,-414) scale(1,1)"><g><path fill="none" stroke="none"/><text fill="#000000" stroke="none" font-family="Arial" font-size="13px" font-style="normal" font-weight="normal" text-decoration="none" x="949" y="481.5">+start: Long</text></g></g><g transform="translate(-742,-414) scale(1,1)"><g><path fill="none" stroke="none"/><text fill="#000000" stroke="none" font-family="Arial" font-size="13px" font-style="normal" font-weight="normal" text-decoration="none" x="949" y="496.5">+end: Long</text></g></g><g transform="translate(-742,-414) scale(1,1)"><g><path fill="none" stroke="none"/><text fill="#000000" stroke="none" font-family="Arial" font-size="13px" font-style="normal" font-weight="normal" text-decoration="none" x="949" y="511.5">+strand: String</text></g></g><g transform="translate(-742,-414) scale(1,1)"><rect fill="#C0C0C0" stroke="none" x="975" y="615" width="99.6953125" height="87" opacity="0.2"/></g><g transform="translate(-742,-414) scale(1,1)"><rect fill="#d8ffd8" stroke="none" x="968" y="608" width="99.6953125" height="87"/></g><g transform="translate(-742,-414) scale(1,1)"><path fill="none" stroke="#000000" d="M 968 608 L 1067.6953125 608 L 1067.6953125 695 L 968 695 L 968 608 Z Z" stroke-miterlimit="10"/></g><g transform="translate(-742,-414) scale(1,1)"><path fill="none" stroke="#000000" d="M 968 633 L 1067.6953125 633" stroke-miterlimit="10"/></g><g transform="translate(-742,-414) scale(1,1)"><g><path fill="none" stroke="none"/><text fill="#000000" stroke="none" font-family="Arial" font-size="13px" font-style="normal" font-weight="bold" text-decoration="none" x="1001.94677734375" y="627.5">Gene</text></g></g><g transform="translate(-742,-414) scale(1,1)"><g><path fill="none" stroke="none"/><text fill="#000000" stroke="none" font-family="Arial" font-size="13px" font-style="normal" font-weight="normal" text-decoration="none" x="973" y="650.5">+name: String</text></g></g><g transform="translate(-742,-414) scale(1,1)"><g><path fill="none" stroke="none"/><text fill="#000000" stroke="none" font-family="Arial" font-size="13px" font-style="normal" font-weight="normal" text-decoration="none" x="973" y="665.5">+symbol: String</text></g></g><g transform="translate(-742,-414) scale(1,1)"><g><path fill="none" stroke="none"/><text fill="#000000" stroke="none" font-family="Arial" font-size="13px" font-style="normal" font-weight="normal" text-decoration="none" x="973" y="680.5">+biotype: String</text></g></g><g transform="translate(-742,-414) scale(1,1)"><path fill="none" stroke="#000000" d="M 1017 607 L 1017 527" stroke-miterlimit="10"/></g><g transform="translate(-742,-414) scale(1,1)"><path fill="#FFFFFF" stroke="none" d="M 1025.419035512032 547.3253497152483 L 1017 527 L 1008.580964487968 547.3253497152483"/></g><g transform="translate(-742,-414) scale(1,1)"><path fill="none" stroke="#000000" d="M 1025.419035512032 547.3253497152483 L 1017 527 L 1008.580964487968 547.3253497152483 L 1025.419035512032 547.3253497152483" stroke-miterlimit="10"/></g><g transform="translate(-742,-414) scale(1,1)"><rect fill="#C0C0C0" stroke="none" x="967" y="791" width="118.08447265625" height="87" opacity="0.2"/></g><g transform="translate(-742,-414) scale(1,1)"><rect fill="#e2e2e2" stroke="none" x="960" y="784" width="118.08447265625" height="87"/></g><g transform="translate(-742,-414) scale(1,1)"><path fill="none" stroke="#000000" d="M 960 784 L 1078.08447265625 784 L 1078.08447265625 871 L 960 871 L 960 784 Z Z" stroke-miterlimit="10"/></g><g transform="translate(-742,-414) scale(1,1)"><path fill="none" stroke="#000000" d="M 960 809 L 1078.08447265625 809" stroke-miterlimit="10"/></g><g transform="translate(-742,-414) scale(1,1)"><g><path fill="none" stroke="none"/><text fill="#000000" stroke="none" font-family="Arial" font-size="13px" font-style="normal" font-weight="bold" text-decoration="none" x="968.35302734375" y="803.5">Mature Transcript</text></g></g><g transform="translate(-742,-414) scale(1,1)"><g><path fill="none" stroke="none"/><text fill="#000000" stroke="none" font-family="Arial" font-size="13px" font-style="normal" font-weight="normal" text-decoration="none" x="965" y="826.5">+id: String</text></g></g><g transform="translate(-742,-414) scale(1,1)"><g><path fill="none" stroke="none"/><text fill="#000000" stroke="none" font-family="Arial" font-size="13px" font-style="normal" font-weight="normal" text-decoration="none" x="965" y="841.5">+start: Long</text></g></g><g transform="translate(-742,-414) scale(1,1)"><g><path fill="none" stroke="none"/><text fill="#000000" stroke="none" font-family="Arial" font-size="13px" font-style="normal" font-weight="normal" text-decoration="none" x="965" y="856.5">+end: Long</text></g></g><g transform="translate(-742,-414) scale(1,1)"><rect fill="#C0C0C0" stroke="none" x="759" y="791" width="158.95068359375" height="72" opacity="0.2"/></g><g transform="translate(-742,-414) scale(1,1)"><rect fill="#e2e2e2" stroke="none" x="752" y="784" width="158.95068359375" height="72"/></g><g transform="translate(-742,-414) scale(1,1)"><path fill="none" stroke="#000000" d="M 752 784 L 910.95068359375 784 L 910.95068359375 856 L 752 856 L 752 784 Z Z" stroke-miterlimit="10"/></g><g transform="translate(-742,-414) scale(1,1)"><path fill="none" stroke="#000000" d="M 752 809 L 910.95068359375 809" stroke-miterlimit="10"/></g><g transform="translate(-742,-414) scale(1,1)"><g><path fill="none" stroke="none"/><text fill="#000000" stroke="none" font-family="Arial" font-size="13px" font-style="normal" font-weight="bold" text-decoration="none" x="778.612060546875" y="803.5">Tissue Expression</text></g></g><g transform="translate(-742,-414) scale(1,1)"><g><path fill="none" stroke="none"/><text fill="#000000" stroke="none" font-family="Arial" font-size="13px" font-style="normal" font-weight="normal" text-decoration="none" x="757" y="826.5">+tissue_name: String</text></g></g><g transform="translate(-742,-414) scale(1,1)"><g><path fill="none" stroke="none"/><text fill="#000000" stroke="none" font-family="Arial" font-size="13px" font-style="normal" font-weight="normal" text-decoration="none" x="757" y="841.5">+expression_value: String</text></g></g><g transform="translate(-742,-414) scale(1,1)"><path fill="none" stroke="#000000" d="M 1018 696 L 1019 783" stroke-miterlimit="10"/></g><g transform="translate(-742,-414) scale(1,1)"><g><path fill="none" stroke="none"/><text fill="#000000" stroke="none" font-family="Arial" font-size="13px" font-style="normal" font-weight="normal" text-decoration="none" x="1030.5" y="744.5">+Produces</text></g></g><g transform="translate(-742,-414) scale(1,1)"><g><path fill="none" stroke="none"/><text fill="#000000" stroke="none" font-family="Arial" font-size="13px" font-style="normal" font-weight="normal" text-decoration="none" x="1001.5" y="723.5">1</text></g></g><g transform="translate(-742,-414) scale(1,1)"><g><path fill="none" stroke="none"/><text fill="#000000" stroke="none" font-family="Arial" font-size="13px" font-style="normal" font-weight="normal" text-decoration="none" x="996.5" y="767.5">1..*</text></g></g><g transform="translate(-742,-414) scale(1,1)"><path fill="none" stroke="#000000" d="M 967 650 L 832 648 L 831 783" stroke-miterlimit="10"/></g><g transform="translate(-742,-414) scale(1,1)"><g><path fill="none" stroke="none"/><text fill="#000000" stroke="none" font-family="Arial" font-size="13px" font-style="normal" font-weight="normal" text-decoration="none" x="799.5" y="644.5">+Is expressed in</text></g></g><g transform="translate(-742,-414) scale(1,1)"><g><path fill="none" stroke="none"/><text fill="#000000" stroke="none" font-family="Arial" font-size="13px" font-style="normal" font-weight="normal" text-decoration="none" x="935.5" y="643.5">1..*</text></g></g><g transform="translate(-742,-414) scale(1,1)"><g><path fill="none" stroke="none"/><text fill="#000000" stroke="none" font-family="Arial" font-size="13px" font-style="normal" font-weight="normal" text-decoration="none" x="808.5" y="767.5">1..*</text></g></g></g></svg>