<svg version="1.1" xmlns="http://www.w3.org/2000/svg" xmlns:xlink="http://www.w3.org/1999/xlink" width="410.51171875" height="472"><defs/><g><g transform="translate(-718,-355) scale(1,1)"><rect fill="#C0C0C0" stroke="none" x="1002" y="548" width="99.6953125" height="87" opacity="0.2"/></g><g transform="translate(-718,-355) scale(1,1)"><rect fill="#d8ffd8" stroke="none" x="995" y="541" width="99.6953125" height="87"/></g><g transform="translate(-718,-355) scale(1,1)"><path fill="none" stroke="#000000" d="M 995 541 L 1094.6953125 541 L 1094.6953125 628 L 995 628 L 995 541 Z Z" stroke-miterlimit="10"/></g><g transform="translate(-718,-355) scale(1,1)"><path fill="none" stroke="#000000" d="M 995 566 L 1094.6953125 566" stroke-miterlimit="10"/></g><g transform="translate(-718,-355) scale(1,1)"><g><path fill="none" stroke="none"/><text fill="#000000" stroke="none" font-family="Arial" font-size="13px" font-style="normal" font-weight="bold" text-decoration="none" x="1028.94677734375" y="560.5">Gene</text></g></g><g transform="translate(-718,-355) scale(1,1)"><g><path fill="none" stroke="none"/><text fill="#000000" stroke="none" font-family="Arial" font-size="13px" font-style="normal" font-weight="normal" text-decoration="none" x="1000" y="583.5">+name: String</text></g></g><g transform="translate(-718,-355) scale(1,1)"><g><path fill="none" stroke="none"/><text fill="#000000" stroke="none" font-family="Arial" font-size="13px" font-style="normal" font-weight="normal" text-decoration="none" x="1000" y="598.5">+symbol: String</text></g></g><g transform="translate(-718,-355) scale(1,1)"><g><path fill="none" stroke="none"/><text fill="#000000" stroke="none" font-family="Arial" font-size="13px" font-style="normal" font-weight="normal" text-decoration="none" x="1000" y="613.5">+biotype: String</text></g></g><g transform="translate(-718,-355) scale(1,1)"><path fill="none" stroke="#000000" d="M 994 585 L 888 587" stroke-miterlimit="10"/></g><g transform="translate(-718,-355) scale(1,1)"><g><path fill="none" stroke="none"/><text fill="#000000" stroke="none" font-family="Arial" font-size="13px" font-style="normal" font-weight="normal" text-decoration="none" x="962.5" y="578.5">1..*</text></g></g><g transform="translate(-718,-355) scale(1,1)"><g><path fill="none" stroke="none"/><text fill="#000000" stroke="none" font-family="Arial" font-size="13px" font-style="normal" font-weight="normal" text-decoration="none" x="899.5" y="580.5">1..*</text></g></g><g transform="translate(-718,-355) scale(1,1)"><rect fill="#C0C0C0" stroke="none" x="735" y="559" width="158.95068359375" height="72" opacity="0.2"/></g><g transform="translate(-718,-355) scale(1,1)"><rect fill="#e2e2e2" stroke="none" x="728" y="552" width="158.95068359375" height="72"/></g><g transform="translate(-718,-355) scale(1,1)"><path fill="none" stroke="#000000" d="M 728 552 L 886.95068359375 552 L 886.95068359375 624 L 728 624 L 728 552 Z Z" stroke-miterlimit="10"/></g><g transform="translate(-718,-355) scale(1,1)"><path fill="none" stroke="#000000" d="M 728 577 L 886.95068359375 577" stroke-miterlimit="10"/></g><g transform="translate(-718,-355) scale(1,1)"><g><path fill="none" stroke="none"/><text fill="#000000" stroke="none" font-family="Arial" font-size="13px" font-style="normal" font-weight="bold" text-decoration="none" x="754.612060546875" y="571.5">Tissue Expression</text></g></g><g transform="translate(-718,-355) scale(1,1)"><g><path fill="none" stroke="none"/><text fill="#000000" stroke="none" font-family="Arial" font-size="13px" font-style="normal" font-weight="normal" text-decoration="none" x="733" y="594.5">+tissue_name: String</text></g></g><g transform="translate(-718,-355) scale(1,1)"><g><path fill="none" stroke="none"/><text fill="#000000" stroke="none" font-family="Arial" font-size="13px" font-style="normal" font-weight="normal" text-decoration="none" x="733" y="609.5">+expression_value: String</text></g></g><g transform="translate(-718,-355) scale(1,1)"><rect fill="#C0C0C0" stroke="none" x="978" y="372" width="146.97265625" height="102" opacity="0.2"/></g><g transform="translate(-718,-355) scale(1,1)"><rect fill="#e2e2e2" stroke="none" x="971" y="365" width="146.97265625" height="102"/></g><g transform="translate(-718,-355) scale(1,1)"><path fill="none" stroke="#000000" d="M 971 365 L 1117.97265625 365 L 1117.97265625 467 L 971 467 L 971 365 Z Z" stroke-miterlimit="10"/></g><g transform="translate(-718,-355) scale(1,1)"><path fill="none" stroke="#000000" d="M 971 390 L 1117.97265625 390" stroke-miterlimit="10"/></g><g transform="translate(-718,-355) scale(1,1)"><g><path fill="none" stroke="none"/><text fill="#000000" stroke="none" font-family="Arial" font-size="13px" font-style="normal" font-weight="bold" text-decoration="none" x="979.82275390625" y="384.5">Chromosome Element</text></g></g><g transform="translate(-718,-355) scale(1,1)"><g><path fill="none" stroke="none"/><text fill="#000000" stroke="none" font-family="Arial" font-size="13px" font-style="normal" font-weight="normal" text-decoration="none" x="976" y="407.5">+id: String</text></g></g><g transform="translate(-718,-355) scale(1,1)"><g><path fill="none" stroke="none"/><text fill="#000000" stroke="none" font-family="Arial" font-size="13px" font-style="normal" font-weight="normal" text-decoration="none" x="976" y="422.5">+start: Long</text></g></g><g transform="translate(-718,-355) scale(1,1)"><g><path fill="none" stroke="none"/><text fill="#000000" stroke="none" font-family="Arial" font-size="13px" font-style="normal" font-weight="normal" text-decoration="none" x="976" y="437.5">+end: Long</text></g></g><g transform="translate(-718,-355) scale(1,1)"><g><path fill="none" stroke="none"/><text fill="#000000" stroke="none" font-family="Arial" font-size="13px" font-style="normal" font-weight="normal" text-decoration="none" x="976" y="452.5">+strand: String</text></g></g><g transform="translate(-718,-355) scale(1,1)"><path fill="none" stroke="#000000" d="M 1044 540 L 1044 468" stroke-miterlimit="10"/></g><g transform="translate(-718,-355) scale(1,1)"><path fill="#FFFFFF" stroke="none" d="M 1052.419035512032 488.3253497152483 L 1044 468 L 1035.580964487968 488.3253497152483"/></g><g transform="translate(-718,-355) scale(1,1)"><path fill="none" stroke="#000000" d="M 1052.419035512032 488.3253497152483 L 1044 468 L 1035.580964487968 488.3253497152483 L 1052.419035512032 488.3253497152483" stroke-miterlimit="10"/></g><g transform="translate(-718,-355) scale(1,1)"><path fill="none" stroke="#000000" d="M 1044 629 L 1045 724" stroke-miterlimit="10"/></g><g transform="translate(-718,-355) scale(1,1)"><g><path fill="none" stroke="none"/><text fill="#000000" stroke="none" font-family="Arial" font-size="13px" font-style="normal" font-weight="normal" text-decoration="none" x="1056.5" y="681.5">+Produces</text></g></g><g transform="translate(-718,-355) scale(1,1)"><g><path fill="none" stroke="none"/><text fill="#000000" stroke="none" font-family="Arial" font-size="13px" font-style="normal" font-weight="normal" text-decoration="none" x="1027.5" y="656.5">1</text></g></g><g transform="translate(-718,-355) scale(1,1)"><g><path fill="none" stroke="none"/><text fill="#000000" stroke="none" font-family="Arial" font-size="13px" font-style="normal" font-weight="normal" text-decoration="none" x="1022.5" y="708.5">1..*</text></g></g><g transform="translate(-718,-355) scale(1,1)"><rect fill="#C0C0C0" stroke="none" x="994" y="732" width="118.08447265625" height="92" opacity="0.2"/></g><g transform="translate(-718,-355) scale(1,1)"><rect fill="#e2e2e2" stroke="none" x="987" y="725" width="118.08447265625" height="92"/></g><g transform="translate(-718,-355) scale(1,1)"><path fill="none" stroke="#000000" d="M 987 725 L 1105.08447265625 725 L 1105.08447265625 817 L 987 817 L 987 725 Z Z" stroke-miterlimit="10"/></g><g transform="translate(-718,-355) scale(1,1)"><path fill="none" stroke="#000000" d="M 987 750 L 1105.08447265625 750" stroke-miterlimit="10"/></g><g transform="translate(-718,-355) scale(1,1)"><g><path fill="none" stroke="none"/><text fill="#000000" stroke="none" font-family="Arial" font-size="13px" font-style="normal" font-weight="bold" text-decoration="none" x="995.35302734375" y="744.5">Mature Transcript</text></g></g><g transform="translate(-718,-355) scale(1,1)"><g><path fill="none" stroke="none"/><text fill="#000000" stroke="none" font-family="Arial" font-size="13px" font-style="normal" font-weight="normal" text-decoration="none" x="992" y="767.5">+id: String</text></g></g><g transform="translate(-718,-355) scale(1,1)"><g><path fill="none" stroke="none"/><text fill="#000000" stroke="none" font-family="Arial" font-size="13px" font-style="normal" font-weight="normal" text-decoration="none" x="992" y="782.5">+start: Long</text></g></g><g transform="translate(-718,-355) scale(1,1)"><g><path fill="none" stroke="none"/><text fill="#000000" stroke="none" font-family="Arial" font-size="13px" font-style="normal" font-weight="normal" text-decoration="none" x="992" y="797.5">+end: Long</text></g></g><g transform="translate(-718,-355) scale(1,1)"><g><path fill="none" stroke="none"/><text fill="#000000" stroke="none" font-family="Arial" font-size="13px" font-style="normal" font-weight="normal" text-decoration="none" x="992" y="812.5">+/sequence: String</text></g></g></g></svg>