<svg version="1.1" xmlns="http://www.w3.org/2000/svg" xmlns:xlink="http://www.w3.org/1999/xlink" width="687.9443359375" height="405"><defs/><g><g transform="translate(-110,-1062) scale(1,1)"><rect fill="#C0C0C0" stroke="none" x="367" y="1247" width="170.7890625" height="72" opacity="0.2"/></g><g transform="translate(-110,-1062) scale(1,1)"><rect fill="#ffd8d8" stroke="none" x="360" y="1240" width="170.7890625" height="72"/></g><g transform="translate(-110,-1062) scale(1,1)"><path fill="none" stroke="#000000" d="M 360 1240 L 530.7890625 1240 L 530.7890625 1312 L 360 1312 L 360 1240 Z Z" stroke-miterlimit="10"/></g><g transform="translate(-110,-1062) scale(1,1)"><path fill="none" stroke="#000000" d="M 360 1265 L 530.7890625 1265" stroke-miterlimit="10"/></g><g transform="translate(-110,-1062) scale(1,1)"><g><path fill="none" stroke="none"/><text fill="#000000" stroke="none" font-family="Arial" font-size="13px" font-style="normal" font-weight="bold" text-decoration="none" x="370.235107421875" y="1259.5">Malfunction Consequence</text></g></g><g transform="translate(-110,-1062) scale(1,1)"><g><path fill="none" stroke="none"/><text fill="#000000" stroke="none" font-family="Arial" font-size="13px" font-style="normal" font-weight="normal" text-decoration="none" x="365" y="1282.5">+name: String</text></g></g><g transform="translate(-110,-1062) scale(1,1)"><g><path fill="none" stroke="none"/><text fill="#000000" stroke="none" font-family="Arial" font-size="13px" font-style="normal" font-weight="normal" text-decoration="none" x="365" y="1297.5">+description: String</text></g></g><g transform="translate(-110,-1062) scale(1,1)"><rect fill="#C0C0C0" stroke="none" x="135" y="1079" width="170.13525390625" height="102" opacity="0.2"/></g><g transform="translate(-110,-1062) scale(1,1)"><rect fill="#e2e2e2" stroke="none" x="128" y="1072" width="170.13525390625" height="102"/></g><g transform="translate(-110,-1062) scale(1,1)"><path fill="none" stroke="#000000" d="M 128 1072 L 298.13525390625 1072 L 298.13525390625 1174 L 128 1174 L 128 1072 Z Z" stroke-miterlimit="10"/></g><g transform="translate(-110,-1062) scale(1,1)"><path fill="none" stroke="#000000" d="M 128 1097 L 298.13525390625 1097" stroke-miterlimit="10"/></g><g transform="translate(-110,-1062) scale(1,1)"><g><path fill="none" stroke="none"/><text fill="#000000" stroke="none" font-family="Arial" font-size="13px" font-style="normal" font-weight="bold" text-decoration="none" x="138.2890625" y="1091.5">Observable Characteristic</text></g></g><g transform="translate(-110,-1062) scale(1,1)"><g><path fill="none" stroke="none"/><text fill="#000000" stroke="none" font-family="Arial" font-size="13px" font-style="normal" font-weight="normal" text-decoration="none" x="133" y="1114.5">+id: String</text></g></g><g transform="translate(-110,-1062) scale(1,1)"><g><path fill="none" stroke="none"/><text fill="#000000" stroke="none" font-family="Arial" font-size="13px" font-style="normal" font-weight="normal" text-decoration="none" x="133" y="1129.5">+name: String</text></g></g><g transform="translate(-110,-1062) scale(1,1)"><g><path fill="none" stroke="none"/><text fill="#000000" stroke="none" font-family="Arial" font-size="13px" font-style="normal" font-weight="normal" text-decoration="none" x="133" y="1144.5">+description: String</text></g></g><g transform="translate(-110,-1062) scale(1,1)"><rect fill="#C0C0C0" stroke="none" x="623" y="1087" width="171.9443359375" height="147" opacity="0.2"/></g><g transform="translate(-110,-1062) scale(1,1)"><rect fill="#e2e2e2" stroke="none" x="616" y="1080" width="171.9443359375" height="147"/></g><g transform="translate(-110,-1062) scale(1,1)"><path fill="none" stroke="#000000" d="M 616 1080 L 787.9443359375 1080 L 787.9443359375 1227 L 616 1227 L 616 1080 Z Z" stroke-miterlimit="10"/></g><g transform="translate(-110,-1062) scale(1,1)"><path fill="none" stroke="#000000" d="M 616 1105 L 787.9443359375 1105" stroke-miterlimit="10"/></g><g transform="translate(-110,-1062) scale(1,1)"><g><path fill="none" stroke="none"/><text fill="#000000" stroke="none" font-family="Arial" font-size="13px" font-style="normal" font-weight="bold" text-decoration="none" x="681.859619140625" y="1099.5">Variant</text></g></g><g transform="translate(-110,-1062) scale(1,1)"><g><path fill="none" stroke="none"/><text fill="#000000" stroke="none" font-family="Arial" font-size="13px" font-style="normal" font-weight="normal" text-decoration="none" x="621" y="1122.5">+id: String</text></g></g><g transform="translate(-110,-1062) scale(1,1)"><g><path fill="none" stroke="none"/><text fill="#000000" stroke="none" font-family="Arial" font-size="13px" font-style="normal" font-weight="normal" text-decoration="none" x="621" y="1137.5">+name: String</text></g></g><g transform="translate(-110,-1062) scale(1,1)"><g><path fill="none" stroke="none"/><text fill="#000000" stroke="none" font-family="Arial" font-size="13px" font-style="normal" font-weight="normal" text-decoration="none" x="621" y="1152.5">+reference_allele: String</text></g></g><g transform="translate(-110,-1062) scale(1,1)"><g><path fill="none" stroke="none"/><text fill="#000000" stroke="none" font-family="Arial" font-size="13px" font-style="normal" font-weight="normal" text-decoration="none" x="621" y="1167.5">+alternative_allele: String</text></g></g><g transform="translate(-110,-1062) scale(1,1)"><g><path fill="none" stroke="none"/><text fill="#000000" stroke="none" font-family="Arial" font-size="13px" font-style="normal" font-weight="normal" text-decoration="none" x="621" y="1182.5">+start: Long</text></g></g><g transform="translate(-110,-1062) scale(1,1)"><g><path fill="none" stroke="none"/><text fill="#000000" stroke="none" font-family="Arial" font-size="13px" font-style="normal" font-weight="normal" text-decoration="none" x="621" y="1197.5">+end: Long</text></g></g><g transform="translate(-110,-1062) scale(1,1)"><g><path fill="none" stroke="none"/><text fill="#000000" stroke="none" font-family="Arial" font-size="13px" font-style="normal" font-weight="normal" text-decoration="none" x="621" y="1212.5">+clinical_significance: String</text></g></g><g transform="translate(-110,-1062) scale(1,1)"><path fill="none" stroke="#000000" d="M 389 1239 L 292 1175" stroke-miterlimit="10"/></g><g transform="translate(-110,-1062) scale(1,1)"><g><path fill="none" stroke="none"/><text fill="#000000" stroke="none" font-family="Arial" font-size="13px" font-style="normal" font-weight="normal" text-decoration="none" x="374.220458984375" y="1222.5">*</text></g></g><g transform="translate(-110,-1062) scale(1,1)"><g><path fill="none" stroke="none"/><text fill="#000000" stroke="none" font-family="Arial" font-size="13px" font-style="normal" font-weight="normal" text-decoration="none" x="313.220458984375" y="1182.5">*</text></g></g><g transform="translate(-110,-1062) scale(1,1)"><rect fill="#C0C0C0" stroke="none" x="127" y="1343" width="158.95068359375" height="72" opacity="0.2"/></g><g transform="translate(-110,-1062) scale(1,1)"><rect fill="#e2e2e2" stroke="none" x="120" y="1336" width="158.95068359375" height="72"/></g><g transform="translate(-110,-1062) scale(1,1)"><path fill="none" stroke="#000000" d="M 120 1336 L 278.95068359375 1336 L 278.95068359375 1408 L 120 1408 L 120 1336 Z Z" stroke-miterlimit="10"/></g><g transform="translate(-110,-1062) scale(1,1)"><path fill="none" stroke="#000000" d="M 120 1361 L 278.95068359375 1361" stroke-miterlimit="10"/></g><g transform="translate(-110,-1062) scale(1,1)"><g><path fill="none" stroke="none"/><text fill="#000000" stroke="none" font-family="Arial" font-size="13px" font-style="normal" font-weight="bold" text-decoration="none" x="146.612060546875" y="1355.5">Tissue Expression</text></g></g><g transform="translate(-110,-1062) scale(1,1)"><g><path fill="none" stroke="none"/><text fill="#000000" stroke="none" font-family="Arial" font-size="13px" font-style="normal" font-weight="normal" text-decoration="none" x="125" y="1378.5">+tissue_name: String</text></g></g><g transform="translate(-110,-1062) scale(1,1)"><g><path fill="none" stroke="none"/><text fill="#000000" stroke="none" font-family="Arial" font-size="13px" font-style="normal" font-weight="normal" text-decoration="none" x="125" y="1393.5">+expression_value: String</text></g></g><g transform="translate(-110,-1062) scale(1,1)"><path fill="none" stroke="#000000" d="M 359 1310 L 280 1340" stroke-miterlimit="10"/></g><g transform="translate(-110,-1062) scale(1,1)"><g><path fill="none" stroke="none"/><text fill="#000000" stroke="none" font-family="Arial" font-size="13px" font-style="normal" font-weight="normal" text-decoration="none" x="331.220458984375" y="1312.5">*</text></g></g><g transform="translate(-110,-1062) scale(1,1)"><g><path fill="none" stroke="none"/><text fill="#000000" stroke="none" font-family="Arial" font-size="13px" font-style="normal" font-weight="normal" text-decoration="none" x="292.220458984375" y="1326.5">*</text></g></g><g transform="translate(-110,-1062) scale(1,1)"><rect fill="#C0C0C0" stroke="none" x="615" y="1335" width="144" height="87" opacity="0.2"/></g><g transform="translate(-110,-1062) scale(1,1)"><rect fill="#e2e2e2" stroke="none" x="608" y="1328" width="144" height="87"/></g><g transform="translate(-110,-1062) scale(1,1)"><path fill="none" stroke="#000000" d="M 608 1328 L 752 1328 L 752 1415 L 608 1415 L 608 1328 Z Z" stroke-miterlimit="10"/></g><g transform="translate(-110,-1062) scale(1,1)"><path fill="none" stroke="#000000" d="M 608 1353 L 752 1353" stroke-miterlimit="10"/></g><g transform="translate(-110,-1062) scale(1,1)"><g><path fill="none" stroke="none"/><text fill="#000000" stroke="none" font-family="Arial" font-size="13px" font-style="normal" font-weight="bold" text-decoration="none" x="622.5537109375" y="1347.5">Cellular Component</text></g></g><g transform="translate(-110,-1062) scale(1,1)"><g><path fill="none" stroke="none"/><text fill="#000000" stroke="none" font-family="Arial" font-size="13px" font-style="normal" font-weight="normal" text-decoration="none" x="613" y="1370.5">+id: String</text></g></g><g transform="translate(-110,-1062) scale(1,1)"><g><path fill="none" stroke="none"/><text fill="#000000" stroke="none" font-family="Arial" font-size="13px" font-style="normal" font-weight="normal" text-decoration="none" x="613" y="1385.5">+name: String</text></g></g><g transform="translate(-110,-1062) scale(1,1)"><g><path fill="none" stroke="none"/><text fill="#000000" stroke="none" font-family="Arial" font-size="13px" font-style="normal" font-weight="normal" text-decoration="none" x="613" y="1400.5">+description: String</text></g></g><g transform="translate(-110,-1062) scale(1,1)"><path fill="none" stroke="#000000" d="M 532 1311 L 607 1341" stroke-miterlimit="10"/></g><g transform="translate(-110,-1062) scale(1,1)"><g><path fill="none" stroke="none"/><text fill="#000000" stroke="none" font-family="Arial" font-size="13px" font-style="normal" font-weight="normal" text-decoration="none" x="544.220458984375" y="1336.5">*</text></g></g><g transform="translate(-110,-1062) scale(1,1)"><g><path fill="none" stroke="none"/><text fill="#000000" stroke="none" font-family="Arial" font-size="13px" font-style="normal" font-weight="normal" text-decoration="none" x="571.5" y="1350.5">0..1</text></g></g><g transform="translate(-110,-1062) scale(1,1)"><rect fill="#C0C0C0" stroke="none" x="415" y="1407" width="82.34716796875" height="57" opacity="0.2"/></g><g transform="translate(-110,-1062) scale(1,1)"><rect fill="#e2e2e2" stroke="none" x="408" y="1400" width="82.34716796875" height="57"/></g><g transform="translate(-110,-1062) scale(1,1)"><path fill="none" stroke="#000000" d="M 408 1400 L 490.34716796875 1400 L 490.34716796875 1457 L 408 1457 L 408 1400 Z Z" stroke-miterlimit="10"/></g><g transform="translate(-110,-1062) scale(1,1)"><path fill="none" stroke="#000000" d="M 408 1425 L 490.34716796875 1425" stroke-miterlimit="10"/></g><g transform="translate(-110,-1062) scale(1,1)"><g><path fill="none" stroke="none"/><text fill="#000000" stroke="none" font-family="Arial" font-size="13px" font-style="normal" font-weight="bold" text-decoration="none" x="424.2431640625" y="1419.5">Pathway</text></g></g><g transform="translate(-110,-1062) scale(1,1)"><g><path fill="none" stroke="none"/><text fill="#000000" stroke="none" font-family="Arial" font-size="13px" font-style="normal" font-weight="normal" text-decoration="none" x="413" y="1442.5">+type: String</text></g></g><g transform="translate(-110,-1062) scale(1,1)"><path fill="none" stroke="#000000" d="M 448 1399 L 446 1313" stroke-miterlimit="10"/></g><g transform="translate(-110,-1062) scale(1,1)"><g><path fill="none" stroke="none"/><text fill="#000000" stroke="none" font-family="Arial" font-size="13px" font-style="normal" font-weight="normal" text-decoration="none" x="448.5" y="1383.5">0..1</text></g></g><g transform="translate(-110,-1062) scale(1,1)"><g><path fill="none" stroke="none"/><text fill="#000000" stroke="none" font-family="Arial" font-size="13px" font-style="normal" font-weight="normal" text-decoration="none" x="455.220458984375" y="1340.5">*</text></g></g><g transform="translate(-110,-1062) scale(1,1)"><rect fill="#C0C0C0" stroke="none" x="359" y="1103" width="36" height="15" opacity="0.2"/></g><g transform="translate(-110,-1062) scale(1,1)"><rect fill="#C0C0C0" stroke="none" x="359" y="1117" width="90" height="52" opacity="0.2"/></g><g transform="translate(-110,-1062) scale(1,1)"><rect fill="#ffffff" stroke="none" x="352" y="1111" width="90" height="51"/></g><g transform="translate(-110,-1062) scale(1,1)"><path fill="none" stroke="#000000" d="M 352 1111 L 442 1111 L 442 1162 L 352 1162 L 352 1111 Z Z" stroke-miterlimit="10"/></g><g transform="translate(-110,-1062) scale(1,1)"><rect fill="#ffffff" stroke="none" x="352" y="1096" width="36" height="15"/></g><g transform="translate(-110,-1062) scale(1,1)"><path fill="none" stroke="#000000" d="M 352 1096 L 388 1096 L 388 1111 L 352 1111 L 352 1096 Z Z" stroke-miterlimit="10"/></g><g transform="translate(-110,-1062) scale(1,1)"><rect fill="#ffffff" stroke="none" x="352" y="1110" width="90" height="52"/></g><g transform="translate(-110,-1062) scale(1,1)"><path fill="none" stroke="#000000" d="M 352 1110 L 442 1110 L 442 1162 L 352 1162 L 352 1110 Z Z" stroke-miterlimit="10"/></g><g transform="translate(-110,-1062) scale(1,1)"><g><path fill="none" stroke="none"/><text fill="#000000" stroke="none" font-family="Arial" font-size="13px" font-style="normal" font-weight="bold" text-decoration="none" x="361.227783203125" y="1130.5">Bibliography</text></g></g><g transform="translate(-110,-1062) scale(1,1)"><rect fill="#C0C0C0" stroke="none" x="495" y="1103" width="33.9443359375" height="15" opacity="0.2"/></g><g transform="translate(-110,-1062) scale(1,1)"><rect fill="#C0C0C0" stroke="none" x="495" y="1117" width="84.86083984375" height="50" opacity="0.2"/></g><g transform="translate(-110,-1062) scale(1,1)"><rect fill="#ffffff" stroke="none" x="488" y="1111" width="84.86083984375" height="49"/></g><g transform="translate(-110,-1062) scale(1,1)"><path fill="none" stroke="#000000" d="M 488 1111 L 572.86083984375 1111 L 572.86083984375 1160 L 488 1160 L 488 1111 Z Z" stroke-miterlimit="10"/></g><g transform="translate(-110,-1062) scale(1,1)"><rect fill="#ffffff" stroke="none" x="488" y="1096" width="33.9443359375" height="15"/></g><g transform="translate(-110,-1062) scale(1,1)"><path fill="none" stroke="#000000" d="M 488 1096 L 521.9443359375 1096 L 521.9443359375 1111 L 488 1111 L 488 1096 Z Z" stroke-miterlimit="10"/></g><g transform="translate(-110,-1062) scale(1,1)"><rect fill="#ffffff" stroke="none" x="488" y="1110" width="84.86083984375" height="50"/></g><g transform="translate(-110,-1062) scale(1,1)"><path fill="none" stroke="#000000" d="M 488 1110 L 572.86083984375 1110 L 572.86083984375 1160 L 488 1160 L 488 1110 Z Z" stroke-miterlimit="10"/></g><g transform="translate(-110,-1062) scale(1,1)"><g><path fill="none" stroke="none"/><text fill="#000000" stroke="none" font-family="Arial" font-size="13px" font-style="normal" font-weight="bold" text-decoration="none" x="494.299560546875" y="1130.5">Data Source</text></g></g><g transform="translate(-110,-1062) scale(1,1)"><path fill="none" stroke="#000000" d="M 466 1239 L 511 1161" stroke-miterlimit="10" stroke-dasharray="3"/></g><g transform="translate(-110,-1062) scale(1,1)"><path fill="none" stroke="#000000" d="M 509.56770679060793 1171.906353018417 L 511 1161 L 502.2752595816545 1167.6991719363284" stroke-miterlimit="10"/></g><g transform="translate(-110,-1062) scale(1,1)"><path fill="none" stroke="#000000" d="M 522 1239 L 615 1194" stroke-miterlimit="10"/></g><g transform="translate(-110,-1062) scale(1,1)"><g><path fill="none" stroke="none"/><text fill="#000000" stroke="none" font-family="Arial" font-size="13px" font-style="normal" font-weight="normal" text-decoration="none" x="543.5" y="1246.5">*</text></g></g><g transform="translate(-110,-1062) scale(1,1)"><g><path fill="none" stroke="none"/><text fill="#000000" stroke="none" font-family="Arial" font-size="13px" font-style="normal" font-weight="normal" text-decoration="none" x="597.5" y="1220.5">*</text></g></g><g transform="translate(-110,-1062) scale(1,1)"><path fill="none" stroke="#000000" d="M 433 1239 L 408 1163" stroke-miterlimit="10" stroke-dasharray="3"/></g><g transform="translate(-110,-1062) scale(1,1)"><path fill="none" stroke="#000000" d="M 415.17431728957706 1171.3384154027294 L 408 1163 L 407.17685833022347 1173.969158481464" stroke-miterlimit="10"/></g></g></svg>