<svg version="1.1" xmlns="http://www.w3.org/2000/svg" xmlns:xlink="http://www.w3.org/1999/xlink" width="580.642578125" height="293"><defs/><g><g transform="translate(-1014,-878) scale(1,1)"><rect fill="#C0C0C0" stroke="none" x="1223" y="895" width="114.1552734375" height="87" opacity="0.2"/></g><g transform="translate(-1014,-878) scale(1,1)"><rect fill="#e2e2e2" stroke="none" x="1216" y="888" width="114.1552734375" height="87"/></g><g transform="translate(-1014,-878) scale(1,1)"><path fill="none" stroke="#000000" d="M 1216 888 L 1330.1552734375 888 L 1330.1552734375 975 L 1216 975 L 1216 888 Z Z" stroke-miterlimit="10"/></g><g transform="translate(-1014,-878) scale(1,1)"><path fill="none" stroke="#000000" d="M 1216 913 L 1330.1552734375 913" stroke-miterlimit="10"/></g><g transform="translate(-1014,-878) scale(1,1)"><g><path fill="none" stroke="none"/><text fill="#000000" stroke="none" font-family="Arial" font-size="13px" font-style="normal" font-weight="bold" text-decoration="none" x="1252.482666015625" y="907.5">Protein</text></g></g><g transform="translate(-1014,-878) scale(1,1)"><g><path fill="none" stroke="none"/><text fill="#000000" stroke="none" font-family="Arial" font-size="13px" font-style="normal" font-weight="normal" text-decoration="none" x="1221" y="930.5">+id: String</text></g></g><g transform="translate(-1014,-878) scale(1,1)"><g><path fill="none" stroke="none"/><text fill="#000000" stroke="none" font-family="Arial" font-size="13px" font-style="normal" font-weight="normal" text-decoration="none" x="1221" y="945.5">+name: String</text></g></g><g transform="translate(-1014,-878) scale(1,1)"><g><path fill="none" stroke="none"/><text fill="#000000" stroke="none" font-family="Arial" font-size="13px" font-style="normal" font-weight="normal" text-decoration="none" x="1221" y="960.5">+sequence: String</text></g></g><g transform="translate(-1014,-878) scale(1,1)"><rect fill="#C0C0C0" stroke="none" x="1471" y="1031" width="120.642578125" height="87" opacity="0.2"/></g><g transform="translate(-1014,-878) scale(1,1)"><rect fill="#e2e2e2" stroke="none" x="1464" y="1024" width="120.642578125" height="87"/></g><g transform="translate(-1014,-878) scale(1,1)"><path fill="none" stroke="#000000" d="M 1464 1024 L 1584.642578125 1024 L 1584.642578125 1111 L 1464 1111 L 1464 1024 Z Z" stroke-miterlimit="10"/></g><g transform="translate(-1014,-878) scale(1,1)"><path fill="none" stroke="#000000" d="M 1464 1049 L 1584.642578125 1049" stroke-miterlimit="10"/></g><g transform="translate(-1014,-878) scale(1,1)"><g><path fill="none" stroke="none"/><text fill="#000000" stroke="none" font-family="Arial" font-size="13px" font-style="normal" font-weight="bold" text-decoration="none" x="1507.699951171875" y="1043.5">Event</text></g></g><g transform="translate(-1014,-878) scale(1,1)"><g><path fill="none" stroke="none"/><text fill="#000000" stroke="none" font-family="Arial" font-size="13px" font-style="normal" font-weight="normal" text-decoration="none" x="1469" y="1066.5">+id: String</text></g></g><g transform="translate(-1014,-878) scale(1,1)"><g><path fill="none" stroke="none"/><text fill="#000000" stroke="none" font-family="Arial" font-size="13px" font-style="normal" font-weight="normal" text-decoration="none" x="1469" y="1081.5">+name: String</text></g></g><g transform="translate(-1014,-878) scale(1,1)"><g><path fill="none" stroke="none"/><text fill="#000000" stroke="none" font-family="Arial" font-size="13px" font-style="normal" font-weight="normal" text-decoration="none" x="1469" y="1096.5">+description: String</text></g></g><g transform="translate(-1014,-878) scale(1,1)"><rect fill="#C0C0C0" stroke="none" x="1031" y="903" width="80" height="44" opacity="0.2"/></g><g transform="translate(-1014,-878) scale(1,1)"><rect fill="#e2e2e2" stroke="none" x="1024" y="896" width="80" height="44"/></g><g transform="translate(-1014,-878) scale(1,1)"><path fill="none" stroke="#000000" d="M 1024 896 L 1104 896 L 1104 940 L 1024 940 L 1024 896 Z Z" stroke-miterlimit="10"/></g><g transform="translate(-1014,-878) scale(1,1)"><path fill="none" stroke="#000000" d="M 1024 921 L 1104 921" stroke-miterlimit="10"/></g><g transform="translate(-1014,-878) scale(1,1)"><g><path fill="none" stroke="none"/><text fill="#000000" stroke="none" font-family="Arial" font-size="13px" font-style="normal" font-weight="bold" text-decoration="none" x="1043.411376953125" y="915.5">ncRNA</text></g></g><g transform="translate(-1014,-878) scale(1,1)"><rect fill="#C0C0C0" stroke="none" x="1087" y="1039" width="152" height="72" opacity="0.2"/></g><g transform="translate(-1014,-878) scale(1,1)"><rect fill="#d8ffd8" stroke="none" x="1080" y="1032" width="152" height="72"/></g><g transform="translate(-1014,-878) scale(1,1)"><path fill="none" stroke="#000000" d="M 1080 1032 L 1232 1032 L 1232 1104 L 1080 1104 L 1080 1032 Z Z" stroke-miterlimit="10"/></g><g transform="translate(-1014,-878) scale(1,1)"><path fill="none" stroke="#000000" d="M 1080 1057 L 1232 1057" stroke-miterlimit="10"/></g><g transform="translate(-1014,-878) scale(1,1)"><g><path fill="none" stroke="none"/><text fill="#000000" stroke="none" font-family="Arial" font-size="13px" font-style="normal" font-weight="bold" text-decoration="none" x="1092.412353515625" y="1051.5">Molecular Component</text></g></g><g transform="translate(-1014,-878) scale(1,1)"><g><path fill="none" stroke="none"/><text fill="#000000" stroke="none" font-family="Arial" font-size="13px" font-style="normal" font-weight="normal" text-decoration="none" x="1085" y="1074.5">+id: String</text></g></g><g transform="translate(-1014,-878) scale(1,1)"><g><path fill="none" stroke="none"/><text fill="#000000" stroke="none" font-family="Arial" font-size="13px" font-style="normal" font-weight="normal" text-decoration="none" x="1085" y="1089.5">+name: String</text></g></g><g transform="translate(-1014,-878) scale(1,1)"><path fill="none" stroke="#000000" d="M 1146 1104 L 1146 1136 L 1040 1136 L 1040 1060 L 1080 1060" stroke-miterlimit="10"/></g><g transform="translate(-1014,-878) scale(1,1)"><path fill="#FFFFFF" stroke="none" d="M 1069.837325142376 1064.2095177560159 L 1080 1060 L 1069.837325142376 1055.7904822439841 L 1058 1060"/></g><g transform="translate(-1014,-878) scale(1,1)"><path fill="none" stroke="#000000" d="M 1069.837325142376 1064.2095177560159 L 1080 1060 L 1069.837325142376 1055.7904822439841 L 1058 1060 L 1069.837325142376 1064.2095177560159" stroke-miterlimit="10"/></g><g transform="translate(-1014,-878) scale(1,1)"><g><path fill="none" stroke="none"/><text fill="#000000" stroke="none" font-family="Arial" font-size="13px" font-style="normal" font-weight="normal" text-decoration="none" x="1130.726806640625" y="1131.5">*</text></g></g><g transform="translate(-1014,-878) scale(1,1)"><path fill="none" stroke="#000000" d="M 1235 976 L 1188 1031" stroke-miterlimit="10"/></g><g transform="translate(-1014,-878) scale(1,1)"><path fill="#FFFFFF" stroke="none" d="M 1191.4019976001698 1020.53929197767 L 1188 1031 L 1197.8024131512625 1026.0087379940583 L 1202.2923512068073 1014.2749081622469"/></g><g transform="translate(-1014,-878) scale(1,1)"><path fill="none" stroke="#000000" d="M 1191.4019976001698 1020.53929197767 L 1188 1031 L 1197.8024131512625 1026.0087379940583 L 1202.2923512068073 1014.2749081622469 L 1191.4019976001698 1020.53929197767" stroke-miterlimit="10"/></g><g transform="translate(-1014,-878) scale(1,1)"><g><path fill="none" stroke="none"/><text fill="#000000" stroke="none" font-family="Arial" font-size="13px" font-style="normal" font-weight="normal" text-decoration="none" x="1208.726806640625" y="990.5">*</text></g></g><g transform="translate(-1014,-878) scale(1,1)"><path fill="none" stroke="#000000" d="M 1078 941 L 1133 1031" stroke-miterlimit="10"/></g><g transform="translate(-1014,-878) scale(1,1)"><path fill="#FFFFFF" stroke="none" d="M 1124.1087680697703 1024.523427236349 L 1133 1031 L 1131.292578129058 1020.1333210890066 L 1121.5280997920127 1012.2277996596569"/></g><g transform="translate(-1014,-878) scale(1,1)"><path fill="none" stroke="#000000" d="M 1124.1087680697703 1024.523427236349 L 1133 1031 L 1131.292578129058 1020.1333210890066 L 1121.5280997920127 1012.2277996596569 L 1124.1087680697703 1024.523427236349" stroke-miterlimit="10"/></g><g transform="translate(-1014,-878) scale(1,1)"><g><path fill="none" stroke="none"/><text fill="#000000" stroke="none" font-family="Arial" font-size="13px" font-style="normal" font-weight="normal" text-decoration="none" x="1075.726806640625" y="971.5">*</text></g></g><g transform="translate(-1014,-878) scale(1,1)"><path fill="none" stroke="#000000" d="M 1233 1068 L 1463 1067" stroke-miterlimit="10"/></g><g transform="translate(-1014,-878) scale(1,1)"><g><path fill="none" stroke="none"/><text fill="#000000" stroke="none" font-family="Arial" font-size="13px" font-style="normal" font-weight="normal" text-decoration="none" x="1251.726806640625" y="1086.5">*</text></g></g><g transform="translate(-1014,-878) scale(1,1)"><g><path fill="none" stroke="none"/><text fill="#000000" stroke="none" font-family="Arial" font-size="13px" font-style="normal" font-weight="normal" text-decoration="none" x="1438.726806640625" y="1085.5">*</text></g></g><g transform="translate(-1014,-878) scale(1,1)"><path fill="none" stroke="#000000" d="M 1349 1103 L 1348 1067" stroke-miterlimit="10" stroke-dasharray="3"/></g><g transform="translate(-1014,-878) scale(1,1)"><rect fill="#C0C0C0" stroke="none" x="1295" y="1111" width="124.603515625" height="57" opacity="0.2"/></g><g transform="translate(-1014,-878) scale(1,1)"><rect fill="#e2e2e2" stroke="none" x="1288" y="1104" width="124.603515625" height="57"/></g><g transform="translate(-1014,-878) scale(1,1)"><path fill="none" stroke="#000000" d="M 1288 1104 L 1412.603515625 1104 L 1412.603515625 1161 L 1288 1161 L 1288 1104 Z Z" stroke-miterlimit="10"/></g><g transform="translate(-1014,-878) scale(1,1)"><path fill="none" stroke="#000000" d="M 1288 1129 L 1412.603515625 1129" stroke-miterlimit="10"/></g><g transform="translate(-1014,-878) scale(1,1)"><g><path fill="none" stroke="none"/><text fill="#000000" stroke="none" font-family="Arial" font-size="13px" font-style="normal" font-weight="bold" text-decoration="none" x="1319.594970703125" y="1123.5">Takes Part</text></g></g><g transform="translate(-1014,-878) scale(1,1)"><g><path fill="none" stroke="none"/><text fill="#000000" stroke="none" font-family="Arial" font-size="13px" font-style="normal" font-weight="normal" text-decoration="none" x="1293" y="1146.5">+role: String</text></g></g></g></svg>