<svg version="1.1" xmlns="http://www.w3.org/2000/svg" xmlns:xlink="http://www.w3.org/1999/xlink" width="830.919921875" height="492"><defs/><g><g transform="translate(-150,-579) scale(1,1)"><rect fill="#C0C0C0" stroke="none" x="482" y="756" width="197.9951171875" height="102" opacity="0.2"/></g><g transform="translate(-150,-579) scale(1,1)"><rect fill="#ffd8d8" stroke="none" x="475" y="749" width="197.9951171875" height="102"/></g><g transform="translate(-150,-579) scale(1,1)"><path fill="none" stroke="#000000" d="M 475 749 L 672.9951171875 749 L 672.9951171875 851 L 475 851 L 475 749 Z Z" stroke-miterlimit="10"/></g><g transform="translate(-150,-579) scale(1,1)"><path fill="none" stroke="#000000" d="M 475 774 L 672.9951171875 774" stroke-miterlimit="10"/></g><g transform="translate(-150,-579) scale(1,1)"><g><path fill="none" stroke="none"/><text fill="#000000" stroke="none" font-family="Arial" font-size="13px" font-style="normal" font-weight="bold" text-decoration="none" x="527.513671875" y="768.5">Molecular Effect</text></g></g><g transform="translate(-150,-579) scale(1,1)"><g><path fill="none" stroke="none"/><text fill="#000000" stroke="none" font-family="Arial" font-size="13px" font-style="normal" font-weight="normal" text-decoration="none" x="480" y="791.5">+name: String</text></g></g><g transform="translate(-150,-579) scale(1,1)"><g><path fill="none" stroke="none"/><text fill="#000000" stroke="none" font-family="Arial" font-size="13px" font-style="normal" font-weight="normal" text-decoration="none" x="480" y="806.5">+impact: String</text></g></g><g transform="translate(-150,-579) scale(1,1)"><g><path fill="none" stroke="none"/><text fill="#000000" stroke="none" font-family="Arial" font-size="13px" font-style="normal" font-weight="normal" text-decoration="none" x="480" y="821.5">+functional_consequence: String</text></g></g><g transform="translate(-150,-579) scale(1,1)"><g><path fill="none" stroke="none"/><text fill="#000000" stroke="none" font-family="Arial" font-size="13px" font-style="normal" font-weight="normal" text-decoration="none" x="480" y="836.5">+description: String</text></g></g><g transform="translate(-150,-579) scale(1,1)"><rect fill="#C0C0C0" stroke="none" x="514" y="596" width="120.642578125" height="57" opacity="0.2"/></g><g transform="translate(-150,-579) scale(1,1)"><rect fill="#e2e2e2" stroke="none" x="507" y="589" width="120.642578125" height="57"/></g><g transform="translate(-150,-579) scale(1,1)"><path fill="none" stroke="#000000" d="M 507 589 L 627.642578125 589 L 627.642578125 646 L 507 646 L 507 589 Z Z" stroke-miterlimit="10"/></g><g transform="translate(-150,-579) scale(1,1)"><path fill="none" stroke="#000000" d="M 507 614 L 627.642578125 614" stroke-miterlimit="10"/></g><g transform="translate(-150,-579) scale(1,1)"><g><path fill="none" stroke="none"/><text fill="#000000" stroke="none" font-family="Arial" font-size="13px" font-style="normal" font-weight="bold" text-decoration="none" x="521.799072265625" y="608.5">Mutant Element</text></g></g><g transform="translate(-150,-579) scale(1,1)"><g><path fill="none" stroke="none"/><text fill="#000000" stroke="none" font-family="Arial" font-size="13px" font-style="normal" font-weight="normal" text-decoration="none" x="512" y="631.5">+description: String</text></g></g><g transform="translate(-150,-579) scale(1,1)"><path fill="none" stroke="#000000" d="M 571 748 L 568 647" stroke-miterlimit="10"/></g><g transform="translate(-150,-579) scale(1,1)"><g><path fill="none" stroke="none"/><text fill="#000000" stroke="none" font-family="Arial" font-size="13px" font-style="normal" font-weight="normal" text-decoration="none" x="501.5" y="703.5">+Produces</text></g></g><g transform="translate(-150,-579) scale(1,1)"><g><path fill="none" stroke="none"/><text fill="#000000" stroke="none" font-family="Arial" font-size="13px" font-style="normal" font-weight="normal" text-decoration="none" x="578.5" y="731.5">1</text></g></g><g transform="translate(-150,-579) scale(1,1)"><g><path fill="none" stroke="none"/><text fill="#000000" stroke="none" font-family="Arial" font-size="13px" font-style="normal" font-weight="normal" text-decoration="none" x="570.5" y="674.5">0..1</text></g></g><g transform="translate(-150,-579) scale(1,1)"><rect fill="#C0C0C0" stroke="none" x="167" y="823" width="171.9443359375" height="147" opacity="0.2"/></g><g transform="translate(-150,-579) scale(1,1)"><rect fill="#e2e2e2" stroke="none" x="160" y="816" width="171.9443359375" height="147"/></g><g transform="translate(-150,-579) scale(1,1)"><path fill="none" stroke="#000000" d="M 160 816 L 331.9443359375 816 L 331.9443359375 963 L 160 963 L 160 816 Z Z" stroke-miterlimit="10"/></g><g transform="translate(-150,-579) scale(1,1)"><path fill="none" stroke="#000000" d="M 160 841 L 331.9443359375 841" stroke-miterlimit="10"/></g><g transform="translate(-150,-579) scale(1,1)"><g><path fill="none" stroke="none"/><text fill="#000000" stroke="none" font-family="Arial" font-size="13px" font-style="normal" font-weight="bold" text-decoration="none" x="225.859619140625" y="835.5">Variant</text></g></g><g transform="translate(-150,-579) scale(1,1)"><g><path fill="none" stroke="none"/><text fill="#000000" stroke="none" font-family="Arial" font-size="13px" font-style="normal" font-weight="normal" text-decoration="none" x="165" y="858.5">+id: String</text></g></g><g transform="translate(-150,-579) scale(1,1)"><g><path fill="none" stroke="none"/><text fill="#000000" stroke="none" font-family="Arial" font-size="13px" font-style="normal" font-weight="normal" text-decoration="none" x="165" y="873.5">+name: String</text></g></g><g transform="translate(-150,-579) scale(1,1)"><g><path fill="none" stroke="none"/><text fill="#000000" stroke="none" font-family="Arial" font-size="13px" font-style="normal" font-weight="normal" text-decoration="none" x="165" y="888.5">+reference_allele: String</text></g></g><g transform="translate(-150,-579) scale(1,1)"><g><path fill="none" stroke="none"/><text fill="#000000" stroke="none" font-family="Arial" font-size="13px" font-style="normal" font-weight="normal" text-decoration="none" x="165" y="903.5">+alternative_allele: String</text></g></g><g transform="translate(-150,-579) scale(1,1)"><g><path fill="none" stroke="none"/><text fill="#000000" stroke="none" font-family="Arial" font-size="13px" font-style="normal" font-weight="normal" text-decoration="none" x="165" y="918.5">+start: Long</text></g></g><g transform="translate(-150,-579) scale(1,1)"><g><path fill="none" stroke="none"/><text fill="#000000" stroke="none" font-family="Arial" font-size="13px" font-style="normal" font-weight="normal" text-decoration="none" x="165" y="933.5">+end: Long</text></g></g><g transform="translate(-150,-579) scale(1,1)"><g><path fill="none" stroke="none"/><text fill="#000000" stroke="none" font-family="Arial" font-size="13px" font-style="normal" font-weight="normal" text-decoration="none" x="165" y="948.5">+clinical_significance: String</text></g></g><g transform="translate(-150,-579) scale(1,1)"><path fill="none" stroke="#000000" d="M 333 889 L 818 891" stroke-miterlimit="10"/></g><g transform="translate(-150,-579) scale(1,1)"><g><path fill="none" stroke="none"/><text fill="#000000" stroke="none" font-family="Arial" font-size="13px" font-style="normal" font-weight="normal" text-decoration="none" x="551.34423828125" y="918.5">+Affects</text></g></g><g transform="translate(-150,-579) scale(1,1)"><g><path fill="none" stroke="none"/><text fill="#000000" stroke="none" font-family="Arial" font-size="13px" font-style="normal" font-weight="normal" text-decoration="none" x="351.726806640625" y="907.5">*</text></g></g><g transform="translate(-150,-579) scale(1,1)"><g><path fill="none" stroke="none"/><text fill="#000000" stroke="none" font-family="Arial" font-size="13px" font-style="normal" font-weight="normal" text-decoration="none" x="786.5" y="909.5">1..*</text></g></g><g transform="translate(-150,-579) scale(1,1)"><path fill="none" stroke="#000000" d="M 574 852 L 575 890" stroke-miterlimit="10" stroke-dasharray="3"/></g><g transform="translate(-150,-579) scale(1,1)"><rect fill="#C0C0C0" stroke="none" x="826" y="852" width="118.08447265625" height="92" opacity="0.2"/></g><g transform="translate(-150,-579) scale(1,1)"><rect fill="#e2e2e2" stroke="none" x="819" y="845" width="118.08447265625" height="92"/></g><g transform="translate(-150,-579) scale(1,1)"><path fill="none" stroke="#000000" d="M 819 845 L 937.08447265625 845 L 937.08447265625 937 L 819 937 L 819 845 Z Z" stroke-miterlimit="10"/></g><g transform="translate(-150,-579) scale(1,1)"><path fill="none" stroke="#000000" d="M 819 870 L 937.08447265625 870" stroke-miterlimit="10"/></g><g transform="translate(-150,-579) scale(1,1)"><g><path fill="none" stroke="none"/><text fill="#000000" stroke="none" font-family="Arial" font-size="13px" font-style="normal" font-weight="bold" text-decoration="none" x="827.35302734375" y="864.5">Mature Transcript</text></g></g><g transform="translate(-150,-579) scale(1,1)"><g><path fill="none" stroke="none"/><text fill="#000000" stroke="none" font-family="Arial" font-size="13px" font-style="normal" font-weight="normal" text-decoration="none" x="824" y="887.5">+id: String</text></g></g><g transform="translate(-150,-579) scale(1,1)"><g><path fill="none" stroke="none"/><text fill="#000000" stroke="none" font-family="Arial" font-size="13px" font-style="normal" font-weight="normal" text-decoration="none" x="824" y="902.5">+start: Long</text></g></g><g transform="translate(-150,-579) scale(1,1)"><g><path fill="none" stroke="none"/><text fill="#000000" stroke="none" font-family="Arial" font-size="13px" font-style="normal" font-weight="normal" text-decoration="none" x="824" y="917.5">+end: Long</text></g></g><g transform="translate(-150,-579) scale(1,1)"><g><path fill="none" stroke="none"/><text fill="#000000" stroke="none" font-family="Arial" font-size="13px" font-style="normal" font-weight="normal" text-decoration="none" x="824" y="932.5">+/sequence: String</text></g></g><g transform="translate(-150,-579) scale(1,1)"><rect fill="#C0C0C0" stroke="none" x="319" y="687" width="35.37890625" height="15" opacity="0.2"/></g><g transform="translate(-150,-579) scale(1,1)"><rect fill="#C0C0C0" stroke="none" x="319" y="701" width="88.447265625" height="42" opacity="0.2"/></g><g transform="translate(-150,-579) scale(1,1)"><rect fill="#ffffff" stroke="none" x="312" y="695" width="88.447265625" height="41"/></g><g transform="translate(-150,-579) scale(1,1)"><path fill="none" stroke="#000000" d="M 312 695 L 400.447265625 695 L 400.447265625 736 L 312 736 L 312 695 Z Z" stroke-miterlimit="10"/></g><g transform="translate(-150,-579) scale(1,1)"><rect fill="#ffffff" stroke="none" x="312" y="680" width="35.37890625" height="15"/></g><g transform="translate(-150,-579) scale(1,1)"><path fill="none" stroke="#000000" d="M 312 680 L 347.37890625 680 L 347.37890625 695 L 312 695 L 312 680 Z Z" stroke-miterlimit="10"/></g><g transform="translate(-150,-579) scale(1,1)"><rect fill="#ffffff" stroke="none" x="312" y="694" width="88.447265625" height="42"/></g><g transform="translate(-150,-579) scale(1,1)"><path fill="none" stroke="#000000" d="M 312 694 L 400.447265625 694 L 400.447265625 736 L 312 736 L 312 694 Z Z" stroke-miterlimit="10"/></g><g transform="translate(-150,-579) scale(1,1)"><g><path fill="none" stroke="none"/><text fill="#000000" stroke="none" font-family="Arial" font-size="13px" font-style="normal" font-weight="bold" text-decoration="none" x="320.451416015625" y="714.5">Bibliography</text></g></g><g transform="translate(-150,-579) scale(1,1)"><path fill="none" stroke="#000000" d="M 474 758 L 401 727" stroke-miterlimit="10" stroke-dasharray="3"/></g><g transform="translate(-150,-579) scale(1,1)"><path fill="none" stroke="#000000" d="M 411.9995661611826 727.0976947581345 L 401 727 L 408.70878719671896 734.8469484486455" stroke-miterlimit="10"/></g><g transform="translate(-150,-579) scale(1,1)"><g><path fill="none" stroke="none"/><text fill="#000000" stroke="none" font-family="Arial" font-size="13px" font-style="normal" font-weight="normal" text-decoration="none" x="338.5" y="766.5">+Is supported by</text></g></g><g transform="translate(-150,-579) scale(1,1)"><rect fill="#C0C0C0" stroke="none" x="799" y="1024" width="80" height="44" opacity="0.2"/></g><g transform="translate(-150,-579) scale(1,1)"><rect fill="#e2e2e2" stroke="none" x="792" y="1017" width="80" height="44"/></g><g transform="translate(-150,-579) scale(1,1)"><path fill="none" stroke="#000000" d="M 792 1017 L 872 1017 L 872 1061 L 792 1061 L 792 1017 Z Z" stroke-miterlimit="10"/></g><g transform="translate(-150,-579) scale(1,1)"><path fill="none" stroke="#000000" d="M 792 1042 L 872 1042" stroke-miterlimit="10"/></g><g transform="translate(-150,-579) scale(1,1)"><g><path fill="none" stroke="none"/><text fill="#000000" stroke="none" font-family="Arial" font-size="13px" font-style="normal" font-weight="bold" text-decoration="none" x="811.411376953125" y="1036.5">ncRNA</text></g></g><g transform="translate(-150,-579) scale(1,1)"><rect fill="#C0C0C0" stroke="none" x="903" y="1024" width="74.919921875" height="44" opacity="0.2"/></g><g transform="translate(-150,-579) scale(1,1)"><rect fill="#e2e2e2" stroke="none" x="896" y="1017" width="74.919921875" height="44"/></g><g transform="translate(-150,-579) scale(1,1)"><path fill="none" stroke="#000000" d="M 896 1017 L 970.919921875 1017 L 970.919921875 1061 L 896 1061 L 896 1017 Z Z" stroke-miterlimit="10"/></g><g transform="translate(-150,-579) scale(1,1)"><path fill="none" stroke="#000000" d="M 896 1042 L 970.919921875 1042" stroke-miterlimit="10"/></g><g transform="translate(-150,-579) scale(1,1)"><g><path fill="none" stroke="none"/><text fill="#000000" stroke="none" font-family="Arial" font-size="13px" font-style="normal" font-weight="bold" text-decoration="none" x="914.32177734375" y="1036.5">mRNA</text></g></g><g transform="translate(-150,-579) scale(1,1)"><path fill="none" stroke="#000000" d="M 839 1016 L 863 938" stroke-miterlimit="10"/></g><g transform="translate(-150,-579) scale(1,1)"><path fill="#FFFFFF" stroke="none" d="M 865.0693396921565 959.9024618077161 L 863 938 L 848.9758648599869 954.9506233978178"/></g><g transform="translate(-150,-579) scale(1,1)"><path fill="none" stroke="#000000" d="M 865.0693396921565 959.9024618077161 L 863 938 L 848.9758648599869 954.9506233978178 L 865.0693396921565 959.9024618077161" stroke-miterlimit="10"/></g><g transform="translate(-150,-579) scale(1,1)"><path fill="none" stroke="#000000" d="M 924 1016 L 895 938" stroke-miterlimit="10"/></g><g transform="translate(-150,-579) scale(1,1)"><path fill="#FFFFFF" stroke="none" d="M 909.9744178206277 954.1172829885583 L 895 938 L 894.1918722897743 959.9851524807987"/></g><g transform="translate(-150,-579) scale(1,1)"><path fill="none" stroke="#000000" d="M 909.9744178206277 954.1172829885583 L 895 938 L 894.1918722897743 959.9851524807987 L 909.9744178206277 954.1172829885583" stroke-miterlimit="10"/></g></g></svg>