<svg version="1.1" xmlns="http://www.w3.org/2000/svg" xmlns:xlink="http://www.w3.org/1999/xlink" width="774.919921875" height="448"><defs/><g><g transform="translate(-342,-526) scale(1,1)"><rect fill="#C0C0C0" stroke="none" x="359" y="759" width="171.9443359375" height="147" opacity="0.2"/></g><g transform="translate(-342,-526) scale(1,1)"><rect fill="#e2e2e2" stroke="none" x="352" y="752" width="171.9443359375" height="147"/></g><g transform="translate(-342,-526) scale(1,1)"><path fill="none" stroke="#000000" d="M 352 752 L 523.9443359375 752 L 523.9443359375 899 L 352 899 L 352 752 Z Z" stroke-miterlimit="10"/></g><g transform="translate(-342,-526) scale(1,1)"><path fill="none" stroke="#000000" d="M 352 777 L 523.9443359375 777" stroke-miterlimit="10"/></g><g transform="translate(-342,-526) scale(1,1)"><g><path fill="none" stroke="none"/><text fill="#000000" stroke="none" font-family="Arial" font-size="13px" font-style="normal" font-weight="bold" text-decoration="none" x="417.859619140625" y="771.5">Variant</text></g></g><g transform="translate(-342,-526) scale(1,1)"><g><path fill="none" stroke="none"/><text fill="#000000" stroke="none" font-family="Arial" font-size="13px" font-style="normal" font-weight="normal" text-decoration="none" x="357" y="794.5">+id: String</text></g></g><g transform="translate(-342,-526) scale(1,1)"><g><path fill="none" stroke="none"/><text fill="#000000" stroke="none" font-family="Arial" font-size="13px" font-style="normal" font-weight="normal" text-decoration="none" x="357" y="809.5">+name: String</text></g></g><g transform="translate(-342,-526) scale(1,1)"><g><path fill="none" stroke="none"/><text fill="#000000" stroke="none" font-family="Arial" font-size="13px" font-style="normal" font-weight="normal" text-decoration="none" x="357" y="824.5">+reference_allele: String</text></g></g><g transform="translate(-342,-526) scale(1,1)"><g><path fill="none" stroke="none"/><text fill="#000000" stroke="none" font-family="Arial" font-size="13px" font-style="normal" font-weight="normal" text-decoration="none" x="357" y="839.5">+alternative_allele: String</text></g></g><g transform="translate(-342,-526) scale(1,1)"><g><path fill="none" stroke="none"/><text fill="#000000" stroke="none" font-family="Arial" font-size="13px" font-style="normal" font-weight="normal" text-decoration="none" x="357" y="854.5">+start: Long</text></g></g><g transform="translate(-342,-526) scale(1,1)"><g><path fill="none" stroke="none"/><text fill="#000000" stroke="none" font-family="Arial" font-size="13px" font-style="normal" font-weight="normal" text-decoration="none" x="357" y="869.5">+end: Long</text></g></g><g transform="translate(-342,-526) scale(1,1)"><g><path fill="none" stroke="none"/><text fill="#000000" stroke="none" font-family="Arial" font-size="13px" font-style="normal" font-weight="normal" text-decoration="none" x="357" y="884.5">+clinical_significance: String</text></g></g><g transform="translate(-342,-526) scale(1,1)"><rect fill="#C0C0C0" stroke="none" x="967" y="791" width="118.08447265625" height="87" opacity="0.2"/></g><g transform="translate(-342,-526) scale(1,1)"><rect fill="#e2e2e2" stroke="none" x="960" y="784" width="118.08447265625" height="87"/></g><g transform="translate(-342,-526) scale(1,1)"><path fill="none" stroke="#000000" d="M 960 784 L 1078.08447265625 784 L 1078.08447265625 871 L 960 871 L 960 784 Z Z" stroke-miterlimit="10"/></g><g transform="translate(-342,-526) scale(1,1)"><path fill="none" stroke="#000000" d="M 960 809 L 1078.08447265625 809" stroke-miterlimit="10"/></g><g transform="translate(-342,-526) scale(1,1)"><g><path fill="none" stroke="none"/><text fill="#000000" stroke="none" font-family="Arial" font-size="13px" font-style="normal" font-weight="bold" text-decoration="none" x="968.35302734375" y="803.5">Mature Transcript</text></g></g><g transform="translate(-342,-526) scale(1,1)"><g><path fill="none" stroke="none"/><text fill="#000000" stroke="none" font-family="Arial" font-size="13px" font-style="normal" font-weight="normal" text-decoration="none" x="965" y="826.5">+id: String</text></g></g><g transform="translate(-342,-526) scale(1,1)"><g><path fill="none" stroke="none"/><text fill="#000000" stroke="none" font-family="Arial" font-size="13px" font-style="normal" font-weight="normal" text-decoration="none" x="965" y="841.5">+start: Long</text></g></g><g transform="translate(-342,-526) scale(1,1)"><g><path fill="none" stroke="none"/><text fill="#000000" stroke="none" font-family="Arial" font-size="13px" font-style="normal" font-weight="normal" text-decoration="none" x="965" y="856.5">+end: Long</text></g></g><g transform="translate(-342,-526) scale(1,1)"><rect fill="#C0C0C0" stroke="none" x="1039" y="927" width="74.919921875" height="44" opacity="0.2"/></g><g transform="translate(-342,-526) scale(1,1)"><rect fill="#e2e2e2" stroke="none" x="1032" y="920" width="74.919921875" height="44"/></g><g transform="translate(-342,-526) scale(1,1)"><path fill="none" stroke="#000000" d="M 1032 920 L 1106.919921875 920 L 1106.919921875 964 L 1032 964 L 1032 920 Z Z" stroke-miterlimit="10"/></g><g transform="translate(-342,-526) scale(1,1)"><path fill="none" stroke="#000000" d="M 1032 945 L 1106.919921875 945" stroke-miterlimit="10"/></g><g transform="translate(-342,-526) scale(1,1)"><g><path fill="none" stroke="none"/><text fill="#000000" stroke="none" font-family="Arial" font-size="13px" font-style="normal" font-weight="bold" text-decoration="none" x="1050.32177734375" y="939.5">mRNA</text></g></g><g transform="translate(-342,-526) scale(1,1)"><rect fill="#C0C0C0" stroke="none" x="935" y="927" width="80" height="44" opacity="0.2"/></g><g transform="translate(-342,-526) scale(1,1)"><rect fill="#e2e2e2" stroke="none" x="928" y="920" width="80" height="44"/></g><g transform="translate(-342,-526) scale(1,1)"><path fill="none" stroke="#000000" d="M 928 920 L 1008 920 L 1008 964 L 928 964 L 928 920 Z Z" stroke-miterlimit="10"/></g><g transform="translate(-342,-526) scale(1,1)"><path fill="none" stroke="#000000" d="M 928 945 L 1008 945" stroke-miterlimit="10"/></g><g transform="translate(-342,-526) scale(1,1)"><g><path fill="none" stroke="none"/><text fill="#000000" stroke="none" font-family="Arial" font-size="13px" font-style="normal" font-weight="bold" text-decoration="none" x="947.411376953125" y="939.5">ncRNA</text></g></g><g transform="translate(-342,-526) scale(1,1)"><path fill="none" stroke="#000000" d="M 978 919 L 999 872" stroke-miterlimit="10"/></g><g transform="translate(-342,-526) scale(1,1)"><path fill="#FFFFFF" stroke="none" d="M 998.3951283305962 893.9916832066932 L 999 872 L 983.0218228156579 887.1227594659761"/></g><g transform="translate(-342,-526) scale(1,1)"><path fill="none" stroke="#000000" d="M 998.3951283305962 893.9916832066932 L 999 872 L 983.0218228156579 887.1227594659761 L 998.3951283305962 893.9916832066932" stroke-miterlimit="10"/></g><g transform="translate(-342,-526) scale(1,1)"><path fill="none" stroke="#000000" d="M 1059 919 L 1039 872" stroke-miterlimit="10"/></g><g transform="translate(-342,-526) scale(1,1)"><path fill="#FFFFFF" stroke="none" d="M 1054.7053101970062 887.4059479298033 L 1039 872 L 1039.2116810891705 893.9989815927122"/></g><g transform="translate(-342,-526) scale(1,1)"><path fill="none" stroke="#000000" d="M 1054.7053101970062 887.4059479298033 L 1039 872 L 1039.2116810891705 893.9989815927122 L 1054.7053101970062 887.4059479298033" stroke-miterlimit="10"/></g><g transform="translate(-342,-526) scale(1,1)"><rect fill="#C0C0C0" stroke="none" x="695" y="543" width="120.642578125" height="57" opacity="0.2"/></g><g transform="translate(-342,-526) scale(1,1)"><rect fill="#e2e2e2" stroke="none" x="688" y="536" width="120.642578125" height="57"/></g><g transform="translate(-342,-526) scale(1,1)"><path fill="none" stroke="#000000" d="M 688 536 L 808.642578125 536 L 808.642578125 593 L 688 593 L 688 536 Z Z" stroke-miterlimit="10"/></g><g transform="translate(-342,-526) scale(1,1)"><path fill="none" stroke="#000000" d="M 688 561 L 808.642578125 561" stroke-miterlimit="10"/></g><g transform="translate(-342,-526) scale(1,1)"><g><path fill="none" stroke="none"/><text fill="#000000" stroke="none" font-family="Arial" font-size="13px" font-style="normal" font-weight="bold" text-decoration="none" x="702.799072265625" y="555.5">Mutant Element</text></g></g><g transform="translate(-342,-526) scale(1,1)"><g><path fill="none" stroke="none"/><text fill="#000000" stroke="none" font-family="Arial" font-size="13px" font-style="normal" font-weight="normal" text-decoration="none" x="693" y="578.5">+description: String</text></g></g><g transform="translate(-342,-526) scale(1,1)"><rect fill="#C0C0C0" stroke="none" x="655" y="679" width="197.9951171875" height="102" opacity="0.2"/></g><g transform="translate(-342,-526) scale(1,1)"><rect fill="#ffd8d8" stroke="none" x="648" y="672" width="197.9951171875" height="102"/></g><g transform="translate(-342,-526) scale(1,1)"><path fill="none" stroke="#000000" d="M 648 672 L 845.9951171875 672 L 845.9951171875 774 L 648 774 L 648 672 Z Z" stroke-miterlimit="10"/></g><g transform="translate(-342,-526) scale(1,1)"><path fill="none" stroke="#000000" d="M 648 697 L 845.9951171875 697" stroke-miterlimit="10"/></g><g transform="translate(-342,-526) scale(1,1)"><g><path fill="none" stroke="none"/><text fill="#000000" stroke="none" font-family="Arial" font-size="13px" font-style="normal" font-weight="bold" text-decoration="none" x="700.513671875" y="691.5">Molecular Effect</text></g></g><g transform="translate(-342,-526) scale(1,1)"><g><path fill="none" stroke="none"/><text fill="#000000" stroke="none" font-family="Arial" font-size="13px" font-style="normal" font-weight="normal" text-decoration="none" x="653" y="714.5">+name: String</text></g></g><g transform="translate(-342,-526) scale(1,1)"><g><path fill="none" stroke="none"/><text fill="#000000" stroke="none" font-family="Arial" font-size="13px" font-style="normal" font-weight="normal" text-decoration="none" x="653" y="729.5">+impact: String</text></g></g><g transform="translate(-342,-526) scale(1,1)"><g><path fill="none" stroke="none"/><text fill="#000000" stroke="none" font-family="Arial" font-size="13px" font-style="normal" font-weight="normal" text-decoration="none" x="653" y="744.5">+functional_consequence: String</text></g></g><g transform="translate(-342,-526) scale(1,1)"><g><path fill="none" stroke="none"/><text fill="#000000" stroke="none" font-family="Arial" font-size="13px" font-style="normal" font-weight="normal" text-decoration="none" x="653" y="759.5">+description: String</text></g></g><g transform="translate(-342,-526) scale(1,1)"><path fill="none" stroke="#000000" d="M 525 825 L 959 827" stroke-miterlimit="10"/></g><g transform="translate(-342,-526) scale(1,1)"><g><path fill="none" stroke="none"/><text fill="#000000" stroke="none" font-family="Arial" font-size="13px" font-style="normal" font-weight="normal" text-decoration="none" x="767.34423828125" y="804.5">+Affects</text></g></g><g transform="translate(-342,-526) scale(1,1)"><g><path fill="none" stroke="none"/><text fill="#000000" stroke="none" font-family="Arial" font-size="13px" font-style="normal" font-weight="normal" text-decoration="none" x="543.726806640625" y="843.5">*</text></g></g><g transform="translate(-342,-526) scale(1,1)"><g><path fill="none" stroke="none"/><text fill="#000000" stroke="none" font-family="Arial" font-size="13px" font-style="normal" font-weight="normal" text-decoration="none" x="927.5" y="845.5">1..*</text></g></g><g transform="translate(-342,-526) scale(1,1)"><path fill="none" stroke="#000000" d="M 744 775 L 742 826" stroke-miterlimit="10" stroke-dasharray="3"/></g><g transform="translate(-342,-526) scale(1,1)"><rect fill="#C0C0C0" stroke="none" x="463" y="583" width="35.37890625" height="15" opacity="0.2"/></g><g transform="translate(-342,-526) scale(1,1)"><rect fill="#C0C0C0" stroke="none" x="463" y="597" width="88.447265625" height="42" opacity="0.2"/></g><g transform="translate(-342,-526) scale(1,1)"><rect fill="#ffffff" stroke="none" x="456" y="591" width="88.447265625" height="41"/></g><g transform="translate(-342,-526) scale(1,1)"><path fill="none" stroke="#000000" d="M 456 591 L 544.447265625 591 L 544.447265625 632 L 456 632 L 456 591 Z Z" stroke-miterlimit="10"/></g><g transform="translate(-342,-526) scale(1,1)"><rect fill="#ffffff" stroke="none" x="456" y="576" width="35.37890625" height="15"/></g><g transform="translate(-342,-526) scale(1,1)"><path fill="none" stroke="#000000" d="M 456 576 L 491.37890625 576 L 491.37890625 591 L 456 591 L 456 576 Z Z" stroke-miterlimit="10"/></g><g transform="translate(-342,-526) scale(1,1)"><rect fill="#ffffff" stroke="none" x="456" y="590" width="88.447265625" height="42"/></g><g transform="translate(-342,-526) scale(1,1)"><path fill="none" stroke="#000000" d="M 456 590 L 544.447265625 590 L 544.447265625 632 L 456 632 L 456 590 Z Z" stroke-miterlimit="10"/></g><g transform="translate(-342,-526) scale(1,1)"><g><path fill="none" stroke="none"/><text fill="#000000" stroke="none" font-family="Arial" font-size="13px" font-style="normal" font-weight="bold" text-decoration="none" x="464.451416015625" y="610.5">Bibliography</text></g></g><g transform="translate(-342,-526) scale(1,1)"><path fill="none" stroke="#000000" d="M 647 675 L 545 626" stroke-miterlimit="10" stroke-dasharray="3"/></g><g transform="translate(-342,-526) scale(1,1)"><path fill="none" stroke="#000000" d="M 555.9832821907088 626.6062279433175 L 545 626 L 552.337685427071 634.1950212064003" stroke-miterlimit="10"/></g><g transform="translate(-342,-526) scale(1,1)"><g><path fill="none" stroke="none"/><text fill="#000000" stroke="none" font-family="Arial" font-size="13px" font-style="normal" font-weight="normal" text-decoration="none" x="487.5" y="674.5">+Is supported by</text></g></g><g transform="translate(-342,-526) scale(1,1)"><path fill="none" stroke="#000000" d="M 747 671 L 748 594" stroke-miterlimit="10"/></g><g transform="translate(-342,-526) scale(1,1)"><g><path fill="none" stroke="none"/><text fill="#000000" stroke="none" font-family="Arial" font-size="13px" font-style="normal" font-weight="normal" text-decoration="none" x="679.5" y="637.5">+Produces</text></g></g><g transform="translate(-342,-526) scale(1,1)"><g><path fill="none" stroke="none"/><text fill="#000000" stroke="none" font-family="Arial" font-size="13px" font-style="normal" font-weight="normal" text-decoration="none" x="755.5" y="655.5">1</text></g></g><g transform="translate(-342,-526) scale(1,1)"><g><path fill="none" stroke="none"/><text fill="#000000" stroke="none" font-family="Arial" font-size="13px" font-style="normal" font-weight="normal" text-decoration="none" x="759.5" y="620.5">0..1</text></g></g></g></svg>