<svg version="1.1" xmlns="http://www.w3.org/2000/svg" xmlns:xlink="http://www.w3.org/1999/xlink" width="478.1552734375" height="227"><defs/><g><g transform="translate(-926,-774) scale(1,1)"><rect fill="#C0C0C0" stroke="none" x="967" y="791" width="118.08447265625" height="87" opacity="0.2"/></g><g transform="translate(-926,-774) scale(1,1)"><rect fill="#e2e2e2" stroke="none" x="960" y="784" width="118.08447265625" height="87"/></g><g transform="translate(-926,-774) scale(1,1)"><path fill="none" stroke="#000000" d="M 960 784 L 1078.08447265625 784 L 1078.08447265625 871 L 960 871 L 960 784 Z Z" stroke-miterlimit="10"/></g><g transform="translate(-926,-774) scale(1,1)"><path fill="none" stroke="#000000" d="M 960 809 L 1078.08447265625 809" stroke-miterlimit="10"/></g><g transform="translate(-926,-774) scale(1,1)"><g><path fill="none" stroke="none"/><text fill="#000000" stroke="none" font-family="Arial" font-size="13px" font-style="normal" font-weight="bold" text-decoration="none" x="968.35302734375" y="803.5">Mature Transcript</text></g></g><g transform="translate(-926,-774) scale(1,1)"><g><path fill="none" stroke="none"/><text fill="#000000" stroke="none" font-family="Arial" font-size="13px" font-style="normal" font-weight="normal" text-decoration="none" x="965" y="826.5">+id: String</text></g></g><g transform="translate(-926,-774) scale(1,1)"><g><path fill="none" stroke="none"/><text fill="#000000" stroke="none" font-family="Arial" font-size="13px" font-style="normal" font-weight="normal" text-decoration="none" x="965" y="841.5">+start: Long</text></g></g><g transform="translate(-926,-774) scale(1,1)"><g><path fill="none" stroke="none"/><text fill="#000000" stroke="none" font-family="Arial" font-size="13px" font-style="normal" font-weight="normal" text-decoration="none" x="965" y="856.5">+end: Long</text></g></g><g transform="translate(-926,-774) scale(1,1)"><rect fill="#C0C0C0" stroke="none" x="1287" y="911" width="114.1552734375" height="87" opacity="0.2"/></g><g transform="translate(-926,-774) scale(1,1)"><rect fill="#e2e2e2" stroke="none" x="1280" y="904" width="114.1552734375" height="87"/></g><g transform="translate(-926,-774) scale(1,1)"><path fill="none" stroke="#000000" d="M 1280 904 L 1394.1552734375 904 L 1394.1552734375 991 L 1280 991 L 1280 904 Z Z" stroke-miterlimit="10"/></g><g transform="translate(-926,-774) scale(1,1)"><path fill="none" stroke="#000000" d="M 1280 929 L 1394.1552734375 929" stroke-miterlimit="10"/></g><g transform="translate(-926,-774) scale(1,1)"><g><path fill="none" stroke="none"/><text fill="#000000" stroke="none" font-family="Arial" font-size="13px" font-style="normal" font-weight="bold" text-decoration="none" x="1316.482666015625" y="923.5">Protein</text></g></g><g transform="translate(-926,-774) scale(1,1)"><g><path fill="none" stroke="none"/><text fill="#000000" stroke="none" font-family="Arial" font-size="13px" font-style="normal" font-weight="normal" text-decoration="none" x="1285" y="946.5">+id: String</text></g></g><g transform="translate(-926,-774) scale(1,1)"><g><path fill="none" stroke="none"/><text fill="#000000" stroke="none" font-family="Arial" font-size="13px" font-style="normal" font-weight="normal" text-decoration="none" x="1285" y="961.5">+name: String</text></g></g><g transform="translate(-926,-774) scale(1,1)"><g><path fill="none" stroke="none"/><text fill="#000000" stroke="none" font-family="Arial" font-size="13px" font-style="normal" font-weight="normal" text-decoration="none" x="1285" y="976.5">+sequence: String</text></g></g><g transform="translate(-926,-774) scale(1,1)"><rect fill="#C0C0C0" stroke="none" x="1039" y="927" width="74.919921875" height="44" opacity="0.2"/></g><g transform="translate(-926,-774) scale(1,1)"><rect fill="#d8ffd8" stroke="none" x="1032" y="920" width="74.919921875" height="44"/></g><g transform="translate(-926,-774) scale(1,1)"><path fill="none" stroke="#000000" d="M 1032 920 L 1106.919921875 920 L 1106.919921875 964 L 1032 964 L 1032 920 Z Z" stroke-miterlimit="10"/></g><g transform="translate(-926,-774) scale(1,1)"><path fill="none" stroke="#000000" d="M 1032 945 L 1106.919921875 945" stroke-miterlimit="10"/></g><g transform="translate(-926,-774) scale(1,1)"><g><path fill="none" stroke="none"/><text fill="#000000" stroke="none" font-family="Arial" font-size="13px" font-style="normal" font-weight="bold" text-decoration="none" x="1050.32177734375" y="939.5">mRNA</text></g></g><g transform="translate(-926,-774) scale(1,1)"><rect fill="#C0C0C0" stroke="none" x="943" y="927" width="80" height="44" opacity="0.2"/></g><g transform="translate(-926,-774) scale(1,1)"><rect fill="#e2e2e2" stroke="none" x="936" y="920" width="80" height="44"/></g><g transform="translate(-926,-774) scale(1,1)"><path fill="none" stroke="#000000" d="M 936 920 L 1016 920 L 1016 964 L 936 964 L 936 920 Z Z" stroke-miterlimit="10"/></g><g transform="translate(-926,-774) scale(1,1)"><path fill="none" stroke="#000000" d="M 936 945 L 1016 945" stroke-miterlimit="10"/></g><g transform="translate(-926,-774) scale(1,1)"><g><path fill="none" stroke="none"/><text fill="#000000" stroke="none" font-family="Arial" font-size="13px" font-style="normal" font-weight="bold" text-decoration="none" x="955.411376953125" y="939.5">ncRNA</text></g></g><g transform="translate(-926,-774) scale(1,1)"><path fill="none" stroke="#000000" d="M 985 919 L 1002 872" stroke-miterlimit="10"/></g><g transform="translate(-926,-774) scale(1,1)"><path fill="#FFFFFF" stroke="none" d="M 1003.0036760288634 893.9770934026565 L 1002 872 L 987.1695543503351 888.2498579019122"/></g><g transform="translate(-926,-774) scale(1,1)"><path fill="none" stroke="#000000" d="M 1003.0036760288634 893.9770934026565 L 1002 872 L 987.1695543503351 888.2498579019122 L 1003.0036760288634 893.9770934026565" stroke-miterlimit="10"/></g><g transform="translate(-926,-774) scale(1,1)"><path fill="none" stroke="#000000" d="M 1059 919 L 1039 872" stroke-miterlimit="10"/></g><g transform="translate(-926,-774) scale(1,1)"><path fill="#FFFFFF" stroke="none" d="M 1054.7053101970062 887.4059479298033 L 1039 872 L 1039.2116810891705 893.9989815927122"/></g><g transform="translate(-926,-774) scale(1,1)"><path fill="none" stroke="#000000" d="M 1054.7053101970062 887.4059479298033 L 1039 872 L 1039.2116810891705 893.9989815927122 L 1054.7053101970062 887.4059479298033" stroke-miterlimit="10"/></g><g transform="translate(-926,-774) scale(1,1)"><path fill="none" stroke="#000000" d="M 1108 943 L 1279 946" stroke-miterlimit="10"/></g><g transform="translate(-926,-774) scale(1,1)"><g><path fill="none" stroke="none"/><text fill="#000000" stroke="none" font-family="Arial" font-size="13px" font-style="normal" font-weight="normal" text-decoration="none" x="1137.5" y="935.5">+Is transcribed into</text></g></g><g transform="translate(-926,-774) scale(1,1)"><g><path fill="none" stroke="none"/><text fill="#000000" stroke="none" font-family="Arial" font-size="13px" font-style="normal" font-weight="normal" text-decoration="none" x="1125.5" y="961.5">1</text></g></g><g transform="translate(-926,-774) scale(1,1)"><g><path fill="none" stroke="none"/><text fill="#000000" stroke="none" font-family="Arial" font-size="13px" font-style="normal" font-weight="normal" text-decoration="none" x="1253.5" y="964.5">1</text></g></g></g></svg>