<svg version="1.1" xmlns="http://www.w3.org/2000/svg" xmlns:xlink="http://www.w3.org/1999/xlink" width="486.1552734375" height="227"><defs/><g><g transform="translate(-829,-819) scale(1,1)"><rect fill="#C0C0C0" stroke="none" x="950" y="980" width="74.919921875" height="44" opacity="0.2"/></g><g transform="translate(-829,-819) scale(1,1)"><rect fill="#d8ffd8" stroke="none" x="943" y="973" width="74.919921875" height="44"/></g><g transform="translate(-829,-819) scale(1,1)"><path fill="none" stroke="#000000" d="M 943 973 L 1017.919921875 973 L 1017.919921875 1017 L 943 1017 L 943 973 Z Z" stroke-miterlimit="10"/></g><g transform="translate(-829,-819) scale(1,1)"><path fill="none" stroke="#000000" d="M 943 998 L 1017.919921875 998" stroke-miterlimit="10"/></g><g transform="translate(-829,-819) scale(1,1)"><g><path fill="none" stroke="none"/><text fill="#000000" stroke="none" font-family="Arial" font-size="13px" font-style="normal" font-weight="bold" text-decoration="none" x="961.32177734375" y="992.5">mRNA</text></g></g><g transform="translate(-829,-819) scale(1,1)"><rect fill="#C0C0C0" stroke="none" x="878" y="836" width="118.08447265625" height="92" opacity="0.2"/></g><g transform="translate(-829,-819) scale(1,1)"><rect fill="#e2e2e2" stroke="none" x="871" y="829" width="118.08447265625" height="92"/></g><g transform="translate(-829,-819) scale(1,1)"><path fill="none" stroke="#000000" d="M 871 829 L 989.08447265625 829 L 989.08447265625 921 L 871 921 L 871 829 Z Z" stroke-miterlimit="10"/></g><g transform="translate(-829,-819) scale(1,1)"><path fill="none" stroke="#000000" d="M 871 854 L 989.08447265625 854" stroke-miterlimit="10"/></g><g transform="translate(-829,-819) scale(1,1)"><g><path fill="none" stroke="none"/><text fill="#000000" stroke="none" font-family="Arial" font-size="13px" font-style="normal" font-weight="bold" text-decoration="none" x="879.35302734375" y="848.5">Mature Transcript</text></g></g><g transform="translate(-829,-819) scale(1,1)"><g><path fill="none" stroke="none"/><text fill="#000000" stroke="none" font-family="Arial" font-size="13px" font-style="normal" font-weight="normal" text-decoration="none" x="876" y="871.5">+id: String</text></g></g><g transform="translate(-829,-819) scale(1,1)"><g><path fill="none" stroke="none"/><text fill="#000000" stroke="none" font-family="Arial" font-size="13px" font-style="normal" font-weight="normal" text-decoration="none" x="876" y="886.5">+start: Long</text></g></g><g transform="translate(-829,-819) scale(1,1)"><g><path fill="none" stroke="none"/><text fill="#000000" stroke="none" font-family="Arial" font-size="13px" font-style="normal" font-weight="normal" text-decoration="none" x="876" y="901.5">+end: Long</text></g></g><g transform="translate(-829,-819) scale(1,1)"><g><path fill="none" stroke="none"/><text fill="#000000" stroke="none" font-family="Arial" font-size="13px" font-style="normal" font-weight="normal" text-decoration="none" x="876" y="916.5">+/sequence: String</text></g></g><g transform="translate(-829,-819) scale(1,1)"><path fill="none" stroke="#000000" d="M 970 972 L 950 922" stroke-miterlimit="10"/></g><g transform="translate(-829,-819) scale(1,1)"><path fill="#FFFFFF" stroke="none" d="M 965.3655236105367 937.7448621516367 L 950 922 L 949.7317671452229 943.9983647377621"/></g><g transform="translate(-829,-819) scale(1,1)"><path fill="none" stroke="#000000" d="M 965.3655236105367 937.7448621516367 L 950 922 L 949.7317671452229 943.9983647377621 L 965.3655236105367 937.7448621516367" stroke-miterlimit="10"/></g><g transform="translate(-829,-819) scale(1,1)"><rect fill="#C0C0C0" stroke="none" x="1198" y="956" width="114.1552734375" height="87" opacity="0.2"/></g><g transform="translate(-829,-819) scale(1,1)"><rect fill="#e2e2e2" stroke="none" x="1191" y="949" width="114.1552734375" height="87"/></g><g transform="translate(-829,-819) scale(1,1)"><path fill="none" stroke="#000000" d="M 1191 949 L 1305.1552734375 949 L 1305.1552734375 1036 L 1191 1036 L 1191 949 Z Z" stroke-miterlimit="10"/></g><g transform="translate(-829,-819) scale(1,1)"><path fill="none" stroke="#000000" d="M 1191 974 L 1305.1552734375 974" stroke-miterlimit="10"/></g><g transform="translate(-829,-819) scale(1,1)"><g><path fill="none" stroke="none"/><text fill="#000000" stroke="none" font-family="Arial" font-size="13px" font-style="normal" font-weight="bold" text-decoration="none" x="1227.482666015625" y="968.5">Protein</text></g></g><g transform="translate(-829,-819) scale(1,1)"><g><path fill="none" stroke="none"/><text fill="#000000" stroke="none" font-family="Arial" font-size="13px" font-style="normal" font-weight="normal" text-decoration="none" x="1196" y="991.5">+id: String</text></g></g><g transform="translate(-829,-819) scale(1,1)"><g><path fill="none" stroke="none"/><text fill="#000000" stroke="none" font-family="Arial" font-size="13px" font-style="normal" font-weight="normal" text-decoration="none" x="1196" y="1006.5">+name: String</text></g></g><g transform="translate(-829,-819) scale(1,1)"><g><path fill="none" stroke="none"/><text fill="#000000" stroke="none" font-family="Arial" font-size="13px" font-style="normal" font-weight="normal" text-decoration="none" x="1196" y="1021.5">+sequence: String</text></g></g><g transform="translate(-829,-819) scale(1,1)"><path fill="none" stroke="#000000" d="M 1019 995 L 1190 993" stroke-miterlimit="10"/></g><g transform="translate(-829,-819) scale(1,1)"><g><path fill="none" stroke="none"/><text fill="#000000" stroke="none" font-family="Arial" font-size="13px" font-style="normal" font-weight="normal" text-decoration="none" x="1047.5" y="985.5">+Is transcribed into</text></g></g><g transform="translate(-829,-819) scale(1,1)"><g><path fill="none" stroke="none"/><text fill="#000000" stroke="none" font-family="Arial" font-size="13px" font-style="normal" font-weight="normal" text-decoration="none" x="1036.5" y="1013.5">1</text></g></g><g transform="translate(-829,-819) scale(1,1)"><g><path fill="none" stroke="none"/><text fill="#000000" stroke="none" font-family="Arial" font-size="13px" font-style="normal" font-weight="normal" text-decoration="none" x="1164.5" y="1011.5">1</text></g></g><g transform="translate(-829,-819) scale(1,1)"><path fill="none" stroke="#000000" d="M 889 972 L 910 922" stroke-miterlimit="10"/></g><g transform="translate(-829,-819) scale(1,1)"><path fill="#FFFFFF" stroke="none" d="M 909.8915644229447 943.9997327648686 L 910 922 L 894.367164245812 937.4794846904728"/></g><g transform="translate(-829,-819) scale(1,1)"><path fill="none" stroke="#000000" d="M 909.8915644229447 943.9997327648686 L 910 922 L 894.367164245812 937.4794846904728 L 909.8915644229447 943.9997327648686" stroke-miterlimit="10"/></g><g transform="translate(-829,-819) scale(1,1)"><rect fill="#C0C0C0" stroke="none" x="846" y="980" width="80" height="44" opacity="0.2"/></g><g transform="translate(-829,-819) scale(1,1)"><rect fill="#e2e2e2" stroke="none" x="839" y="973" width="80" height="44"/></g><g transform="translate(-829,-819) scale(1,1)"><path fill="none" stroke="#000000" d="M 839 973 L 919 973 L 919 1017 L 839 1017 L 839 973 Z Z" stroke-miterlimit="10"/></g><g transform="translate(-829,-819) scale(1,1)"><path fill="none" stroke="#000000" d="M 839 998 L 919 998" stroke-miterlimit="10"/></g><g transform="translate(-829,-819) scale(1,1)"><g><path fill="none" stroke="none"/><text fill="#000000" stroke="none" font-family="Arial" font-size="13px" font-style="normal" font-weight="bold" text-decoration="none" x="858.411376953125" y="992.5">ncRNA</text></g></g></g></svg>