<svg version="1.1" xmlns="http://www.w3.org/2000/svg" 
xmlns:xlink="http://www.w3.org/1999/xlink" width="140.642578125" height="277"><defs/>
<g><g transform="translate(-606,-294) scale(1,1)"><rect fill="#C0C0C0" stroke="none" x="623" y="311" width="120" height="44" opacity="0.2"/></g><g transform="translate(-606,-294) scale(1,1)"><rect fill="#e2e2e2" stroke="none" x="616" y="304" width="120" height="44"/></g><g transform="translate(-606,-294) scale(1,1)"><path fill="none" stroke="#000000" d="M 616 304 L 736 304 L 736 348 L 616 348 L 616 304 Z Z" stroke-miterlimit="10"/></g><g transform="translate(-606,-294) scale(1,1)"><path fill="none" stroke="#000000" d="M 616 329 L 736 329" stroke-miterlimit="10"/></g><g transform="translate(-606,-294) scale(1,1)"><g><path fill="none" stroke="none"/><text fill="#000000" stroke="none" font-family="Arial" font-size="13px" font-style="normal" font-weight="bold" text-decoration="none" x="655.411376953125" y="323.5">ncRNA</text></g></g><g transform="translate(-606,-294) scale(1,1)"><rect fill="#C0C0C0" stroke="none" x="623" y="415" width="120" height="44" opacity="0.2"/></g><g transform="translate(-606,-294) scale(1,1)"><rect fill="#ffd8d8" stroke="none" x="616" y="408" width="120" height="44"/></g><g transform="translate(-606,-294) scale(1,1)"><path fill="none" stroke="#000000" d="M 616 408 L 736 408 L 736 452 L 616 452 L 616 408 Z Z" stroke-miterlimit="10"/></g><g transform="translate(-606,-294) scale(1,1)"><path fill="none" stroke="#000000" d="M 616 433 L 736 433" stroke-miterlimit="10"/></g><g transform="translate(-606,-294) scale(1,1)"><g><path fill="none" stroke="none"/><text fill="#000000" stroke="none" font-family="Arial" font-size="13px" font-style="normal" font-weight="bold" text-decoration="none" x="633.734130859375" y="427.5">Mutant ncRNA</text></g></g><g transform="translate(-606,-294) scale(1,1)"><rect fill="#C0C0C0" stroke="none" x="623" y="511" width="120.642578125" height="57" opacity="0.2"/></g><g transform="translate(-606,-294) scale(1,1)"><rect fill="#e2e2e2" stroke="none" x="616" y="504" width="120.642578125" height="57"/></g><g transform="translate(-606,-294) scale(1,1)"><path fill="none" stroke="#000000" d="M 616 504 L 736.642578125 504 L 736.642578125 561 L 616 561 L 616 504 Z Z" stroke-miterlimit="10"/></g><g transform="translate(-606,-294) scale(1,1)"><path fill="none" stroke="#000000" d="M 616 529 L 736.642578125 529" stroke-miterlimit="10"/></g><g transform="translate(-606,-294) scale(1,1)"><g><path fill="none" stroke="none"/><text fill="#000000" stroke="none" font-family="Arial" font-size="13px" font-style="normal" font-weight="bold" text-decoration="none" x="630.799072265625" y="523.5">Mutant Element</text></g></g><g transform="translate(-606,-294) scale(1,1)"><g><path fill="none" stroke="none"/><text fill="#000000" stroke="none" font-family="Arial" font-size="13px" font-style="normal" font-weight="normal" text-decoration="none" x="621" y="546.5">+description: String</text></g></g><g transform="translate(-606,-294) scale(1,1)"><path fill="none" stroke="#000000" d="M 676 503 L 676 453" stroke-miterlimit="10"/></g><g transform="translate(-606,-294) scale(1,1)"><path fill="#FFFFFF" stroke="none" d="M 684.419035512032 473.3253497152483 L 676 453 L 667.580964487968 473.3253497152483"/></g><g transform="translate(-606,-294) scale(1,1)"><path fill="none" stroke="#000000" d="M 684.419035512032 473.3253497152483 L 676 453 L 667.580964487968 473.3253497152483 L 684.419035512032 473.3253497152483" stroke-miterlimit="10"/></g><g transform="translate(-606,-294) scale(1,1)"><path fill="none" stroke="#000000" d="M 676 407 L 676 349" stroke-miterlimit="10"/></g><g transform="translate(-606,-294) scale(1,1)"><path fill="#FFFFFF" stroke="none" d="M 684.419035512032 369.3253497152483 L 676 349 L 667.580964487968 369.3253497152483"/></g><g transform="translate(-606,-294) scale(1,1)"><path fill="none" stroke="#000000" d="M 684.419035512032 369.3253497152483 L 676 349 L 667.580964487968 369.3253497152483 L 684.419035512032 369.3253497152483" stroke-miterlimit="10"/></g></g></svg>