<svg version="1.1" xmlns="http://www.w3.org/2000/svg" xmlns:xlink="http://www.w3.org/1999/xlink" width="164" height="341"><defs/><g><g transform="translate(-678,-446) scale(1,1)"><rect fill="#C0C0C0" stroke="none" x="695" y="727" width="144" height="57" opacity="0.2"/></g><g transform="translate(-678,-446) scale(1,1)"><rect fill="#e2e2e2" stroke="none" x="688" y="720" width="144" height="57"/></g><g transform="translate(-678,-446) scale(1,1)"><path fill="none" stroke="#000000" d="M 688 720 L 832 720 L 832 777 L 688 777 L 688 720 Z Z" stroke-miterlimit="10"/></g><g transform="translate(-678,-446) scale(1,1)"><path fill="none" stroke="#000000" d="M 688 745 L 832 745" stroke-miterlimit="10"/></g><g transform="translate(-678,-446) scale(1,1)"><g><path fill="none" stroke="none"/><text fill="#000000" stroke="none" font-family="Arial" font-size="13px" font-style="normal" font-weight="bold" text-decoration="none" x="714.477783203125" y="739.5">Mutant Element</text></g></g><g transform="translate(-678,-446) scale(1,1)"><g><path fill="none" stroke="none"/><text fill="#000000" stroke="none" font-family="Arial" font-size="13px" font-style="normal" font-weight="normal" text-decoration="none" x="693" y="762.5">+description: String</text></g></g><g transform="translate(-678,-446) scale(1,1)"><rect fill="#C0C0C0" stroke="none" x="695" y="463" width="144" height="72" opacity="0.2"/></g><g transform="translate(-678,-446) scale(1,1)"><rect fill="#e2e2e2" stroke="none" x="688" y="456" width="144" height="72"/></g><g transform="translate(-678,-446) scale(1,1)"><path fill="none" stroke="#000000" d="M 688 456 L 832 456 L 832 528 L 688 528 L 688 456 Z Z" stroke-miterlimit="10"/></g><g transform="translate(-678,-446) scale(1,1)"><path fill="none" stroke="#000000" d="M 688 481 L 832 481" stroke-miterlimit="10"/></g><g transform="translate(-678,-446) scale(1,1)"><g><path fill="none" stroke="none"/><text fill="#000000" stroke="none" font-family="Arial" font-size="13px" font-style="normal" font-weight="bold" text-decoration="none" x="736.52001953125" y="475.5">Enzyme</text></g></g><g transform="translate(-678,-446) scale(1,1)"><g><path fill="none" stroke="none"/><text fill="#000000" stroke="none" font-family="Arial" font-size="13px" font-style="normal" font-weight="normal" text-decoration="none" x="693" y="498.5">+enzyme_id: String</text></g></g><g transform="translate(-678,-446) scale(1,1)"><g><path fill="none" stroke="none"/><text fill="#000000" stroke="none" font-family="Arial" font-size="13px" font-style="normal" font-weight="normal" text-decoration="none" x="693" y="513.5">+class: String</text></g></g><g transform="translate(-678,-446) scale(1,1)"><path fill="none" stroke="#000000" d="M 760 719 L 760 679" stroke-miterlimit="10"/></g><g transform="translate(-678,-446) scale(1,1)"><path fill="#FFFFFF" stroke="none" d="M 768.419035512032 699.3253497152483 L 760 679 L 751.580964487968 699.3253497152483"/></g><g transform="translate(-678,-446) scale(1,1)"><path fill="none" stroke="#000000" d="M 768.419035512032 699.3253497152483 L 760 679 L 751.580964487968 699.3253497152483 L 768.419035512032 699.3253497152483" stroke-miterlimit="10"/></g><g transform="translate(-678,-446) scale(1,1)"><rect fill="#C0C0C0" stroke="none" x="695" y="583" width="144" height="102" opacity="0.2"/></g><g transform="translate(-678,-446) scale(1,1)"><rect fill="#ffd8d8" stroke="none" x="688" y="576" width="144" height="102"/></g><g transform="translate(-678,-446) scale(1,1)"><path fill="none" stroke="#000000" d="M 688 576 L 832 576 L 832 678 L 688 678 L 688 576 Z Z" stroke-miterlimit="10"/></g><g transform="translate(-678,-446) scale(1,1)"><path fill="none" stroke="#000000" d="M 688 601 L 832 601" stroke-miterlimit="10"/></g><g transform="translate(-678,-446) scale(1,1)"><g><path fill="none" stroke="none"/><text fill="#000000" stroke="none" font-family="Arial" font-size="13px" font-style="normal" font-weight="bold" text-decoration="none" x="714.8427734375" y="595.5">Mutant Enzyme</text></g></g><g transform="translate(-678,-446) scale(1,1)"><g><path fill="none" stroke="none"/><text fill="#000000" stroke="none" font-family="Arial" font-size="13px" font-style="normal" font-weight="normal" text-decoration="none" x="693" y="618.5">+reference_aa: String</text></g></g><g transform="translate(-678,-446) scale(1,1)"><g><path fill="none" stroke="none"/><text fill="#000000" stroke="none" font-family="Arial" font-size="13px" font-style="normal" font-weight="normal" text-decoration="none" x="693" y="633.5">+alternative_aa: String</text></g></g><g transform="translate(-678,-446) scale(1,1)"><g><path fill="none" stroke="none"/><text fill="#000000" stroke="none" font-family="Arial" font-size="13px" font-style="normal" font-weight="normal" text-decoration="none" x="693" y="648.5">+start: Long</text></g></g><g transform="translate(-678,-446) scale(1,1)"><g><path fill="none" stroke="none"/><text fill="#000000" stroke="none" font-family="Arial" font-size="13px" font-style="normal" font-weight="normal" text-decoration="none" x="693" y="663.5">+end: Long</text></g></g><g transform="translate(-678,-446) scale(1,1)"><path fill="none" stroke="#000000" d="M 760 575 L 760 529" stroke-miterlimit="10"/></g><g transform="translate(-678,-446) scale(1,1)"><path fill="#FFFFFF" stroke="none" d="M 768.419035512032 549.3253497152483 L 760 529 L 751.580964487968 549.3253497152483"/></g><g transform="translate(-678,-446) scale(1,1)"><path fill="none" stroke="#000000" d="M 768.419035512032 549.3253497152483 L 760 529 L 751.580964487968 549.3253497152483 L 768.419035512032 549.3253497152483" stroke-miterlimit="10"/></g></g></svg>