<svg version="1.1" xmlns="http://www.w3.org/2000/svg" xmlns:xlink="http://www.w3.org/1999/xlink" width="502.1552734375" height="498"><defs/><g><g transform="translate(-406,-294) scale(1,1)"><rect fill="#C0C0C0" stroke="none" x="439" y="311" width="152.2158203125" height="104" opacity="0.2"/></g><g transform="translate(-406,-294) scale(1,1)"><rect fill="#e2e2e2" stroke="none" x="432" y="304" width="152.2158203125" height="104"/></g><g transform="translate(-406,-294) scale(1,1)"><path fill="none" stroke="#000000" d="M 432 304 L 584.2158203125 304 L 584.2158203125 408 L 432 408 L 432 304 Z Z" stroke-miterlimit="10"/></g><g transform="translate(-406,-294) scale(1,1)"><path fill="none" stroke="#000000" d="M 432 329 L 584.2158203125 329" stroke-miterlimit="10"/></g><g transform="translate(-406,-294) scale(1,1)"><g><path fill="none" stroke="none"/><text fill="#000000" stroke="none" font-family="Arial" font-size="13px" font-style="normal" font-weight="bold" text-decoration="none" x="465.835693359375" y="323.5">Mutant Protein</text></g></g><g transform="translate(-406,-294) scale(1,1)"><g><path fill="none" stroke="none"/><text fill="#000000" stroke="none" font-family="Arial" font-size="13px" font-style="normal" font-weight="normal" text-decoration="none" x="437" y="348.5">+reference_aa: String</text></g></g><g transform="translate(-406,-294) scale(1,1)"><g><path fill="none" stroke="none"/><text fill="#000000" stroke="none" font-family="Arial" font-size="13px" font-style="normal" font-weight="normal" text-decoration="none" x="437" y="363.5">+alternative_aa: String</text></g></g><g transform="translate(-406,-294) scale(1,1)"><g><path fill="none" stroke="none"/><text fill="#000000" stroke="none" font-family="Arial" font-size="13px" font-style="normal" font-weight="normal" text-decoration="none" x="437" y="378.5">+start: Long</text></g></g><g transform="translate(-406,-294) scale(1,1)"><g><path fill="none" stroke="none"/><text fill="#000000" stroke="none" font-family="Arial" font-size="13px" font-style="normal" font-weight="normal" text-decoration="none" x="437" y="393.5">+end: Long</text></g></g><g transform="translate(-406,-294) scale(1,1)"><rect fill="#C0C0C0" stroke="none" x="791" y="311" width="114.1552734375" height="96" opacity="0.2"/></g><g transform="translate(-406,-294) scale(1,1)"><rect fill="#e2e2e2" stroke="none" x="784" y="304" width="114.1552734375" height="96"/></g><g transform="translate(-406,-294) scale(1,1)"><path fill="none" stroke="#000000" d="M 784 304 L 898.1552734375 304 L 898.1552734375 400 L 784 400 L 784 304 Z Z" stroke-miterlimit="10"/></g><g transform="translate(-406,-294) scale(1,1)"><path fill="none" stroke="#000000" d="M 784 329 L 898.1552734375 329" stroke-miterlimit="10"/></g><g transform="translate(-406,-294) scale(1,1)"><g><path fill="none" stroke="none"/><text fill="#000000" stroke="none" font-family="Arial" font-size="13px" font-style="normal" font-weight="bold" text-decoration="none" x="798.811767578125" y="323.5">Mutant ncRNA</text></g></g><g transform="translate(-406,-294) scale(1,1)"><rect fill="#C0C0C0" stroke="none" x="623" y="511" width="120.642578125" height="57" opacity="0.2"/></g><g transform="translate(-406,-294) scale(1,1)"><rect fill="#ffd8d8" stroke="none" x="616" y="504" width="120.642578125" height="57"/></g><g transform="translate(-406,-294) scale(1,1)"><path fill="none" stroke="#000000" d="M 616 504 L 736.642578125 504 L 736.642578125 561 L 616 561 L 616 504 Z Z" stroke-miterlimit="10"/></g><g transform="translate(-406,-294) scale(1,1)"><path fill="none" stroke="#000000" d="M 616 529 L 736.642578125 529" stroke-miterlimit="10"/></g><g transform="translate(-406,-294) scale(1,1)"><g><path fill="none" stroke="none"/><text fill="#000000" stroke="none" font-family="Arial" font-size="13px" font-style="normal" font-weight="bold" text-decoration="none" x="630.799072265625" y="523.5">Mutant Element</text></g></g><g transform="translate(-406,-294) scale(1,1)"><g><path fill="none" stroke="none"/><text fill="#000000" stroke="none" font-family="Arial" font-size="13px" font-style="normal" font-weight="normal" text-decoration="none" x="621" y="546.5">+description: String</text></g></g><g transform="translate(-406,-294) scale(1,1)"><path fill="none" stroke="#000000" d="M 703 503 L 796 401" stroke-miterlimit="10"/></g><g transform="translate(-406,-294) scale(1,1)"><path fill="#FFFFFF" stroke="none" d="M 788.5270127122708 421.69189360588916 L 796 401 L 776.084421728811 410.34717829744056"/></g><g transform="translate(-406,-294) scale(1,1)"><path fill="none" stroke="#000000" d="M 788.5270127122708 421.69189360588916 L 796 401 L 776.084421728811 410.34717829744056 L 788.5270127122708 421.69189360588916" stroke-miterlimit="10"/></g><g transform="translate(-406,-294) scale(1,1)"><path fill="none" stroke="#000000" d="M 648 503 L 559 409" stroke-miterlimit="10"/></g><g transform="translate(-406,-294) scale(1,1)"><path fill="#FFFFFF" stroke="none" d="M 579.0878249023164 417.9710250637192 L 559 409 L 566.8607645509655 429.54770986446624"/></g><g transform="translate(-406,-294) scale(1,1)"><path fill="none" stroke="#000000" d="M 579.0878249023164 417.9710250637192 L 559 409 L 566.8607645509655 429.54770986446624 L 579.0878249023164 417.9710250637192" stroke-miterlimit="10"/></g><g transform="translate(-406,-294) scale(1,1)"><rect fill="#C0C0C0" stroke="none" x="583" y="687" width="197.9951171875" height="102" opacity="0.2"/></g><g transform="translate(-406,-294) scale(1,1)"><rect fill="#e2e2e2" stroke="none" x="576" y="680" width="197.9951171875" height="102"/></g><g transform="translate(-406,-294) scale(1,1)"><path fill="none" stroke="#000000" d="M 576 680 L 773.9951171875 680 L 773.9951171875 782 L 576 782 L 576 680 Z Z" stroke-miterlimit="10"/></g><g transform="translate(-406,-294) scale(1,1)"><path fill="none" stroke="#000000" d="M 576 705 L 773.9951171875 705" stroke-miterlimit="10"/></g><g transform="translate(-406,-294) scale(1,1)"><g><path fill="none" stroke="none"/><text fill="#000000" stroke="none" font-family="Arial" font-size="13px" font-style="normal" font-weight="bold" text-decoration="none" x="628.513671875" y="699.5">Molecular Effect</text></g></g><g transform="translate(-406,-294) scale(1,1)"><g><path fill="none" stroke="none"/><text fill="#000000" stroke="none" font-family="Arial" font-size="13px" font-style="normal" font-weight="normal" text-decoration="none" x="581" y="722.5">+name: String</text></g></g><g transform="translate(-406,-294) scale(1,1)"><g><path fill="none" stroke="none"/><text fill="#000000" stroke="none" font-family="Arial" font-size="13px" font-style="normal" font-weight="normal" text-decoration="none" x="581" y="737.5">+impact: String</text></g></g><g transform="translate(-406,-294) scale(1,1)"><g><path fill="none" stroke="none"/><text fill="#000000" stroke="none" font-family="Arial" font-size="13px" font-style="normal" font-weight="normal" text-decoration="none" x="581" y="752.5">+functional_consequence: String</text></g></g><g transform="translate(-406,-294) scale(1,1)"><g><path fill="none" stroke="none"/><text fill="#000000" stroke="none" font-family="Arial" font-size="13px" font-style="normal" font-weight="normal" text-decoration="none" x="581" y="767.5">+description: String</text></g></g><g transform="translate(-406,-294) scale(1,1)"><rect fill="#C0C0C0" stroke="none" x="423" y="511" width="35.37890625" height="15" opacity="0.2"/></g><g transform="translate(-406,-294) scale(1,1)"><rect fill="#C0C0C0" stroke="none" x="423" y="525" width="88.447265625" height="42" opacity="0.2"/></g><g transform="translate(-406,-294) scale(1,1)"><rect fill="#e2e2e2" stroke="none" x="416" y="519" width="88.447265625" height="41"/></g><g transform="translate(-406,-294) scale(1,1)"><path fill="none" stroke="#000000" d="M 416 519 L 504.447265625 519 L 504.447265625 560 L 416 560 L 416 519 Z Z" stroke-miterlimit="10"/></g><g transform="translate(-406,-294) scale(1,1)"><rect fill="#e2e2e2" stroke="none" x="416" y="504" width="35.37890625" height="15"/></g><g transform="translate(-406,-294) scale(1,1)"><path fill="none" stroke="#000000" d="M 416 504 L 451.37890625 504 L 451.37890625 519 L 416 519 L 416 504 Z Z" stroke-miterlimit="10"/></g><g transform="translate(-406,-294) scale(1,1)"><rect fill="#e2e2e2" stroke="none" x="416" y="518" width="88.447265625" height="42"/></g><g transform="translate(-406,-294) scale(1,1)"><path fill="none" stroke="#000000" d="M 416 518 L 504.447265625 518 L 504.447265625 560 L 416 560 L 416 518 Z Z" stroke-miterlimit="10"/></g><g transform="translate(-406,-294) scale(1,1)"><g><path fill="none" stroke="none"/><text fill="#000000" stroke="none" font-family="Arial" font-size="13px" font-style="normal" font-weight="bold" text-decoration="none" x="424.451416015625" y="538.5">Bibliography</text></g></g><g transform="translate(-406,-294) scale(1,1)"><path fill="none" stroke="#000000" d="M 615 532 L 505 532" stroke-miterlimit="10" stroke-dasharray="3"/></g><g transform="translate(-406,-294) scale(1,1)"><path fill="none" stroke="#000000" d="M 515.1626748576241 527.790482243984 L 505 532 L 515.1626748576241 536.209517756016" stroke-miterlimit="10"/></g><g transform="translate(-406,-294) scale(1,1)"><g><path fill="none" stroke="none"/><text fill="#000000" stroke="none" font-family="Arial" font-size="13px" font-style="normal" font-weight="normal" text-decoration="none" x="510.5" y="523.5">+Is supported by</text></g></g><g transform="translate(-406,-294) scale(1,1)"><path fill="none" stroke="#000000" d="M 676 503 L 677 407" stroke-miterlimit="10"/></g><g transform="translate(-406,-294) scale(1,1)"><path fill="#FFFFFF" stroke="none" d="M 685.2068678801638 427.41194061321795 L 677 407 L 668.3697103055824 427.2365535551494"/></g><g transform="translate(-406,-294) scale(1,1)"><path fill="none" stroke="#000000" d="M 685.2068678801638 427.41194061321795 L 677 407 L 668.3697103055824 427.2365535551494 L 685.2068678801638 427.41194061321795" stroke-miterlimit="10"/></g><g transform="translate(-406,-294) scale(1,1)"><rect fill="#C0C0C0" stroke="none" x="615" y="311" width="139.4443359375" height="102" opacity="0.2"/></g><g transform="translate(-406,-294) scale(1,1)"><rect fill="#e2e2e2" stroke="none" x="608" y="304" width="139.4443359375" height="102"/></g><g transform="translate(-406,-294) scale(1,1)"><path fill="none" stroke="#000000" d="M 608 304 L 747.4443359375 304 L 747.4443359375 406 L 608 406 L 608 304 Z Z" stroke-miterlimit="10"/></g><g transform="translate(-406,-294) scale(1,1)"><path fill="none" stroke="#000000" d="M 608 329 L 747.4443359375 329" stroke-miterlimit="10"/></g><g transform="translate(-406,-294) scale(1,1)"><g><path fill="none" stroke="none"/><text fill="#000000" stroke="none" font-family="Arial" font-size="13px" font-style="normal" font-weight="bold" text-decoration="none" x="632.56494140625" y="323.5">Mutant Enzyme</text></g></g><g transform="translate(-406,-294) scale(1,1)"><g><path fill="none" stroke="none"/><text fill="#000000" stroke="none" font-family="Arial" font-size="13px" font-style="normal" font-weight="normal" text-decoration="none" x="613" y="346.5">+reference_aa: String</text></g></g><g transform="translate(-406,-294) scale(1,1)"><g><path fill="none" stroke="none"/><text fill="#000000" stroke="none" font-family="Arial" font-size="13px" font-style="normal" font-weight="normal" text-decoration="none" x="613" y="361.5">+alternative_aa: String</text></g></g><g transform="translate(-406,-294) scale(1,1)"><g><path fill="none" stroke="none"/><text fill="#000000" stroke="none" font-family="Arial" font-size="13px" font-style="normal" font-weight="normal" text-decoration="none" x="613" y="376.5">+start: Long</text></g></g><g transform="translate(-406,-294) scale(1,1)"><g><path fill="none" stroke="none"/><text fill="#000000" stroke="none" font-family="Arial" font-size="13px" font-style="normal" font-weight="normal" text-decoration="none" x="613" y="391.5">+end: Long</text></g></g><g transform="translate(-406,-294) scale(1,1)"><path fill="none" stroke="#000000" d="M 675 679 L 676 562" stroke-miterlimit="10"/></g><g transform="translate(-406,-294) scale(1,1)"><g><path fill="none" stroke="none"/><text fill="#000000" stroke="none" font-family="Arial" font-size="13px" font-style="normal" font-weight="normal" text-decoration="none" x="607.5" y="625.5">+Produces</text></g></g><g transform="translate(-406,-294) scale(1,1)"><g><path fill="none" stroke="none"/><text fill="#000000" stroke="none" font-family="Arial" font-size="13px" font-style="normal" font-weight="normal" text-decoration="none" x="683.5" y="663.5">1</text></g></g><g transform="translate(-406,-294) scale(1,1)"><g><path fill="none" stroke="none"/><text fill="#000000" stroke="none" font-family="Arial" font-size="13px" font-style="normal" font-weight="normal" text-decoration="none" x="677.5" y="589.5">0..1</text></g></g></g></svg>