<svg version="1.1" xmlns="http://www.w3.org/2000/svg" 
xmlns:xlink="http://www.w3.org/1999/xlink" width="172.2158203125" 
height="373"><defs/><g><g transform="translate(-574,-422) scale(1,1)"><rect fill="#C0C0C0" stroke="none" x="591" y="439" width="152" height="87" opacity="0.2"/></g><g transform="translate(-574,-422) scale(1,1)"><rect fill="#e2e2e2" stroke="none" x="584" y="432" width="152" height="87"/></g><g transform="translate(-574,-422) scale(1,1)"><path fill="none" stroke="#000000" d="M 584 432 L 736 432 L 736 519 L 584 519 L 584 432 Z Z" stroke-miterlimit="10"/></g><g transform="translate(-574,-422) scale(1,1)"><path fill="none" stroke="#000000" d="M 584 457 L 736 457" stroke-miterlimit="10"/></g><g transform="translate(-574,-422) scale(1,1)"><g><path fill="none" stroke="none"/><text fill="#000000" stroke="none" font-family="Arial" font-size="13px" font-style="normal" font-weight="bold" text-decoration="none" x="639.405029296875" y="451.5">Protein</text></g></g><g transform="translate(-574,-422) scale(1,1)"><g><path fill="none" stroke="none"/><text fill="#000000" stroke="none" font-family="Arial" font-size="13px" font-style="normal" font-weight="normal" text-decoration="none" x="589" y="474.5">+id: String</text></g></g><g transform="translate(-574,-422) scale(1,1)"><g><path fill="none" stroke="none"/><text fill="#000000" stroke="none" font-family="Arial" font-size="13px" font-style="normal" font-weight="normal" text-decoration="none" x="589" y="489.5">+name: String</text></g></g><g transform="translate(-574,-422) scale(1,1)"><g><path fill="none" stroke="none"/><text fill="#000000" stroke="none" font-family="Arial" font-size="13px" font-style="normal" font-weight="normal" text-decoration="none" x="589" y="504.5">+sequence: String</text></g></g><g transform="translate(-574,-422) scale(1,1)"><rect fill="#C0C0C0" stroke="none" x="591" y="583" width="152.2158203125" height="104" opacity="0.2"/></g><g transform="translate(-574,-422) scale(1,1)"><rect fill="#ffd8d8" stroke="none" x="584" y="576" width="152.2158203125" height="104"/></g><g transform="translate(-574,-422) scale(1,1)"><path fill="none" stroke="#000000" d="M 584 576 L 736.2158203125 576 L 736.2158203125 680 L 584 680 L 584 576 Z Z" stroke-miterlimit="10"/></g><g transform="translate(-574,-422) scale(1,1)"><path fill="none" stroke="#000000" d="M 584 601 L 736.2158203125 601" stroke-miterlimit="10"/></g><g transform="translate(-574,-422) scale(1,1)"><g><path fill="none" stroke="none"/><text fill="#000000" stroke="none" font-family="Arial" font-size="13px" font-style="normal" font-weight="bold" text-decoration="none" x="617.835693359375" y="595.5">Mutant Protein</text></g></g><g transform="translate(-574,-422) scale(1,1)"><g><path fill="none" stroke="none"/><text fill="#000000" stroke="none" font-family="Arial" font-size="13px" font-style="normal" font-weight="normal" text-decoration="none" x="589" y="620.5">+reference_aa: String</text></g></g><g transform="translate(-574,-422) scale(1,1)"><g><path fill="none" stroke="none"/><text fill="#000000" stroke="none" font-family="Arial" font-size="13px" font-style="normal" font-weight="normal" text-decoration="none" x="589" y="635.5">+alternative_aa: String</text></g></g><g transform="translate(-574,-422) scale(1,1)"><g><path fill="none" stroke="none"/><text fill="#000000" stroke="none" font-family="Arial" font-size="13px" font-style="normal" font-weight="normal" text-decoration="none" x="589" y="650.5">+start: Long</text></g></g><g transform="translate(-574,-422) scale(1,1)"><g><path fill="none" stroke="none"/><text fill="#000000" stroke="none" font-family="Arial" font-size="13px" font-style="normal" font-weight="normal" text-decoration="none" x="589" y="665.5">+end: Long</text></g></g><g transform="translate(-574,-422) scale(1,1)"><path fill="none" stroke="#000000" d="M 660 575 L 660 520" stroke-miterlimit="10"/></g><g transform="translate(-574,-422) scale(1,1)"><path fill="#FFFFFF" stroke="none" d="M 668.419035512032 540.3253497152483 L 660 520 L 651.580964487968 540.3253497152483"/></g><g transform="translate(-574,-422) scale(1,1)"><path fill="none" stroke="#000000" d="M 668.419035512032 540.3253497152483 L 660 520 L 651.580964487968 540.3253497152483 L 668.419035512032 540.3253497152483" stroke-miterlimit="10"/></g><g transform="translate(-574,-422) scale(1,1)"><rect fill="#C0C0C0" stroke="none" x="591" y="735" width="152" height="57" opacity="0.2"/></g><g transform="translate(-574,-422) scale(1,1)"><rect fill="#e2e2e2" stroke="none" x="584" y="728" width="152" height="57"/></g><g transform="translate(-574,-422) scale(1,1)"><path fill="none" stroke="#000000" d="M 584 728 L 736 728 L 736 785 L 584 785 L 584 728 Z Z" stroke-miterlimit="10"/></g><g transform="translate(-574,-422) scale(1,1)"><path fill="none" stroke="#000000" d="M 584 753 L 736 753" stroke-miterlimit="10"/></g><g transform="translate(-574,-422) scale(1,1)"><g><path fill="none" stroke="none"/><text fill="#000000" stroke="none" font-family="Arial" font-size="13px" font-style="normal" font-weight="bold" text-decoration="none" x="614.477783203125" y="747.5">Mutant Element</text></g></g><g transform="translate(-574,-422) scale(1,1)"><g><path fill="none" stroke="none"/><text fill="#000000" stroke="none" font-family="Arial" font-size="13px" font-style="normal" font-weight="normal" text-decoration="none" x="589" y="770.5">+description: String</text></g></g><g transform="translate(-574,-422) scale(1,1)"><path fill="none" stroke="#000000" d="M 660 727 L 660 681" stroke-miterlimit="10"/></g><g transform="translate(-574,-422) scale(1,1)"><path fill="#FFFFFF" stroke="none" d="M 668.419035512032 701.3253497152483 L 660 681 L 651.580964487968 701.3253497152483"/></g><g transform="translate(-574,-422) scale(1,1)"><path fill="none" stroke="#000000" d="M 668.419035512032 701.3253497152483 L 660 681 L 651.580964487968 701.3253497152483 L 668.419035512032 701.3253497152483" stroke-miterlimit="10"/></g></g></svg>