<svg version="1.1" xmlns="http://www.w3.org/2000/svg" xmlns:xlink="http://www.w3.org/1999/xlink" width="541.16357421875" height="389"><defs/><g><g transform="translate(-822,-734) scale(1,1)"><path fill="none" stroke="#000000" d="M 897 1023 L 895 941" stroke-miterlimit="10"/></g><g transform="translate(-822,-734) scale(1,1)"><path fill="#FFFFFF" stroke="none" d="M 903.912125302744 961.1140255192289 L 895 941 L 887.0790603947485 961.5245880779605"/></g><g transform="translate(-822,-734) scale(1,1)"><path fill="none" stroke="#000000" d="M 903.912125302744 961.1140255192289 L 895 941 L 887.0790603947485 961.5245880779605 L 903.912125302744 961.1140255192289" stroke-miterlimit="10"/></g><g transform="translate(-822,-734) scale(1,1)"><rect fill="#C0C0C0" stroke="none" x="847" y="1031" width="114.1552734375" height="44" opacity="0.2"/></g><g transform="translate(-822,-734) scale(1,1)"><rect fill="#e2e2e2" stroke="none" x="840" y="1024" width="114.1552734375" height="44"/></g><g transform="translate(-822,-734) scale(1,1)"><path fill="none" stroke="#000000" d="M 840 1024 L 954.1552734375 1024 L 954.1552734375 1068 L 840 1068 L 840 1024 Z Z" stroke-miterlimit="10"/></g><g transform="translate(-822,-734) scale(1,1)"><path fill="none" stroke="#000000" d="M 840 1049 L 954.1552734375 1049" stroke-miterlimit="10"/></g><g transform="translate(-822,-734) scale(1,1)"><g><path fill="none" stroke="none"/><text fill="#000000" stroke="none" font-family="Arial" font-size="13px" font-style="normal" font-weight="bold" text-decoration="none" x="854.811767578125" y="1043.5">Mutant ncRNA</text></g></g><g transform="translate(-822,-734) scale(1,1)"><rect fill="#C0C0C0" stroke="none" x="839" y="751" width="118.08447265625" height="92" opacity="0.2"/></g><g transform="translate(-822,-734) scale(1,1)"><rect fill="#e2e2e2" stroke="none" x="832" y="744" width="118.08447265625" height="92"/></g><g transform="translate(-822,-734) scale(1,1)"><path fill="none" stroke="#000000" d="M 832 744 L 950.08447265625 744 L 950.08447265625 836 L 832 836 L 832 744 Z Z" stroke-miterlimit="10"/></g><g transform="translate(-822,-734) scale(1,1)"><path fill="none" stroke="#000000" d="M 832 769 L 950.08447265625 769" stroke-miterlimit="10"/></g><g transform="translate(-822,-734) scale(1,1)"><g><path fill="none" stroke="none"/><text fill="#000000" stroke="none" font-family="Arial" font-size="13px" font-style="normal" font-weight="bold" text-decoration="none" x="840.35302734375" y="763.5">Mature Transcript</text></g></g><g transform="translate(-822,-734) scale(1,1)"><g><path fill="none" stroke="none"/><text fill="#000000" stroke="none" font-family="Arial" font-size="13px" font-style="normal" font-weight="normal" text-decoration="none" x="837" y="786.5">+id: String</text></g></g><g transform="translate(-822,-734) scale(1,1)"><g><path fill="none" stroke="none"/><text fill="#000000" stroke="none" font-family="Arial" font-size="13px" font-style="normal" font-weight="normal" text-decoration="none" x="837" y="801.5">+start: Long</text></g></g><g transform="translate(-822,-734) scale(1,1)"><g><path fill="none" stroke="none"/><text fill="#000000" stroke="none" font-family="Arial" font-size="13px" font-style="normal" font-weight="normal" text-decoration="none" x="837" y="816.5">+end: Long</text></g></g><g transform="translate(-822,-734) scale(1,1)"><g><path fill="none" stroke="none"/><text fill="#000000" stroke="none" font-family="Arial" font-size="13px" font-style="normal" font-weight="normal" text-decoration="none" x="837" y="831.5">+/sequence: String</text></g></g><g transform="translate(-822,-734) scale(1,1)"><rect fill="#C0C0C0" stroke="none" x="862" y="903" width="80" height="44" opacity="0.2"/></g><g transform="translate(-822,-734) scale(1,1)"><rect fill="#d8ffd8" stroke="none" x="855" y="896" width="80" height="44"/></g><g transform="translate(-822,-734) scale(1,1)"><path fill="none" stroke="#000000" d="M 855 896 L 935 896 L 935 940 L 855 940 L 855 896 Z Z" stroke-miterlimit="10"/></g><g transform="translate(-822,-734) scale(1,1)"><path fill="none" stroke="#000000" d="M 855 921 L 935 921" stroke-miterlimit="10"/></g><g transform="translate(-822,-734) scale(1,1)"><g><path fill="none" stroke="none"/><text fill="#000000" stroke="none" font-family="Arial" font-size="13px" font-style="normal" font-weight="bold" text-decoration="none" x="874.411376953125" y="915.5">ncRNA</text></g></g><g transform="translate(-822,-734) scale(1,1)"><path fill="none" stroke="#000000" d="M 894 895 L 892 837" stroke-miterlimit="10"/></g><g transform="translate(-822,-734) scale(1,1)"><path fill="#FFFFFF" stroke="none" d="M 901.1144924079225 857.0231373202583 L 892 837 L 884.2864232089312 857.6034155684995"/></g><g transform="translate(-822,-734) scale(1,1)"><path fill="none" stroke="#000000" d="M 901.1144924079225 857.0231373202583 L 892 837 L 884.2864232089312 857.6034155684995 L 901.1144924079225 857.0231373202583" stroke-miterlimit="10"/></g><g transform="translate(-822,-734) scale(1,1)"><rect fill="#C0C0C0" stroke="none" x="1038" y="1015" width="152" height="72" opacity="0.2"/></g><g transform="translate(-822,-734) scale(1,1)"><rect fill="#e2e2e2" stroke="none" x="1031" y="1008" width="152" height="72"/></g><g transform="translate(-822,-734) scale(1,1)"><path fill="none" stroke="#000000" d="M 1031 1008 L 1183 1008 L 1183 1080 L 1031 1080 L 1031 1008 Z Z" stroke-miterlimit="10"/></g><g transform="translate(-822,-734) scale(1,1)"><path fill="none" stroke="#000000" d="M 1031 1033 L 1183 1033" stroke-miterlimit="10"/></g><g transform="translate(-822,-734) scale(1,1)"><g><path fill="none" stroke="none"/><text fill="#000000" stroke="none" font-family="Arial" font-size="13px" font-style="normal" font-weight="bold" text-decoration="none" x="1043.412353515625" y="1027.5">Molecular Component</text></g></g><g transform="translate(-822,-734) scale(1,1)"><g><path fill="none" stroke="none"/><text fill="#000000" stroke="none" font-family="Arial" font-size="13px" font-style="normal" font-weight="normal" text-decoration="none" x="1036" y="1050.5">+id: String</text></g></g><g transform="translate(-822,-734) scale(1,1)"><g><path fill="none" stroke="none"/><text fill="#000000" stroke="none" font-family="Arial" font-size="13px" font-style="normal" font-weight="normal" text-decoration="none" x="1036" y="1065.5">+name: String</text></g></g><g transform="translate(-822,-734) scale(1,1)"><path fill="none" stroke="#000000" d="M 1097 1080 L 1097 1112 L 991 1112 L 991 1036 L 1031 1036" stroke-miterlimit="10"/></g><g transform="translate(-822,-734) scale(1,1)"><path fill="#FFFFFF" stroke="none" d="M 1020.8373251423759 1040.2095177560159 L 1031 1036 L 1020.8373251423758 1031.7904822439841 L 1009 1036"/></g><g transform="translate(-822,-734) scale(1,1)"><path fill="none" stroke="#000000" d="M 1020.8373251423759 1040.2095177560159 L 1031 1036 L 1020.8373251423758 1031.7904822439841 L 1009 1036 L 1020.8373251423759 1040.2095177560159" stroke-miterlimit="10"/></g><g transform="translate(-822,-734) scale(1,1)"><g><path fill="none" stroke="none"/><text fill="#000000" stroke="none" font-family="Arial" font-size="13px" font-style="normal" font-weight="normal" text-decoration="none" x="1081.726806640625" y="1107.5">*</text></g></g><g transform="translate(-822,-734) scale(1,1)"><path fill="none" stroke="#000000" d="M 934 941 L 1045 1007" stroke-miterlimit="10"/></g><g transform="translate(-822,-734) scale(1,1)"><path fill="#FFFFFF" stroke="none" d="M 1034.1134353006075 1005.424338537013 L 1045 1007 L 1038.416197182566 998.1878753719011 L 1026.0902104635454 995.7563413567027"/></g><g transform="translate(-822,-734) scale(1,1)"><path fill="none" stroke="#000000" d="M 1034.1134353006075 1005.424338537013 L 1045 1007 L 1038.416197182566 998.1878753719011 L 1026.0902104635454 995.7563413567027 L 1034.1134353006075 1005.424338537013" stroke-miterlimit="10"/></g><g transform="translate(-822,-734) scale(1,1)"><g><path fill="none" stroke="none"/><text fill="#000000" stroke="none" font-family="Arial" font-size="13px" font-style="normal" font-weight="normal" text-decoration="none" x="943.726806640625" y="968.5">*</text></g></g><g transform="translate(-822,-734) scale(1,1)"><rect fill="#C0C0C0" stroke="none" x="1199" y="887" width="120.642578125" height="87" opacity="0.2"/></g><g transform="translate(-822,-734) scale(1,1)"><rect fill="#e2e2e2" stroke="none" x="1192" y="880" width="120.642578125" height="87"/></g><g transform="translate(-822,-734) scale(1,1)"><path fill="none" stroke="#000000" d="M 1192 880 L 1312.642578125 880 L 1312.642578125 967 L 1192 967 L 1192 880 Z Z" stroke-miterlimit="10"/></g><g transform="translate(-822,-734) scale(1,1)"><path fill="none" stroke="#000000" d="M 1192 905 L 1312.642578125 905" stroke-miterlimit="10"/></g><g transform="translate(-822,-734) scale(1,1)"><g><path fill="none" stroke="none"/><text fill="#000000" stroke="none" font-family="Arial" font-size="13px" font-style="normal" font-weight="bold" text-decoration="none" x="1235.699951171875" y="899.5">Event</text></g></g><g transform="translate(-822,-734) scale(1,1)"><g><path fill="none" stroke="none"/><text fill="#000000" stroke="none" font-family="Arial" font-size="13px" font-style="normal" font-weight="normal" text-decoration="none" x="1197" y="922.5">+id: String</text></g></g><g transform="translate(-822,-734) scale(1,1)"><g><path fill="none" stroke="none"/><text fill="#000000" stroke="none" font-family="Arial" font-size="13px" font-style="normal" font-weight="normal" text-decoration="none" x="1197" y="937.5">+name: String</text></g></g><g transform="translate(-822,-734) scale(1,1)"><g><path fill="none" stroke="none"/><text fill="#000000" stroke="none" font-family="Arial" font-size="13px" font-style="normal" font-weight="normal" text-decoration="none" x="1197" y="952.5">+description: String</text></g></g><g transform="translate(-822,-734) scale(1,1)"><path fill="none" stroke="#000000" d="M 936 919 L 1191 922" stroke-miterlimit="10"/></g><g transform="translate(-822,-734) scale(1,1)"><g><path fill="none" stroke="none"/><text fill="#000000" stroke="none" font-family="Arial" font-size="13px" font-style="normal" font-weight="normal" text-decoration="none" x="954.726806640625" y="937.5">*</text></g></g><g transform="translate(-822,-734) scale(1,1)"><g><path fill="none" stroke="none"/><text fill="#000000" stroke="none" font-family="Arial" font-size="13px" font-style="normal" font-weight="normal" text-decoration="none" x="1166.726806640625" y="940.5">*</text></g></g><g transform="translate(-822,-734) scale(1,1)"><rect fill="#C0C0C0" stroke="none" x="1007" y="791" width="124.603515625" height="57" opacity="0.2"/></g><g transform="translate(-822,-734) scale(1,1)"><rect fill="#e2e2e2" stroke="none" x="1000" y="784" width="124.603515625" height="57"/></g><g transform="translate(-822,-734) scale(1,1)"><path fill="none" stroke="#000000" d="M 1000 784 L 1124.603515625 784 L 1124.603515625 841 L 1000 841 L 1000 784 Z Z" stroke-miterlimit="10"/></g><g transform="translate(-822,-734) scale(1,1)"><path fill="none" stroke="#000000" d="M 1000 809 L 1124.603515625 809" stroke-miterlimit="10"/></g><g transform="translate(-822,-734) scale(1,1)"><g><path fill="none" stroke="none"/><text fill="#000000" stroke="none" font-family="Arial" font-size="13px" font-style="normal" font-weight="bold" text-decoration="none" x="1031.594970703125" y="803.5">Takes Part</text></g></g><g transform="translate(-822,-734) scale(1,1)"><g><path fill="none" stroke="none"/><text fill="#000000" stroke="none" font-family="Arial" font-size="13px" font-style="normal" font-weight="normal" text-decoration="none" x="1005" y="826.5">+role: String</text></g></g><g transform="translate(-822,-734) scale(1,1)"><path fill="none" stroke="#000000" d="M 1062 842 L 1063 920" stroke-miterlimit="10" stroke-dasharray="3"/></g><g transform="translate(-822,-734) scale(1,1)"><path fill="none" stroke="#000000" d="M 1252 880 L 1252 859 L 1342 859 L 1342 923 L 1313 923" stroke-miterlimit="10"/></g><g transform="translate(-822,-734) scale(1,1)"><g><path fill="none" stroke="none"/><text fill="#000000" stroke="none" font-family="Arial" font-size="13px" font-style="normal" font-weight="normal" text-decoration="none" x="1245.5" y="851.5">+prev</text></g></g><g transform="translate(-822,-734) scale(1,1)"><g><path fill="none" stroke="none"/><text fill="#000000" stroke="none" font-family="Arial" font-size="13px" font-style="normal" font-weight="normal" text-decoration="none" x="1258.220458984375" y="876.5">*</text></g></g><g transform="translate(-822,-734) scale(1,1)"><g><path fill="none" stroke="none"/><text fill="#000000" stroke="none" font-family="Arial" font-size="13px" font-style="normal" font-weight="normal" text-decoration="none" x="1321.5" y="943.5">+post</text></g></g><g transform="translate(-822,-734) scale(1,1)"><g><path fill="none" stroke="none"/><text fill="#000000" stroke="none" font-family="Arial" font-size="13px" font-style="normal" font-weight="normal" text-decoration="none" x="1331.220458984375" y="916.5">*</text></g></g></g></svg>