<svg version="1.1" xmlns="http://www.w3.org/2000/svg" xmlns:xlink="http://www.w3.org/1999/xlink" width="573.16357421875" height="373"><defs/><g><g transform="translate(-902,-774) scale(1,1)"><rect fill="#C0C0C0" stroke="none" x="919" y="791" width="118.08447265625" height="87" opacity="0.2"/></g><g transform="translate(-902,-774) scale(1,1)"><rect fill="#e2e2e2" stroke="none" x="912" y="784" width="118.08447265625" height="87"/></g><g transform="translate(-902,-774) scale(1,1)"><path fill="none" stroke="#000000" d="M 912 784 L 1030.08447265625 784 L 1030.08447265625 871 L 912 871 L 912 784 Z Z" stroke-miterlimit="10"/></g><g transform="translate(-902,-774) scale(1,1)"><path fill="none" stroke="#000000" d="M 912 809 L 1030.08447265625 809" stroke-miterlimit="10"/></g><g transform="translate(-902,-774) scale(1,1)"><g><path fill="none" stroke="none"/><text fill="#000000" stroke="none" font-family="Arial" font-size="13px" font-style="normal" font-weight="bold" text-decoration="none" x="920.35302734375" y="803.5">Mature Transcript</text></g></g><g transform="translate(-902,-774) scale(1,1)"><g><path fill="none" stroke="none"/><text fill="#000000" stroke="none" font-family="Arial" font-size="13px" font-style="normal" font-weight="normal" text-decoration="none" x="917" y="826.5">+id: String</text></g></g><g transform="translate(-902,-774) scale(1,1)"><g><path fill="none" stroke="none"/><text fill="#000000" stroke="none" font-family="Arial" font-size="13px" font-style="normal" font-weight="normal" text-decoration="none" x="917" y="841.5">+start: Long</text></g></g><g transform="translate(-902,-774) scale(1,1)"><g><path fill="none" stroke="none"/><text fill="#000000" stroke="none" font-family="Arial" font-size="13px" font-style="normal" font-weight="normal" text-decoration="none" x="917" y="856.5">+end: Long</text></g></g><g transform="translate(-902,-774) scale(1,1)"><rect fill="#C0C0C0" stroke="none" x="1311" y="911" width="120.642578125" height="87" opacity="0.2"/></g><g transform="translate(-902,-774) scale(1,1)"><rect fill="#e2e2e2" stroke="none" x="1304" y="904" width="120.642578125" height="87"/></g><g transform="translate(-902,-774) scale(1,1)"><path fill="none" stroke="#000000" d="M 1304 904 L 1424.642578125 904 L 1424.642578125 991 L 1304 991 L 1304 904 Z Z" stroke-miterlimit="10"/></g><g transform="translate(-902,-774) scale(1,1)"><path fill="none" stroke="#000000" d="M 1304 929 L 1424.642578125 929" stroke-miterlimit="10"/></g><g transform="translate(-902,-774) scale(1,1)"><g><path fill="none" stroke="none"/><text fill="#000000" stroke="none" font-family="Arial" font-size="13px" font-style="normal" font-weight="bold" text-decoration="none" x="1347.699951171875" y="923.5">Event</text></g></g><g transform="translate(-902,-774) scale(1,1)"><g><path fill="none" stroke="none"/><text fill="#000000" stroke="none" font-family="Arial" font-size="13px" font-style="normal" font-weight="normal" text-decoration="none" x="1309" y="946.5">+id: String</text></g></g><g transform="translate(-902,-774) scale(1,1)"><g><path fill="none" stroke="none"/><text fill="#000000" stroke="none" font-family="Arial" font-size="13px" font-style="normal" font-weight="normal" text-decoration="none" x="1309" y="961.5">+name: String</text></g></g><g transform="translate(-902,-774) scale(1,1)"><g><path fill="none" stroke="none"/><text fill="#000000" stroke="none" font-family="Arial" font-size="13px" font-style="normal" font-weight="normal" text-decoration="none" x="1309" y="976.5">+description: String</text></g></g><g transform="translate(-902,-774) scale(1,1)"><path fill="none" stroke="#000000" d="M 1364 904 L 1364 883 L 1454 883 L 1454 947 L 1425 947" stroke-miterlimit="10"/></g><g transform="translate(-902,-774) scale(1,1)"><g><path fill="none" stroke="none"/><text fill="#000000" stroke="none" font-family="Arial" font-size="13px" font-style="normal" font-weight="normal" text-decoration="none" x="1357.5" y="875.5">+prev</text></g></g><g transform="translate(-902,-774) scale(1,1)"><g><path fill="none" stroke="none"/><text fill="#000000" stroke="none" font-family="Arial" font-size="13px" font-style="normal" font-weight="normal" text-decoration="none" x="1370.220458984375" y="900.5">*</text></g></g><g transform="translate(-902,-774) scale(1,1)"><g><path fill="none" stroke="none"/><text fill="#000000" stroke="none" font-family="Arial" font-size="13px" font-style="normal" font-weight="normal" text-decoration="none" x="1433.5" y="967.5">+post</text></g></g><g transform="translate(-902,-774) scale(1,1)"><g><path fill="none" stroke="none"/><text fill="#000000" stroke="none" font-family="Arial" font-size="13px" font-style="normal" font-weight="normal" text-decoration="none" x="1443.220458984375" y="940.5">*</text></g></g><g transform="translate(-902,-774) scale(1,1)"><rect fill="#C0C0C0" stroke="none" x="935" y="927" width="80" height="44" opacity="0.2"/></g><g transform="translate(-902,-774) scale(1,1)"><rect fill="#d8ffd8" stroke="none" x="928" y="920" width="80" height="44"/></g><g transform="translate(-902,-774) scale(1,1)"><path fill="none" stroke="#000000" d="M 928 920 L 1008 920 L 1008 964 L 928 964 L 928 920 Z Z" stroke-miterlimit="10"/></g><g transform="translate(-902,-774) scale(1,1)"><path fill="none" stroke="#000000" d="M 928 945 L 1008 945" stroke-miterlimit="10"/></g><g transform="translate(-902,-774) scale(1,1)"><g><path fill="none" stroke="none"/><text fill="#000000" stroke="none" font-family="Arial" font-size="13px" font-style="normal" font-weight="bold" text-decoration="none" x="947.411376953125" y="939.5">ncRNA</text></g></g><g transform="translate(-902,-774) scale(1,1)"><path fill="none" stroke="#000000" d="M 969 919 L 970 872" stroke-miterlimit="10"/></g><g transform="translate(-902,-774) scale(1,1)"><path fill="#FFFFFF" stroke="none" d="M 977.9847741394848 892.4998385833014 L 970 872 L 961.1505130647906 892.1416628157548"/></g><g transform="translate(-902,-774) scale(1,1)"><path fill="none" stroke="#000000" d="M 977.9847741394848 892.4998385833014 L 970 872 L 961.1505130647906 892.1416628157548 L 977.9847741394848 892.4998385833014" stroke-miterlimit="10"/></g><g transform="translate(-902,-774) scale(1,1)"><rect fill="#C0C0C0" stroke="none" x="919" y="1039" width="114.1552734375" height="44" opacity="0.2"/></g><g transform="translate(-902,-774) scale(1,1)"><rect fill="#e2e2e2" stroke="none" x="912" y="1032" width="114.1552734375" height="44"/></g><g transform="translate(-902,-774) scale(1,1)"><path fill="none" stroke="#000000" d="M 912 1032 L 1026.1552734375 1032 L 1026.1552734375 1076 L 912 1076 L 912 1032 Z Z" stroke-miterlimit="10"/></g><g transform="translate(-902,-774) scale(1,1)"><path fill="none" stroke="#000000" d="M 912 1057 L 1026.1552734375 1057" stroke-miterlimit="10"/></g><g transform="translate(-902,-774) scale(1,1)"><g><path fill="none" stroke="none"/><text fill="#000000" stroke="none" font-family="Arial" font-size="13px" font-style="normal" font-weight="bold" text-decoration="none" x="926.811767578125" y="1051.5">Mutant ncRNA</text></g></g><g transform="translate(-902,-774) scale(1,1)"><rect fill="#C0C0C0" stroke="none" x="1119" y="1039" width="152" height="72" opacity="0.2"/></g><g transform="translate(-902,-774) scale(1,1)"><rect fill="#e2e2e2" stroke="none" x="1112" y="1032" width="152" height="72"/></g><g transform="translate(-902,-774) scale(1,1)"><path fill="none" stroke="#000000" d="M 1112 1032 L 1264 1032 L 1264 1104 L 1112 1104 L 1112 1032 Z Z" stroke-miterlimit="10"/></g><g transform="translate(-902,-774) scale(1,1)"><path fill="none" stroke="#000000" d="M 1112 1057 L 1264 1057" stroke-miterlimit="10"/></g><g transform="translate(-902,-774) scale(1,1)"><g><path fill="none" stroke="none"/><text fill="#000000" stroke="none" font-family="Arial" font-size="13px" font-style="normal" font-weight="bold" text-decoration="none" x="1124.412353515625" y="1051.5">Molecular Component</text></g></g><g transform="translate(-902,-774) scale(1,1)"><g><path fill="none" stroke="none"/><text fill="#000000" stroke="none" font-family="Arial" font-size="13px" font-style="normal" font-weight="normal" text-decoration="none" x="1117" y="1074.5">+id: String</text></g></g><g transform="translate(-902,-774) scale(1,1)"><g><path fill="none" stroke="none"/><text fill="#000000" stroke="none" font-family="Arial" font-size="13px" font-style="normal" font-weight="normal" text-decoration="none" x="1117" y="1089.5">+name: String</text></g></g><g transform="translate(-902,-774) scale(1,1)"><path fill="none" stroke="#000000" d="M 1178 1104 L 1178 1136 L 1072 1136 L 1072 1060 L 1112 1060" stroke-miterlimit="10"/></g><g transform="translate(-902,-774) scale(1,1)"><path fill="#FFFFFF" stroke="none" d="M 1101.837325142376 1064.2095177560159 L 1112 1060 L 1101.837325142376 1055.7904822439841 L 1090 1060"/></g><g transform="translate(-902,-774) scale(1,1)"><path fill="none" stroke="#000000" d="M 1101.837325142376 1064.2095177560159 L 1112 1060 L 1101.837325142376 1055.7904822439841 L 1090 1060 L 1101.837325142376 1064.2095177560159" stroke-miterlimit="10"/></g><g transform="translate(-902,-774) scale(1,1)"><g><path fill="none" stroke="none"/><text fill="#000000" stroke="none" font-family="Arial" font-size="13px" font-style="normal" font-weight="normal" text-decoration="none" x="1162.726806640625" y="1131.5">*</text></g></g><g transform="translate(-902,-774) scale(1,1)"><path fill="none" stroke="#000000" d="M 1008 965 L 1123 1031" stroke-miterlimit="10"/></g><g transform="translate(-902,-774) scale(1,1)"><path fill="#FFFFFF" stroke="none" d="M 1112.0904360206237 1029.5923729968868 L 1123 1031 L 1116.281115929677 1022.2904307311119 L 1103.919105327746 1020.0492256663584"/></g><g transform="translate(-902,-774) scale(1,1)"><path fill="none" stroke="#000000" d="M 1112.0904360206237 1029.5923729968868 L 1123 1031 L 1116.281115929677 1022.2904307311119 L 1103.919105327746 1020.0492256663584 L 1112.0904360206237 1029.5923729968868" stroke-miterlimit="10"/></g><g transform="translate(-902,-774) scale(1,1)"><g><path fill="none" stroke="none"/><text fill="#000000" stroke="none" font-family="Arial" font-size="13px" font-style="normal" font-weight="normal" text-decoration="none" x="1017.726806640625" y="992.5">*</text></g></g><g transform="translate(-902,-774) scale(1,1)"><path fill="none" stroke="#000000" d="M 969 1031 L 968 965" stroke-miterlimit="10"/></g><g transform="translate(-902,-774) scale(1,1)"><path fill="#FFFFFF" stroke="none" d="M 976.725993807412 985.1954705831037 L 968 965 L 959.8898551952468 985.4505635923789"/></g><g transform="translate(-902,-774) scale(1,1)"><path fill="none" stroke="#000000" d="M 976.725993807412 985.1954705831037 L 968 965 L 959.8898551952468 985.4505635923789 L 976.725993807412 985.1954705831037" stroke-miterlimit="10"/></g><g transform="translate(-902,-774) scale(1,1)"><rect fill="#C0C0C0" stroke="none" x="1127" y="839" width="124.603515625" height="57" opacity="0.2"/></g><g transform="translate(-902,-774) scale(1,1)"><rect fill="#e2e2e2" stroke="none" x="1120" y="832" width="124.603515625" height="57"/></g><g transform="translate(-902,-774) scale(1,1)"><path fill="none" stroke="#000000" d="M 1120 832 L 1244.603515625 832 L 1244.603515625 889 L 1120 889 L 1120 832 Z Z" stroke-miterlimit="10"/></g><g transform="translate(-902,-774) scale(1,1)"><path fill="none" stroke="#000000" d="M 1120 857 L 1244.603515625 857" stroke-miterlimit="10"/></g><g transform="translate(-902,-774) scale(1,1)"><g><path fill="none" stroke="none"/><text fill="#000000" stroke="none" font-family="Arial" font-size="13px" font-style="normal" font-weight="bold" text-decoration="none" x="1151.594970703125" y="851.5">Takes Part</text></g></g><g transform="translate(-902,-774) scale(1,1)"><g><path fill="none" stroke="none"/><text fill="#000000" stroke="none" font-family="Arial" font-size="13px" font-style="normal" font-weight="normal" text-decoration="none" x="1125" y="874.5">+role: String</text></g></g><g transform="translate(-902,-774) scale(1,1)"><path fill="none" stroke="#000000" d="M 1009 943 L 1303 946" stroke-miterlimit="10"/></g><g transform="translate(-902,-774) scale(1,1)"><g><path fill="none" stroke="none"/><text fill="#000000" stroke="none" font-family="Arial" font-size="13px" font-style="normal" font-weight="normal" text-decoration="none" x="1027.726806640625" y="961.5">*</text></g></g><g transform="translate(-902,-774) scale(1,1)"><g><path fill="none" stroke="none"/><text fill="#000000" stroke="none" font-family="Arial" font-size="13px" font-style="normal" font-weight="normal" text-decoration="none" x="1278.726806640625" y="964.5">*</text></g></g><g transform="translate(-902,-774) scale(1,1)"><path fill="none" stroke="#000000" d="M 1173 890 L 1156 944" stroke-miterlimit="10" stroke-dasharray="3"/></g></g></svg>