<svg version="1.1" xmlns="http://www.w3.org/2000/svg" xmlns:xlink="http://www.w3.org/1999/xlink" width="479.9443359375" height="372"><defs/><g><g transform="translate(-14,-222) scale(1,1)"><rect fill="#C0C0C0" stroke="none" x="319" y="327" width="171.9443359375" height="147" opacity="0.2"/></g><g transform="translate(-14,-222) scale(1,1)"><rect fill="#e2e2e2" stroke="none" x="312" y="320" width="171.9443359375" height="147"/></g><g transform="translate(-14,-222) scale(1,1)"><path fill="none" stroke="#000000" d="M 312 320 L 483.9443359375 320 L 483.9443359375 467 L 312 467 L 312 320 Z Z" stroke-miterlimit="10"/></g><g transform="translate(-14,-222) scale(1,1)"><path fill="none" stroke="#000000" d="M 312 345 L 483.9443359375 345" stroke-miterlimit="10"/></g><g transform="translate(-14,-222) scale(1,1)"><g><path fill="none" stroke="none"/><text fill="#000000" stroke="none" font-family="Arial" font-size="13px" font-style="normal" font-weight="bold" text-decoration="none" x="377.859619140625" y="339.5">Variant</text></g></g><g transform="translate(-14,-222) scale(1,1)"><g><path fill="none" stroke="none"/><text fill="#000000" stroke="none" font-family="Arial" font-size="13px" font-style="normal" font-weight="normal" text-decoration="none" x="317" y="362.5">+id: String</text></g></g><g transform="translate(-14,-222) scale(1,1)"><g><path fill="none" stroke="none"/><text fill="#000000" stroke="none" font-family="Arial" font-size="13px" font-style="normal" font-weight="normal" text-decoration="none" x="317" y="377.5">+name: String</text></g></g><g transform="translate(-14,-222) scale(1,1)"><g><path fill="none" stroke="none"/><text fill="#000000" stroke="none" font-family="Arial" font-size="13px" font-style="normal" font-weight="normal" text-decoration="none" x="317" y="392.5">+reference_allele: String</text></g></g><g transform="translate(-14,-222) scale(1,1)"><g><path fill="none" stroke="none"/><text fill="#000000" stroke="none" font-family="Arial" font-size="13px" font-style="normal" font-weight="normal" text-decoration="none" x="317" y="407.5">+alternative_allele: String</text></g></g><g transform="translate(-14,-222) scale(1,1)"><g><path fill="none" stroke="none"/><text fill="#000000" stroke="none" font-family="Arial" font-size="13px" font-style="normal" font-weight="normal" text-decoration="none" x="317" y="422.5">+start: Long</text></g></g><g transform="translate(-14,-222) scale(1,1)"><g><path fill="none" stroke="none"/><text fill="#000000" stroke="none" font-family="Arial" font-size="13px" font-style="normal" font-weight="normal" text-decoration="none" x="317" y="437.5">+end: Long</text></g></g><g transform="translate(-14,-222) scale(1,1)"><g><path fill="none" stroke="none"/><text fill="#000000" stroke="none" font-family="Arial" font-size="13px" font-style="normal" font-weight="normal" text-decoration="none" x="317" y="452.5">+clinical_significance: String</text></g></g><g transform="translate(-14,-222) scale(1,1)"><path fill="none" stroke="#000000" d="M 311 394 L 243 394" stroke-miterlimit="10"/></g><g transform="translate(-14,-222) scale(1,1)"><g><path fill="none" stroke="none"/><text fill="#000000" stroke="none" font-family="Arial" font-size="13px" font-style="normal" font-weight="normal" text-decoration="none" x="286.220458984375" y="387.5">*</text></g></g><g transform="translate(-14,-222) scale(1,1)"><g><path fill="none" stroke="none"/><text fill="#000000" stroke="none" font-family="Arial" font-size="13px" font-style="normal" font-weight="normal" text-decoration="none" x="261.726806640625" y="387.5">*</text></g></g><g transform="translate(-14,-222) scale(1,1)"><rect fill="#C0C0C0" stroke="none" x="119" y="239" width="90.29443359375" height="44" opacity="0.2"/></g><g transform="translate(-14,-222) scale(1,1)"><rect fill="#e2e2e2" stroke="none" x="112" y="232" width="90.29443359375" height="44"/></g><g transform="translate(-14,-222) scale(1,1)"><path fill="none" stroke="#000000" d="M 112 232 L 202.29443359375 232 L 202.29443359375 276 L 112 276 L 112 232 Z Z" stroke-miterlimit="10"/></g><g transform="translate(-14,-222) scale(1,1)"><path fill="none" stroke="#000000" d="M 112 257 L 202.29443359375 257" stroke-miterlimit="10"/></g><g transform="translate(-14,-222) scale(1,1)"><g><path fill="none" stroke="none"/><text fill="#000000" stroke="none" font-family="Arial" font-size="13px" font-style="normal" font-weight="bold" text-decoration="none" x="126.06591796875" y="251.5">Phenotype</text></g></g><g transform="translate(-14,-222) scale(1,1)"><rect fill="#C0C0C0" stroke="none" x="79" y="351" width="170.13525390625" height="102" opacity="0.2"/></g><g transform="translate(-14,-222) scale(1,1)"><rect fill="#ffd8d8" stroke="none" x="72" y="344" width="170.13525390625" height="102"/></g><g transform="translate(-14,-222) scale(1,1)"><path fill="none" stroke="#000000" d="M 72 344 L 242.13525390625 344 L 242.13525390625 446 L 72 446 L 72 344 Z Z" stroke-miterlimit="10"/></g><g transform="translate(-14,-222) scale(1,1)"><path fill="none" stroke="#000000" d="M 72 369 L 242.13525390625 369" stroke-miterlimit="10"/></g><g transform="translate(-14,-222) scale(1,1)"><g><path fill="none" stroke="none"/><text fill="#000000" stroke="none" font-family="Arial" font-size="13px" font-style="normal" font-weight="bold" text-decoration="none" x="82.2890625" y="363.5">Observable Characteristic</text></g></g><g transform="translate(-14,-222) scale(1,1)"><g><path fill="none" stroke="none"/><text fill="#000000" stroke="none" font-family="Arial" font-size="13px" font-style="normal" font-weight="normal" text-decoration="none" x="77" y="386.5">+id: String</text></g></g><g transform="translate(-14,-222) scale(1,1)"><g><path fill="none" stroke="none"/><text fill="#000000" stroke="none" font-family="Arial" font-size="13px" font-style="normal" font-weight="normal" text-decoration="none" x="77" y="401.5">+name: String</text></g></g><g transform="translate(-14,-222) scale(1,1)"><g><path fill="none" stroke="none"/><text fill="#000000" stroke="none" font-family="Arial" font-size="13px" font-style="normal" font-weight="normal" text-decoration="none" x="77" y="416.5">+description: String</text></g></g><g transform="translate(-14,-222) scale(1,1)"><path fill="none" stroke="#000000" d="M 157 277 L 157 343" stroke-miterlimit="10"/></g><g transform="translate(-14,-222) scale(1,1)"><path fill="#FFFFFF" stroke="none" d="M 148.58096448796803 322.6746502847517 L 157 343 L 165.41903551203197 322.6746502847517"/></g><g transform="translate(-14,-222) scale(1,1)"><path fill="none" stroke="#000000" d="M 148.58096448796803 322.6746502847517 L 157 343 L 165.41903551203197 322.6746502847517 L 148.58096448796803 322.6746502847517" stroke-miterlimit="10"/></g><g transform="translate(-14,-222) scale(1,1)"><path fill="none" stroke="#000000" d="M 71 393 L 24 392 L 24 256 L 111 255" stroke-miterlimit="10"/></g><g transform="translate(-14,-222) scale(1,1)"><path fill="#FFFFFF" stroke="none" d="M 100.88637847683512 259.3260443463025 L 111 255 L 100.78961434563165 250.90756493160015 L 89.0014531523514 255.2528568603178"/></g><g transform="translate(-14,-222) scale(1,1)"><path fill="none" stroke="#000000" d="M 100.88637847683512 259.3260443463025 L 111 255 L 100.78961434563165 250.90756493160015 L 89.0014531523514 255.2528568603178 L 100.88637847683512 259.3260443463025" stroke-miterlimit="10"/></g><g transform="translate(-14,-222) scale(1,1)"><g><path fill="none" stroke="none"/><text fill="#000000" stroke="none" font-family="Arial" font-size="13px" font-style="normal" font-weight="normal" text-decoration="none" x="46.726806640625" y="386.5">*</text></g></g><g transform="translate(-14,-222) scale(1,1)"><rect fill="#C0C0C0" stroke="none" x="79" y="519" width="170.7890625" height="72" opacity="0.2"/></g><g transform="translate(-14,-222) scale(1,1)"><rect fill="#e2e2e2" stroke="none" x="72" y="512" width="170.7890625" height="72"/></g><g transform="translate(-14,-222) scale(1,1)"><path fill="none" stroke="#000000" d="M 72 512 L 242.7890625 512 L 242.7890625 584 L 72 584 L 72 512 Z Z" stroke-miterlimit="10"/></g><g transform="translate(-14,-222) scale(1,1)"><path fill="none" stroke="#000000" d="M 72 537 L 242.7890625 537" stroke-miterlimit="10"/></g><g transform="translate(-14,-222) scale(1,1)"><g><path fill="none" stroke="none"/><text fill="#000000" stroke="none" font-family="Arial" font-size="13px" font-style="normal" font-weight="bold" text-decoration="none" x="82.235107421875" y="531.5">Malfunction Consequence</text></g></g><g transform="translate(-14,-222) scale(1,1)"><g><path fill="none" stroke="none"/><text fill="#000000" stroke="none" font-family="Arial" font-size="13px" font-style="normal" font-weight="normal" text-decoration="none" x="77" y="554.5">+name: String</text></g></g><g transform="translate(-14,-222) scale(1,1)"><g><path fill="none" stroke="none"/><text fill="#000000" stroke="none" font-family="Arial" font-size="13px" font-style="normal" font-weight="normal" text-decoration="none" x="77" y="569.5">+description: String</text></g></g><g transform="translate(-14,-222) scale(1,1)"><path fill="none" stroke="#000000" d="M 157 447 L 157 511" stroke-miterlimit="10"/></g><g transform="translate(-14,-222) scale(1,1)"><g><path fill="none" stroke="none"/><text fill="#000000" stroke="none" font-family="Arial" font-size="13px" font-style="normal" font-weight="normal" text-decoration="none" x="141.5" y="474.5">*</text></g></g><g transform="translate(-14,-222) scale(1,1)"><g><path fill="none" stroke="none"/><text fill="#000000" stroke="none" font-family="Arial" font-size="13px" font-style="normal" font-weight="normal" text-decoration="none" x="141.5" y="495.5">*</text></g></g></g></svg>