<svg version="1.1" xmlns="http://www.w3.org/2000/svg" xmlns:xlink="http://www.w3.org/1999/xlink" width="421.16357421875" height="261"><defs/><g><g transform="translate(-1326,-1085) scale(1,1)"><rect fill="#C0C0C0" stroke="none" x="1599" y="1279" width="82.34716796875" height="57" opacity="0.2"/></g><g transform="translate(-1326,-1085) scale(1,1)"><rect fill="#fff5d8" stroke="none" x="1592" y="1272" width="82.34716796875" height="57"/></g><g transform="translate(-1326,-1085) scale(1,1)"><path fill="none" stroke="#000000" d="M 1592 1272 L 1674.34716796875 1272 L 1674.34716796875 1329 L 1592 1329 L 1592 1272 Z Z" stroke-miterlimit="10"/></g><g transform="translate(-1326,-1085) scale(1,1)"><path fill="none" stroke="#000000" d="M 1592 1297 L 1674.34716796875 1297" stroke-miterlimit="10"/></g><g transform="translate(-1326,-1085) scale(1,1)"><g><path fill="none" stroke="none"/><text fill="#000000" stroke="none" font-family="Arial" font-size="13px" font-style="normal" font-weight="bold" text-decoration="none" x="1608.2431640625" y="1291.5">Pathway</text></g></g><g transform="translate(-1326,-1085) scale(1,1)"><g><path fill="none" stroke="none"/><text fill="#000000" stroke="none" font-family="Arial" font-size="13px" font-style="normal" font-weight="normal" text-decoration="none" x="1597" y="1314.5">+type: String</text></g></g><g transform="translate(-1326,-1085) scale(1,1)"><rect fill="#C0C0C0" stroke="none" x="1583" y="1143" width="120.642578125" height="87" opacity="0.2"/></g><g transform="translate(-1326,-1085) scale(1,1)"><rect fill="#e2e2e2" stroke="none" x="1576" y="1136" width="120.642578125" height="87"/></g><g transform="translate(-1326,-1085) scale(1,1)"><path fill="none" stroke="#000000" d="M 1576 1136 L 1696.642578125 1136 L 1696.642578125 1223 L 1576 1223 L 1576 1136 Z Z" stroke-miterlimit="10"/></g><g transform="translate(-1326,-1085) scale(1,1)"><path fill="none" stroke="#000000" d="M 1576 1161 L 1696.642578125 1161" stroke-miterlimit="10"/></g><g transform="translate(-1326,-1085) scale(1,1)"><g><path fill="none" stroke="none"/><text fill="#000000" stroke="none" font-family="Arial" font-size="13px" font-style="normal" font-weight="bold" text-decoration="none" x="1619.699951171875" y="1155.5">Event</text></g></g><g transform="translate(-1326,-1085) scale(1,1)"><g><path fill="none" stroke="none"/><text fill="#000000" stroke="none" font-family="Arial" font-size="13px" font-style="normal" font-weight="normal" text-decoration="none" x="1581" y="1178.5">+id: String</text></g></g><g transform="translate(-1326,-1085) scale(1,1)"><g><path fill="none" stroke="none"/><text fill="#000000" stroke="none" font-family="Arial" font-size="13px" font-style="normal" font-weight="normal" text-decoration="none" x="1581" y="1193.5">+name: String</text></g></g><g transform="translate(-1326,-1085) scale(1,1)"><g><path fill="none" stroke="none"/><text fill="#000000" stroke="none" font-family="Arial" font-size="13px" font-style="normal" font-weight="normal" text-decoration="none" x="1581" y="1208.5">+description: String</text></g></g><g transform="translate(-1326,-1085) scale(1,1)"><path fill="none" stroke="#000000" d="M 1636 1136 L 1636 1115 L 1726 1115 L 1726 1179 L 1697 1179" stroke-miterlimit="10"/></g><g transform="translate(-1326,-1085) scale(1,1)"><g><path fill="none" stroke="none"/><text fill="#000000" stroke="none" font-family="Arial" font-size="13px" font-style="normal" font-weight="normal" text-decoration="none" x="1629.5" y="1107.5">+prev</text></g></g><g transform="translate(-1326,-1085) scale(1,1)"><g><path fill="none" stroke="none"/><text fill="#000000" stroke="none" font-family="Arial" font-size="13px" font-style="normal" font-weight="normal" text-decoration="none" x="1642.220458984375" y="1132.5">*</text></g></g><g transform="translate(-1326,-1085) scale(1,1)"><g><path fill="none" stroke="none"/><text fill="#000000" stroke="none" font-family="Arial" font-size="13px" font-style="normal" font-weight="normal" text-decoration="none" x="1705.5" y="1199.5">+post</text></g></g><g transform="translate(-1326,-1085) scale(1,1)"><g><path fill="none" stroke="none"/><text fill="#000000" stroke="none" font-family="Arial" font-size="13px" font-style="normal" font-weight="normal" text-decoration="none" x="1715.220458984375" y="1172.5">*</text></g></g><g transform="translate(-1326,-1085) scale(1,1)"><path fill="none" stroke="#000000" d="M 1634 1271 L 1635 1224" stroke-miterlimit="10"/></g><g transform="translate(-1326,-1085) scale(1,1)"><path fill="#FFFFFF" stroke="none" d="M 1642.984774139485 1244.4998385833014 L 1635 1224 L 1626.1505130647906 1244.1416628157547"/></g><g transform="translate(-1326,-1085) scale(1,1)"><path fill="none" stroke="#000000" d="M 1642.984774139485 1244.4998385833014 L 1635 1224 L 1626.1505130647906 1244.1416628157547 L 1642.984774139485 1244.4998385833014" stroke-miterlimit="10"/></g><g transform="translate(-1326,-1085) scale(1,1)"><rect fill="#C0C0C0" stroke="none" x="1343" y="1271" width="170.7890625" height="72" opacity="0.2"/></g><g transform="translate(-1326,-1085) scale(1,1)"><rect fill="#e2e2e2" stroke="none" x="1336" y="1264" width="170.7890625" height="72"/></g><g transform="translate(-1326,-1085) scale(1,1)"><path fill="none" stroke="#000000" d="M 1336 1264 L 1506.7890625 1264 L 1506.7890625 1336 L 1336 1336 L 1336 1264 Z Z" stroke-miterlimit="10"/></g><g transform="translate(-1326,-1085) scale(1,1)"><path fill="none" stroke="#000000" d="M 1336 1289 L 1506.7890625 1289" stroke-miterlimit="10"/></g><g transform="translate(-1326,-1085) scale(1,1)"><g><path fill="none" stroke="none"/><text fill="#000000" stroke="none" font-family="Arial" font-size="13px" font-style="normal" font-weight="bold" text-decoration="none" x="1346.235107421875" y="1283.5">Malfunction Consequence</text></g></g><g transform="translate(-1326,-1085) scale(1,1)"><g><path fill="none" stroke="none"/><text fill="#000000" stroke="none" font-family="Arial" font-size="13px" font-style="normal" font-weight="normal" text-decoration="none" x="1341" y="1306.5">+name: String</text></g></g><g transform="translate(-1326,-1085) scale(1,1)"><g><path fill="none" stroke="none"/><text fill="#000000" stroke="none" font-family="Arial" font-size="13px" font-style="normal" font-weight="normal" text-decoration="none" x="1341" y="1321.5">+description: String</text></g></g><g transform="translate(-1326,-1085) scale(1,1)"><path fill="none" stroke="#000000" d="M 1591 1300 L 1508 1300" stroke-miterlimit="10"/></g><g transform="translate(-1326,-1085) scale(1,1)"><g><path fill="none" stroke="none"/><text fill="#000000" stroke="none" font-family="Arial" font-size="13px" font-style="normal" font-weight="normal" text-decoration="none" x="1558.5" y="1293.5">0..1</text></g></g><g transform="translate(-1326,-1085) scale(1,1)"><g><path fill="none" stroke="none"/><text fill="#000000" stroke="none" font-family="Arial" font-size="13px" font-style="normal" font-weight="normal" text-decoration="none" x="1526.220458984375" y="1293.5">*</text></g></g></g></svg>