<svg version="1.1" xmlns="http://www.w3.org/2000/svg" 
xmlns:xlink="http://www.w3.org/1999/xlink" width="238.13525390625" 
height="234"><defs/><g><g transform="translate(-14,-222) scale(1,1)"><rect fill="#C0C0C0" stroke="none" x="119" y="239" width="90.29443359375" height="44" opacity="0.2"/></g><g transform="translate(-14,-222) scale(1,1)"><rect fill="#ffd8d8" stroke="none" x="112" y="232" width="90.29443359375" height="44"/></g><g transform="translate(-14,-222) scale(1,1)"><path fill="none" stroke="#000000" d="M 112 232 L 202.29443359375 232 L 202.29443359375 276 L 112 276 L 112 232 Z Z" stroke-miterlimit="10"/></g><g transform="translate(-14,-222) scale(1,1)"><path fill="none" stroke="#000000" d="M 112 257 L 202.29443359375 257" stroke-miterlimit="10"/></g><g transform="translate(-14,-222) scale(1,1)"><g><path fill="none" stroke="none"/><text fill="#000000" stroke="none" font-family="Arial" font-size="13px" font-style="normal" font-weight="bold" text-decoration="none" x="126.06591796875" y="251.5">Phenotype</text></g></g><g transform="translate(-14,-222) scale(1,1)"><rect fill="#C0C0C0" stroke="none" x="79" y="351" width="170.13525390625" height="102" opacity="0.2"/></g><g transform="translate(-14,-222) scale(1,1)"><rect fill="#e2e2e2" stroke="none" x="72" y="344" width="170.13525390625" height="102"/></g><g transform="translate(-14,-222) scale(1,1)"><path fill="none" stroke="#000000" d="M 72 344 L 242.13525390625 344 L 242.13525390625 446 L 72 446 L 72 344 Z Z" stroke-miterlimit="10"/></g><g transform="translate(-14,-222) scale(1,1)"><path fill="none" stroke="#000000" d="M 72 369 L 242.13525390625 369" stroke-miterlimit="10"/></g><g transform="translate(-14,-222) scale(1,1)"><g><path fill="none" stroke="none"/><text fill="#000000" stroke="none" font-family="Arial" font-size="13px" font-style="normal" font-weight="bold" text-decoration="none" x="82.2890625" y="363.5">Observable Characteristic</text></g></g><g transform="translate(-14,-222) scale(1,1)"><g><path fill="none" stroke="none"/><text fill="#000000" stroke="none" font-family="Arial" font-size="13px" font-style="normal" font-weight="normal" text-decoration="none" x="77" y="386.5">+id: String</text></g></g><g transform="translate(-14,-222) scale(1,1)"><g><path fill="none" stroke="none"/><text fill="#000000" stroke="none" font-family="Arial" font-size="13px" font-style="normal" font-weight="normal" text-decoration="none" x="77" y="401.5">+name: String</text></g></g><g transform="translate(-14,-222) scale(1,1)"><g><path fill="none" stroke="none"/><text fill="#000000" stroke="none" font-family="Arial" font-size="13px" font-style="normal" font-weight="normal" text-decoration="none" x="77" y="416.5">+description: String</text></g></g><g transform="translate(-14,-222) scale(1,1)"><path fill="none" stroke="#000000" d="M 157 277 L 157 343" stroke-miterlimit="10"/></g><g transform="translate(-14,-222) scale(1,1)"><path fill="#FFFFFF" stroke="none" d="M 148.58096448796803 322.6746502847517 L 157 343 L 165.41903551203197 322.6746502847517"/></g><g transform="translate(-14,-222) scale(1,1)"><path fill="none" stroke="#000000" d="M 148.58096448796803 322.6746502847517 L 157 343 L 165.41903551203197 322.6746502847517 L 148.58096448796803 322.6746502847517" stroke-miterlimit="10"/></g><g transform="translate(-14,-222) scale(1,1)"><path fill="none" stroke="#000000" d="M 71 393 L 24 392 L 24 256 L 111 255" stroke-miterlimit="10"/></g><g transform="translate(-14,-222) scale(1,1)"><path fill="#FFFFFF" stroke="none" d="M 100.88637847683512 259.3260443463025 L 111 255 L 100.78961434563165 250.90756493160015 L 89.0014531523514 255.2528568603178"/></g><g transform="translate(-14,-222) scale(1,1)"><path fill="none" stroke="#000000" d="M 100.88637847683512 259.3260443463025 L 111 255 L 100.78961434563165 250.90756493160015 L 89.0014531523514 255.2528568603178 L 100.88637847683512 259.3260443463025" stroke-miterlimit="10"/></g><g transform="translate(-14,-222) scale(1,1)"><g><path fill="none" stroke="none"/><text fill="#000000" stroke="none" font-family="Arial" font-size="13px" font-style="normal" font-weight="normal" text-decoration="none" x="46.726806640625" y="386.5">*</text></g></g></g></svg>