<svg version="1.1" xmlns="http://www.w3.org/2000/svg" xmlns:xlink="http://www.w3.org/1999/xlink" width="725.16357421875" height="667"><defs/><g><g transform="translate(-1022,-566) scale(1,1)"><rect fill="#C0C0C0" stroke="none" x="1287" y="903" width="114.1552734375" height="87" opacity="0.2"/></g><g transform="translate(-1022,-566) scale(1,1)"><rect fill="#d8ffd8" stroke="none" x="1280" y="896" width="114.1552734375" height="87"/></g><g transform="translate(-1022,-566) scale(1,1)"><path fill="none" stroke="#000000" d="M 1280 896 L 1394.1552734375 896 L 1394.1552734375 983 L 1280 983 L 1280 896 Z Z" stroke-miterlimit="10"/></g><g transform="translate(-1022,-566) scale(1,1)"><path fill="none" stroke="#000000" d="M 1280 921 L 1394.1552734375 921" stroke-miterlimit="10"/></g><g transform="translate(-1022,-566) scale(1,1)"><g><path fill="none" stroke="none"/><text fill="#000000" stroke="none" font-family="Arial" font-size="13px" font-style="normal" font-weight="bold" text-decoration="none" x="1316.482666015625" y="915.5">Protein</text></g></g><g transform="translate(-1022,-566) scale(1,1)"><g><path fill="none" stroke="none"/><text fill="#000000" stroke="none" font-family="Arial" font-size="13px" font-style="normal" font-weight="normal" text-decoration="none" x="1285" y="938.5">+id: String</text></g></g><g transform="translate(-1022,-566) scale(1,1)"><g><path fill="none" stroke="none"/><text fill="#000000" stroke="none" font-family="Arial" font-size="13px" font-style="normal" font-weight="normal" text-decoration="none" x="1285" y="953.5">+name: String</text></g></g><g transform="translate(-1022,-566) scale(1,1)"><g><path fill="none" stroke="none"/><text fill="#000000" stroke="none" font-family="Arial" font-size="13px" font-style="normal" font-weight="normal" text-decoration="none" x="1285" y="968.5">+sequence: String</text></g></g><g transform="translate(-1022,-566) scale(1,1)"><rect fill="#C0C0C0" stroke="none" x="1583" y="1143" width="120.642578125" height="87" opacity="0.2"/></g><g transform="translate(-1022,-566) scale(1,1)"><rect fill="#e2e2e2" stroke="none" x="1576" y="1136" width="120.642578125" height="87"/></g><g transform="translate(-1022,-566) scale(1,1)"><path fill="none" stroke="#000000" d="M 1576 1136 L 1696.642578125 1136 L 1696.642578125 1223 L 1576 1223 L 1576 1136 Z Z" stroke-miterlimit="10"/></g><g transform="translate(-1022,-566) scale(1,1)"><path fill="none" stroke="#000000" d="M 1576 1161 L 1696.642578125 1161" stroke-miterlimit="10"/></g><g transform="translate(-1022,-566) scale(1,1)"><g><path fill="none" stroke="none"/><text fill="#000000" stroke="none" font-family="Arial" font-size="13px" font-style="normal" font-weight="bold" text-decoration="none" x="1619.699951171875" y="1155.5">Event</text></g></g><g transform="translate(-1022,-566) scale(1,1)"><g><path fill="none" stroke="none"/><text fill="#000000" stroke="none" font-family="Arial" font-size="13px" font-style="normal" font-weight="normal" text-decoration="none" x="1581" y="1178.5">+id: String</text></g></g><g transform="translate(-1022,-566) scale(1,1)"><g><path fill="none" stroke="none"/><text fill="#000000" stroke="none" font-family="Arial" font-size="13px" font-style="normal" font-weight="normal" text-decoration="none" x="1581" y="1193.5">+name: String</text></g></g><g transform="translate(-1022,-566) scale(1,1)"><g><path fill="none" stroke="none"/><text fill="#000000" stroke="none" font-family="Arial" font-size="13px" font-style="normal" font-weight="normal" text-decoration="none" x="1581" y="1208.5">+description: String</text></g></g><g transform="translate(-1022,-566) scale(1,1)"><path fill="none" stroke="#000000" d="M 1636 1136 L 1636 1115 L 1726 1115 L 1726 1179 L 1697 1179" stroke-miterlimit="10"/></g><g transform="translate(-1022,-566) scale(1,1)"><g><path fill="none" stroke="none"/><text fill="#000000" stroke="none" font-family="Arial" font-size="13px" font-style="normal" font-weight="normal" text-decoration="none" x="1629.5" y="1107.5">+prev</text></g></g><g transform="translate(-1022,-566) scale(1,1)"><g><path fill="none" stroke="none"/><text fill="#000000" stroke="none" font-family="Arial" font-size="13px" font-style="normal" font-weight="normal" text-decoration="none" x="1642.220458984375" y="1132.5">*</text></g></g><g transform="translate(-1022,-566) scale(1,1)"><g><path fill="none" stroke="none"/><text fill="#000000" stroke="none" font-family="Arial" font-size="13px" font-style="normal" font-weight="normal" text-decoration="none" x="1705.5" y="1199.5">+post</text></g></g><g transform="translate(-1022,-566) scale(1,1)"><g><path fill="none" stroke="none"/><text fill="#000000" stroke="none" font-family="Arial" font-size="13px" font-style="normal" font-weight="normal" text-decoration="none" x="1715.220458984375" y="1172.5">*</text></g></g><g transform="translate(-1022,-566) scale(1,1)"><rect fill="#C0C0C0" stroke="none" x="1527" y="903" width="144" height="87" opacity="0.2"/></g><g transform="translate(-1022,-566) scale(1,1)"><rect fill="#e2e2e2" stroke="none" x="1520" y="896" width="144" height="87"/></g><g transform="translate(-1022,-566) scale(1,1)"><path fill="none" stroke="#000000" d="M 1520 896 L 1664 896 L 1664 983 L 1520 983 L 1520 896 Z Z" stroke-miterlimit="10"/></g><g transform="translate(-1022,-566) scale(1,1)"><path fill="none" stroke="#000000" d="M 1520 921 L 1664 921" stroke-miterlimit="10"/></g><g transform="translate(-1022,-566) scale(1,1)"><g><path fill="none" stroke="none"/><text fill="#000000" stroke="none" font-family="Arial" font-size="13px" font-style="normal" font-weight="bold" text-decoration="none" x="1534.5537109375" y="915.5">Cellular Component</text></g></g><g transform="translate(-1022,-566) scale(1,1)"><g><path fill="none" stroke="none"/><text fill="#000000" stroke="none" font-family="Arial" font-size="13px" font-style="normal" font-weight="normal" text-decoration="none" x="1525" y="938.5">+id: String</text></g></g><g transform="translate(-1022,-566) scale(1,1)"><g><path fill="none" stroke="none"/><text fill="#000000" stroke="none" font-family="Arial" font-size="13px" font-style="normal" font-weight="normal" text-decoration="none" x="1525" y="953.5">+name: String</text></g></g><g transform="translate(-1022,-566) scale(1,1)"><g><path fill="none" stroke="none"/><text fill="#000000" stroke="none" font-family="Arial" font-size="13px" font-style="normal" font-weight="normal" text-decoration="none" x="1525" y="968.5">+description: String</text></g></g><g transform="translate(-1022,-566) scale(1,1)"><rect fill="#C0C0C0" stroke="none" x="1271" y="583" width="152.2158203125" height="104" opacity="0.2"/></g><g transform="translate(-1022,-566) scale(1,1)"><rect fill="#e2e2e2" stroke="none" x="1264" y="576" width="152.2158203125" height="104"/></g><g transform="translate(-1022,-566) scale(1,1)"><path fill="none" stroke="#000000" d="M 1264 576 L 1416.2158203125 576 L 1416.2158203125 680 L 1264 680 L 1264 576 Z Z" stroke-miterlimit="10"/></g><g transform="translate(-1022,-566) scale(1,1)"><path fill="none" stroke="#000000" d="M 1264 601 L 1416.2158203125 601" stroke-miterlimit="10"/></g><g transform="translate(-1022,-566) scale(1,1)"><g><path fill="none" stroke="none"/><text fill="#000000" stroke="none" font-family="Arial" font-size="13px" font-style="normal" font-weight="bold" text-decoration="none" x="1297.835693359375" y="595.5">Mutant Protein</text></g></g><g transform="translate(-1022,-566) scale(1,1)"><g><path fill="none" stroke="none"/><text fill="#000000" stroke="none" font-family="Arial" font-size="13px" font-style="normal" font-weight="normal" text-decoration="none" x="1269" y="620.5">+reference_aa: String</text></g></g><g transform="translate(-1022,-566) scale(1,1)"><g><path fill="none" stroke="none"/><text fill="#000000" stroke="none" font-family="Arial" font-size="13px" font-style="normal" font-weight="normal" text-decoration="none" x="1269" y="635.5">+alternative_aa: String</text></g></g><g transform="translate(-1022,-566) scale(1,1)"><g><path fill="none" stroke="none"/><text fill="#000000" stroke="none" font-family="Arial" font-size="13px" font-style="normal" font-weight="normal" text-decoration="none" x="1269" y="650.5">+start: Long</text></g></g><g transform="translate(-1022,-566) scale(1,1)"><g><path fill="none" stroke="none"/><text fill="#000000" stroke="none" font-family="Arial" font-size="13px" font-style="normal" font-weight="normal" text-decoration="none" x="1269" y="665.5">+end: Long</text></g></g><g transform="translate(-1022,-566) scale(1,1)"><path fill="none" stroke="#000000" d="M 1339 681 L 1337 895" stroke-miterlimit="10"/></g><g transform="translate(-1022,-566) scale(1,1)"><path fill="#FFFFFF" stroke="none" d="M 1328.771280383636 874.5968587351049 L 1337 895 L 1345.6086161047006 874.7542170128718"/></g><g transform="translate(-1022,-566) scale(1,1)"><path fill="none" stroke="#000000" d="M 1328.771280383636 874.5968587351049 L 1337 895 L 1345.6086161047006 874.7542170128718 L 1328.771280383636 874.5968587351049" stroke-miterlimit="10"/></g><g transform="translate(-1022,-566) scale(1,1)"><path fill="none" stroke="#000000" d="M 1395 939 L 1519 939" stroke-miterlimit="10"/></g><g transform="translate(-1022,-566) scale(1,1)"><g><path fill="none" stroke="none"/><text fill="#000000" stroke="none" font-family="Arial" font-size="13px" font-style="normal" font-weight="normal" text-decoration="none" x="1425.5" y="924.5">+Is part of</text></g></g><g transform="translate(-1022,-566) scale(1,1)"><g><path fill="none" stroke="none"/><text fill="#000000" stroke="none" font-family="Arial" font-size="13px" font-style="normal" font-weight="normal" text-decoration="none" x="1413.726806640625" y="957.5">*</text></g></g><g transform="translate(-1022,-566) scale(1,1)"><g><path fill="none" stroke="none"/><text fill="#000000" stroke="none" font-family="Arial" font-size="13px" font-style="normal" font-weight="normal" text-decoration="none" x="1494.220458984375" y="957.5">*</text></g></g><g transform="translate(-1022,-566) scale(1,1)"><rect fill="#C0C0C0" stroke="none" x="1039" y="919" width="74.919921875" height="44" opacity="0.2"/></g><g transform="translate(-1022,-566) scale(1,1)"><rect fill="#e2e2e2" stroke="none" x="1032" y="912" width="74.919921875" height="44"/></g><g transform="translate(-1022,-566) scale(1,1)"><path fill="none" stroke="#000000" d="M 1032 912 L 1106.919921875 912 L 1106.919921875 956 L 1032 956 L 1032 912 Z Z" stroke-miterlimit="10"/></g><g transform="translate(-1022,-566) scale(1,1)"><path fill="none" stroke="#000000" d="M 1032 937 L 1106.919921875 937" stroke-miterlimit="10"/></g><g transform="translate(-1022,-566) scale(1,1)"><g><path fill="none" stroke="none"/><text fill="#000000" stroke="none" font-family="Arial" font-size="13px" font-style="normal" font-weight="bold" text-decoration="none" x="1050.32177734375" y="931.5">mRNA</text></g></g><g transform="translate(-1022,-566) scale(1,1)"><rect fill="#C0C0C0" stroke="none" x="1087" y="1039" width="152" height="72" opacity="0.2"/></g><g transform="translate(-1022,-566) scale(1,1)"><rect fill="#e2e2e2" stroke="none" x="1080" y="1032" width="152" height="72"/></g><g transform="translate(-1022,-566) scale(1,1)"><path fill="none" stroke="#000000" d="M 1080 1032 L 1232 1032 L 1232 1104 L 1080 1104 L 1080 1032 Z Z" stroke-miterlimit="10"/></g><g transform="translate(-1022,-566) scale(1,1)"><path fill="none" stroke="#000000" d="M 1080 1057 L 1232 1057" stroke-miterlimit="10"/></g><g transform="translate(-1022,-566) scale(1,1)"><g><path fill="none" stroke="none"/><text fill="#000000" stroke="none" font-family="Arial" font-size="13px" font-style="normal" font-weight="bold" text-decoration="none" x="1092.412353515625" y="1051.5">Molecular Component</text></g></g><g transform="translate(-1022,-566) scale(1,1)"><g><path fill="none" stroke="none"/><text fill="#000000" stroke="none" font-family="Arial" font-size="13px" font-style="normal" font-weight="normal" text-decoration="none" x="1085" y="1074.5">+id: String</text></g></g><g transform="translate(-1022,-566) scale(1,1)"><g><path fill="none" stroke="none"/><text fill="#000000" stroke="none" font-family="Arial" font-size="13px" font-style="normal" font-weight="normal" text-decoration="none" x="1085" y="1089.5">+name: String</text></g></g><g transform="translate(-1022,-566) scale(1,1)"><path fill="none" stroke="#000000" d="M 1146 1104 L 1146 1136 L 1040 1136 L 1040 1060 L 1080 1060" stroke-miterlimit="10"/></g><g transform="translate(-1022,-566) scale(1,1)"><path fill="#FFFFFF" stroke="none" d="M 1069.837325142376 1064.2095177560159 L 1080 1060 L 1069.837325142376 1055.7904822439841 L 1058 1060"/></g><g transform="translate(-1022,-566) scale(1,1)"><path fill="none" stroke="#000000" d="M 1069.837325142376 1064.2095177560159 L 1080 1060 L 1069.837325142376 1055.7904822439841 L 1058 1060 L 1069.837325142376 1064.2095177560159" stroke-miterlimit="10"/></g><g transform="translate(-1022,-566) scale(1,1)"><g><path fill="none" stroke="none"/><text fill="#000000" stroke="none" font-family="Arial" font-size="13px" font-style="normal" font-weight="normal" text-decoration="none" x="1130.726806640625" y="1131.5">*</text></g></g><g transform="translate(-1022,-566) scale(1,1)"><path fill="none" stroke="#000000" d="M 1279 980 L 1208 1031" stroke-miterlimit="10"/></g><g transform="translate(-1022,-566) scale(1,1)"><path fill="#FFFFFF" stroke="none" d="M 1213.7981355785496 1021.6521861479404 L 1208 1031 L 1218.7098035498923 1028.4899984217705 L 1225.868064555527 1018.1651930657482"/></g><g transform="translate(-1022,-566) scale(1,1)"><path fill="none" stroke="#000000" d="M 1213.7981355785496 1021.6521861479404 L 1208 1031 L 1218.7098035498923 1028.4899984217705 L 1225.868064555527 1018.1651930657482 L 1213.7981355785496 1021.6521861479404" stroke-miterlimit="10"/></g><g transform="translate(-1022,-566) scale(1,1)"><g><path fill="none" stroke="none"/><text fill="#000000" stroke="none" font-family="Arial" font-size="13px" font-style="normal" font-weight="normal" text-decoration="none" x="1251.726806640625" y="988.5">*</text></g></g><g transform="translate(-1022,-566) scale(1,1)"><rect fill="#C0C0C0" stroke="none" x="1471" y="735" width="120.642578125" height="72" opacity="0.2"/></g><g transform="translate(-1022,-566) scale(1,1)"><rect fill="#e2e2e2" stroke="none" x="1464" y="728" width="120.642578125" height="72"/></g><g transform="translate(-1022,-566) scale(1,1)"><path fill="none" stroke="#000000" d="M 1464 728 L 1584.642578125 728 L 1584.642578125 800 L 1464 800 L 1464 728 Z Z" stroke-miterlimit="10"/></g><g transform="translate(-1022,-566) scale(1,1)"><path fill="none" stroke="#000000" d="M 1464 753 L 1584.642578125 753" stroke-miterlimit="10"/></g><g transform="translate(-1022,-566) scale(1,1)"><g><path fill="none" stroke="none"/><text fill="#000000" stroke="none" font-family="Arial" font-size="13px" font-style="normal" font-weight="bold" text-decoration="none" x="1500.84130859375" y="747.5">Enzyme</text></g></g><g transform="translate(-1022,-566) scale(1,1)"><g><path fill="none" stroke="none"/><text fill="#000000" stroke="none" font-family="Arial" font-size="13px" font-style="normal" font-weight="normal" text-decoration="none" x="1469" y="770.5">+enzyme_id: String</text></g></g><g transform="translate(-1022,-566) scale(1,1)"><g><path fill="none" stroke="none"/><text fill="#000000" stroke="none" font-family="Arial" font-size="13px" font-style="normal" font-weight="normal" text-decoration="none" x="1469" y="785.5">+class: String</text></g></g><g transform="translate(-1022,-566) scale(1,1)"><path fill="none" stroke="#000000" d="M 1484 801 L 1384 895" stroke-miterlimit="10"/></g><g transform="translate(-1022,-566) scale(1,1)"><path fill="#FFFFFF" stroke="none" d="M 1393.0433304962764 874.9446223287838 L 1384 895 L 1404.5758938690024 887.213306767854"/></g><g transform="translate(-1022,-566) scale(1,1)"><path fill="none" stroke="#000000" d="M 1393.0433304962764 874.9446223287838 L 1384 895 L 1404.5758938690024 887.213306767854 L 1393.0433304962764 874.9446223287838" stroke-miterlimit="10"/></g><g transform="translate(-1022,-566) scale(1,1)"><rect fill="#C0C0C0" stroke="none" x="1463" y="583" width="139.4443359375" height="102" opacity="0.2"/></g><g transform="translate(-1022,-566) scale(1,1)"><rect fill="#e2e2e2" stroke="none" x="1456" y="576" width="139.4443359375" height="102"/></g><g transform="translate(-1022,-566) scale(1,1)"><path fill="none" stroke="#000000" d="M 1456 576 L 1595.4443359375 576 L 1595.4443359375 678 L 1456 678 L 1456 576 Z Z" stroke-miterlimit="10"/></g><g transform="translate(-1022,-566) scale(1,1)"><path fill="none" stroke="#000000" d="M 1456 601 L 1595.4443359375 601" stroke-miterlimit="10"/></g><g transform="translate(-1022,-566) scale(1,1)"><g><path fill="none" stroke="none"/><text fill="#000000" stroke="none" font-family="Arial" font-size="13px" font-style="normal" font-weight="bold" text-decoration="none" x="1480.56494140625" y="595.5">Mutant Enzyme</text></g></g><g transform="translate(-1022,-566) scale(1,1)"><g><path fill="none" stroke="none"/><text fill="#000000" stroke="none" font-family="Arial" font-size="13px" font-style="normal" font-weight="normal" text-decoration="none" x="1461" y="618.5">+reference_aa: String</text></g></g><g transform="translate(-1022,-566) scale(1,1)"><g><path fill="none" stroke="none"/><text fill="#000000" stroke="none" font-family="Arial" font-size="13px" font-style="normal" font-weight="normal" text-decoration="none" x="1461" y="633.5">+alternative_aa: String</text></g></g><g transform="translate(-1022,-566) scale(1,1)"><g><path fill="none" stroke="none"/><text fill="#000000" stroke="none" font-family="Arial" font-size="13px" font-style="normal" font-weight="normal" text-decoration="none" x="1461" y="648.5">+start: Long</text></g></g><g transform="translate(-1022,-566) scale(1,1)"><g><path fill="none" stroke="none"/><text fill="#000000" stroke="none" font-family="Arial" font-size="13px" font-style="normal" font-weight="normal" text-decoration="none" x="1461" y="663.5">+end: Long</text></g></g><g transform="translate(-1022,-566) scale(1,1)"><path fill="none" stroke="#000000" d="M 1525 679 L 1524 727" stroke-miterlimit="10"/></g><g transform="translate(-1022,-566) scale(1,1)"><path fill="#FFFFFF" stroke="none" d="M 1516.0061438633152 706.5037012105603 L 1524 727 L 1532.840561981159 706.8544182546821"/></g><g transform="translate(-1022,-566) scale(1,1)"><path fill="none" stroke="#000000" d="M 1516.0061438633152 706.5037012105603 L 1524 727 L 1532.840561981159 706.8544182546821 L 1516.0061438633152 706.5037012105603" stroke-miterlimit="10"/></g><g transform="translate(-1022,-566) scale(1,1)"><path fill="none" stroke="#000000" d="M 1108 935 L 1279 938" stroke-miterlimit="10"/></g><g transform="translate(-1022,-566) scale(1,1)"><g><path fill="none" stroke="none"/><text fill="#000000" stroke="none" font-family="Arial" font-size="13px" font-style="normal" font-weight="normal" text-decoration="none" x="1137.5" y="927.5">+Is transcribed into</text></g></g><g transform="translate(-1022,-566) scale(1,1)"><g><path fill="none" stroke="none"/><text fill="#000000" stroke="none" font-family="Arial" font-size="13px" font-style="normal" font-weight="normal" text-decoration="none" x="1125.5" y="953.5">1</text></g></g><g transform="translate(-1022,-566) scale(1,1)"><g><path fill="none" stroke="none"/><text fill="#000000" stroke="none" font-family="Arial" font-size="13px" font-style="normal" font-weight="normal" text-decoration="none" x="1253.5" y="956.5">1</text></g></g><g transform="translate(-1022,-566) scale(1,1)"><path fill="none" stroke="#000000" d="M 1393 984 L 1581 1135" stroke-miterlimit="10"/></g><g transform="translate(-1022,-566) scale(1,1)"><g><path fill="none" stroke="none"/><text fill="#000000" stroke="none" font-family="Arial" font-size="13px" font-style="normal" font-weight="normal" text-decoration="none" x="1399.726806640625" y="1013.5">*</text></g></g><g transform="translate(-1022,-566) scale(1,1)"><g><path fill="none" stroke="none"/><text fill="#000000" stroke="none" font-family="Arial" font-size="13px" font-style="normal" font-weight="normal" text-decoration="none" x="1553.726806640625" y="1137.5">*</text></g></g><g transform="translate(-1022,-566) scale(1,1)"><path fill="none" stroke="#000000" d="M 1527 1050 L 1487 1059" stroke-miterlimit="10" stroke-dasharray="3"/></g><g transform="translate(-1022,-566) scale(1,1)"><rect fill="#C0C0C0" stroke="none" x="1535" y="1015" width="124.603515625" height="57" opacity="0.2"/></g><g transform="translate(-1022,-566) scale(1,1)"><rect fill="#e2e2e2" stroke="none" x="1528" y="1008" width="124.603515625" height="57"/></g><g transform="translate(-1022,-566) scale(1,1)"><path fill="none" stroke="#000000" d="M 1528 1008 L 1652.603515625 1008 L 1652.603515625 1065 L 1528 1065 L 1528 1008 Z Z" stroke-miterlimit="10"/></g><g transform="translate(-1022,-566) scale(1,1)"><path fill="none" stroke="#000000" d="M 1528 1033 L 1652.603515625 1033" stroke-miterlimit="10"/></g><g transform="translate(-1022,-566) scale(1,1)"><g><path fill="none" stroke="none"/><text fill="#000000" stroke="none" font-family="Arial" font-size="13px" font-style="normal" font-weight="bold" text-decoration="none" x="1559.594970703125" y="1027.5">Takes Part</text></g></g><g transform="translate(-1022,-566) scale(1,1)"><g><path fill="none" stroke="none"/><text fill="#000000" stroke="none" font-family="Arial" font-size="13px" font-style="normal" font-weight="normal" text-decoration="none" x="1533" y="1050.5">+role: String</text></g></g></g></svg>