<svg version="1.1" xmlns="http://www.w3.org/2000/svg" xmlns:xlink="http://www.w3.org/1999/xlink" width="829.16357421875" height="397"><defs/><g><g transform="translate(-918,-886) scale(1,1)"><rect fill="#C0C0C0" stroke="none" x="1287" y="903" width="114.1552734375" height="87" opacity="0.2"/></g><g transform="translate(-918,-886) scale(1,1)"><rect fill="#e2e2e2" stroke="none" x="1280" y="896" width="114.1552734375" height="87"/></g><g transform="translate(-918,-886) scale(1,1)"><path fill="none" stroke="#000000" d="M 1280 896 L 1394.1552734375 896 L 1394.1552734375 983 L 1280 983 L 1280 896 Z Z" stroke-miterlimit="10"/></g><g transform="translate(-918,-886) scale(1,1)"><path fill="none" stroke="#000000" d="M 1280 921 L 1394.1552734375 921" stroke-miterlimit="10"/></g><g transform="translate(-918,-886) scale(1,1)"><g><path fill="none" stroke="none"/><text fill="#000000" stroke="none" font-family="Arial" font-size="13px" font-style="normal" font-weight="bold" text-decoration="none" x="1316.482666015625" y="915.5">Protein</text></g></g><g transform="translate(-918,-886) scale(1,1)"><g><path fill="none" stroke="none"/><text fill="#000000" stroke="none" font-family="Arial" font-size="13px" font-style="normal" font-weight="normal" text-decoration="none" x="1285" y="938.5">+id: String</text></g></g><g transform="translate(-918,-886) scale(1,1)"><g><path fill="none" stroke="none"/><text fill="#000000" stroke="none" font-family="Arial" font-size="13px" font-style="normal" font-weight="normal" text-decoration="none" x="1285" y="953.5">+name: String</text></g></g><g transform="translate(-918,-886) scale(1,1)"><g><path fill="none" stroke="none"/><text fill="#000000" stroke="none" font-family="Arial" font-size="13px" font-style="normal" font-weight="normal" text-decoration="none" x="1285" y="968.5">+sequence: String</text></g></g><g transform="translate(-918,-886) scale(1,1)"><rect fill="#C0C0C0" stroke="none" x="1583" y="1143" width="120.642578125" height="87" opacity="0.2"/></g><g transform="translate(-918,-886) scale(1,1)"><rect fill="#e2e2e2" stroke="none" x="1576" y="1136" width="120.642578125" height="87"/></g><g transform="translate(-918,-886) scale(1,1)"><path fill="none" stroke="#000000" d="M 1576 1136 L 1696.642578125 1136 L 1696.642578125 1223 L 1576 1223 L 1576 1136 Z Z" stroke-miterlimit="10"/></g><g transform="translate(-918,-886) scale(1,1)"><path fill="none" stroke="#000000" d="M 1576 1161 L 1696.642578125 1161" stroke-miterlimit="10"/></g><g transform="translate(-918,-886) scale(1,1)"><g><path fill="none" stroke="none"/><text fill="#000000" stroke="none" font-family="Arial" font-size="13px" font-style="normal" font-weight="bold" text-decoration="none" x="1619.699951171875" y="1155.5">Event</text></g></g><g transform="translate(-918,-886) scale(1,1)"><g><path fill="none" stroke="none"/><text fill="#000000" stroke="none" font-family="Arial" font-size="13px" font-style="normal" font-weight="normal" text-decoration="none" x="1581" y="1178.5">+id: String</text></g></g><g transform="translate(-918,-886) scale(1,1)"><g><path fill="none" stroke="none"/><text fill="#000000" stroke="none" font-family="Arial" font-size="13px" font-style="normal" font-weight="normal" text-decoration="none" x="1581" y="1193.5">+name: String</text></g></g><g transform="translate(-918,-886) scale(1,1)"><g><path fill="none" stroke="none"/><text fill="#000000" stroke="none" font-family="Arial" font-size="13px" font-style="normal" font-weight="normal" text-decoration="none" x="1581" y="1208.5">+description: String</text></g></g><g transform="translate(-918,-886) scale(1,1)"><path fill="none" stroke="#000000" d="M 1636 1136 L 1636 1115 L 1726 1115 L 1726 1179 L 1697 1179" stroke-miterlimit="10"/></g><g transform="translate(-918,-886) scale(1,1)"><g><path fill="none" stroke="none"/><text fill="#000000" stroke="none" font-family="Arial" font-size="13px" font-style="normal" font-weight="normal" text-decoration="none" x="1629.5" y="1107.5">+prev</text></g></g><g transform="translate(-918,-886) scale(1,1)"><g><path fill="none" stroke="none"/><text fill="#000000" stroke="none" font-family="Arial" font-size="13px" font-style="normal" font-weight="normal" text-decoration="none" x="1642.220458984375" y="1132.5">*</text></g></g><g transform="translate(-918,-886) scale(1,1)"><g><path fill="none" stroke="none"/><text fill="#000000" stroke="none" font-family="Arial" font-size="13px" font-style="normal" font-weight="normal" text-decoration="none" x="1705.5" y="1199.5">+post</text></g></g><g transform="translate(-918,-886) scale(1,1)"><g><path fill="none" stroke="none"/><text fill="#000000" stroke="none" font-family="Arial" font-size="13px" font-style="normal" font-weight="normal" text-decoration="none" x="1715.220458984375" y="1172.5">*</text></g></g><g transform="translate(-918,-886) scale(1,1)"><rect fill="#C0C0C0" stroke="none" x="935" y="927" width="80" height="44" opacity="0.2"/></g><g transform="translate(-918,-886) scale(1,1)"><rect fill="#e2e2e2" stroke="none" x="928" y="920" width="80" height="44"/></g><g transform="translate(-918,-886) scale(1,1)"><path fill="none" stroke="#000000" d="M 928 920 L 1008 920 L 1008 964 L 928 964 L 928 920 Z Z" stroke-miterlimit="10"/></g><g transform="translate(-918,-886) scale(1,1)"><path fill="none" stroke="#000000" d="M 928 945 L 1008 945" stroke-miterlimit="10"/></g><g transform="translate(-918,-886) scale(1,1)"><g><path fill="none" stroke="none"/><text fill="#000000" stroke="none" font-family="Arial" font-size="13px" font-style="normal" font-weight="bold" text-decoration="none" x="947.411376953125" y="939.5">ncRNA</text></g></g><g transform="translate(-918,-886) scale(1,1)"><rect fill="#C0C0C0" stroke="none" x="1087" y="1039" width="152" height="72" opacity="0.2"/></g><g transform="translate(-918,-886) scale(1,1)"><rect fill="#e2e2e2" stroke="none" x="1080" y="1032" width="152" height="72"/></g><g transform="translate(-918,-886) scale(1,1)"><path fill="none" stroke="#000000" d="M 1080 1032 L 1232 1032 L 1232 1104 L 1080 1104 L 1080 1032 Z Z" stroke-miterlimit="10"/></g><g transform="translate(-918,-886) scale(1,1)"><path fill="none" stroke="#000000" d="M 1080 1057 L 1232 1057" stroke-miterlimit="10"/></g><g transform="translate(-918,-886) scale(1,1)"><g><path fill="none" stroke="none"/><text fill="#000000" stroke="none" font-family="Arial" font-size="13px" font-style="normal" font-weight="bold" text-decoration="none" x="1092.412353515625" y="1051.5">Molecular Component</text></g></g><g transform="translate(-918,-886) scale(1,1)"><g><path fill="none" stroke="none"/><text fill="#000000" stroke="none" font-family="Arial" font-size="13px" font-style="normal" font-weight="normal" text-decoration="none" x="1085" y="1074.5">+id: String</text></g></g><g transform="translate(-918,-886) scale(1,1)"><g><path fill="none" stroke="none"/><text fill="#000000" stroke="none" font-family="Arial" font-size="13px" font-style="normal" font-weight="normal" text-decoration="none" x="1085" y="1089.5">+name: String</text></g></g><g transform="translate(-918,-886) scale(1,1)"><path fill="none" stroke="#000000" d="M 1146 1104 L 1146 1136 L 1040 1136 L 1040 1060 L 1080 1060" stroke-miterlimit="10"/></g><g transform="translate(-918,-886) scale(1,1)"><path fill="#FFFFFF" stroke="none" d="M 1069.837325142376 1064.2095177560159 L 1080 1060 L 1069.837325142376 1055.7904822439841 L 1058 1060"/></g><g transform="translate(-918,-886) scale(1,1)"><path fill="none" stroke="#000000" d="M 1069.837325142376 1064.2095177560159 L 1080 1060 L 1069.837325142376 1055.7904822439841 L 1058 1060 L 1069.837325142376 1064.2095177560159" stroke-miterlimit="10"/></g><g transform="translate(-918,-886) scale(1,1)"><g><path fill="none" stroke="none"/><text fill="#000000" stroke="none" font-family="Arial" font-size="13px" font-style="normal" font-weight="normal" text-decoration="none" x="1130.726806640625" y="1131.5">*</text></g></g><g transform="translate(-918,-886) scale(1,1)"><rect fill="#C0C0C0" stroke="none" x="1215" y="1223" width="124.603515625" height="57" opacity="0.2"/></g><g transform="translate(-918,-886) scale(1,1)"><rect fill="#fff5d8" stroke="none" x="1208" y="1216" width="124.603515625" height="57"/></g><g transform="translate(-918,-886) scale(1,1)"><path fill="none" stroke="#000000" d="M 1208 1216 L 1332.603515625 1216 L 1332.603515625 1273 L 1208 1273 L 1208 1216 Z Z" stroke-miterlimit="10"/></g><g transform="translate(-918,-886) scale(1,1)"><path fill="none" stroke="#000000" d="M 1208 1241 L 1332.603515625 1241" stroke-miterlimit="10"/></g><g transform="translate(-918,-886) scale(1,1)"><g><path fill="none" stroke="none"/><text fill="#000000" stroke="none" font-family="Arial" font-size="13px" font-style="normal" font-weight="bold" text-decoration="none" x="1239.594970703125" y="1235.5">Takes Part</text></g></g><g transform="translate(-918,-886) scale(1,1)"><g><path fill="none" stroke="none"/><text fill="#000000" stroke="none" font-family="Arial" font-size="13px" font-style="normal" font-weight="normal" text-decoration="none" x="1213" y="1258.5">+role: String</text></g></g><g transform="translate(-918,-886) scale(1,1)"><path fill="none" stroke="#000000" d="M 968 965 L 968 1176 L 1575 1179" stroke-miterlimit="10"/></g><g transform="translate(-918,-886) scale(1,1)"><g><path fill="none" stroke="none"/><text fill="#000000" stroke="none" font-family="Arial" font-size="13px" font-style="normal" font-weight="normal" text-decoration="none" x="952.726806640625" y="992.5">*</text></g></g><g transform="translate(-918,-886) scale(1,1)"><g><path fill="none" stroke="none"/><text fill="#000000" stroke="none" font-family="Arial" font-size="13px" font-style="normal" font-weight="normal" text-decoration="none" x="1550.726806640625" y="1197.5">*</text></g></g><g transform="translate(-918,-886) scale(1,1)"><path fill="none" stroke="#000000" d="M 1270 1215 L 1271 1177" stroke-miterlimit="10" stroke-dasharray="3"/></g><g transform="translate(-918,-886) scale(1,1)"><path fill="none" stroke="#000000" d="M 1393 984 L 1581 1135" stroke-miterlimit="10"/></g><g transform="translate(-918,-886) scale(1,1)"><g><path fill="none" stroke="none"/><text fill="#000000" stroke="none" font-family="Arial" font-size="13px" font-style="normal" font-weight="normal" text-decoration="none" x="1399.726806640625" y="1013.5">*</text></g></g><g transform="translate(-918,-886) scale(1,1)"><g><path fill="none" stroke="none"/><text fill="#000000" stroke="none" font-family="Arial" font-size="13px" font-style="normal" font-weight="normal" text-decoration="none" x="1553.726806640625" y="1137.5">*</text></g></g><g transform="translate(-918,-886) scale(1,1)"><path fill="none" stroke="#000000" d="M 1527 1050 L 1487 1059" stroke-miterlimit="10" stroke-dasharray="3"/></g><g transform="translate(-918,-886) scale(1,1)"><rect fill="#C0C0C0" stroke="none" x="1535" y="1015" width="124.603515625" height="57" opacity="0.2"/></g><g transform="translate(-918,-886) scale(1,1)"><rect fill="#fff5d8" stroke="none" x="1528" y="1008" width="124.603515625" height="57"/></g><g transform="translate(-918,-886) scale(1,1)"><path fill="none" stroke="#000000" d="M 1528 1008 L 1652.603515625 1008 L 1652.603515625 1065 L 1528 1065 L 1528 1008 Z Z" stroke-miterlimit="10"/></g><g transform="translate(-918,-886) scale(1,1)"><path fill="none" stroke="#000000" d="M 1528 1033 L 1652.603515625 1033" stroke-miterlimit="10"/></g><g transform="translate(-918,-886) scale(1,1)"><g><path fill="none" stroke="none"/><text fill="#000000" stroke="none" font-family="Arial" font-size="13px" font-style="normal" font-weight="bold" text-decoration="none" x="1559.594970703125" y="1027.5">Takes Part</text></g></g><g transform="translate(-918,-886) scale(1,1)"><g><path fill="none" stroke="none"/><text fill="#000000" stroke="none" font-family="Arial" font-size="13px" font-style="normal" font-weight="normal" text-decoration="none" x="1533" y="1050.5">+role: String</text></g></g><g transform="translate(-918,-886) scale(1,1)"><path fill="none" stroke="#000000" d="M 1233 1086 L 1575 1165" stroke-miterlimit="10"/></g><g transform="translate(-918,-886) scale(1,1)"><g><path fill="none" stroke="none"/><text fill="#000000" stroke="none" font-family="Arial" font-size="13px" font-style="normal" font-weight="normal" text-decoration="none" x="1248.726806640625" y="1109.5">*</text></g></g><g transform="translate(-918,-886) scale(1,1)"><g><path fill="none" stroke="none"/><text fill="#000000" stroke="none" font-family="Arial" font-size="13px" font-style="normal" font-weight="normal" text-decoration="none" x="1548.726806640625" y="1178.5">*</text></g></g><g transform="translate(-918,-886) scale(1,1)"><path fill="none" stroke="#000000" d="M 1392 1090 L 1404 1125" stroke-miterlimit="10" stroke-dasharray="3"/></g><g transform="translate(-918,-886) scale(1,1)"><rect fill="#C0C0C0" stroke="none" x="1327" y="1039" width="124.603515625" height="57" opacity="0.2"/></g><g transform="translate(-918,-886) scale(1,1)"><rect fill="#fff5d8" stroke="none" x="1320" y="1032" width="124.603515625" height="57"/></g><g transform="translate(-918,-886) scale(1,1)"><path fill="none" stroke="#000000" d="M 1320 1032 L 1444.603515625 1032 L 1444.603515625 1089 L 1320 1089 L 1320 1032 Z Z" stroke-miterlimit="10"/></g><g transform="translate(-918,-886) scale(1,1)"><path fill="none" stroke="#000000" d="M 1320 1057 L 1444.603515625 1057" stroke-miterlimit="10"/></g><g transform="translate(-918,-886) scale(1,1)"><g><path fill="none" stroke="none"/><text fill="#000000" stroke="none" font-family="Arial" font-size="13px" font-style="normal" font-weight="bold" text-decoration="none" x="1351.594970703125" y="1051.5">Takes Part</text></g></g><g transform="translate(-918,-886) scale(1,1)"><g><path fill="none" stroke="none"/><text fill="#000000" stroke="none" font-family="Arial" font-size="13px" font-style="normal" font-weight="normal" text-decoration="none" x="1325" y="1074.5">+role: String</text></g></g></g></svg>