<svg version="1.1" xmlns="http://www.w3.org/2000/svg" xmlns:xlink="http://www.w3.org/1999/xlink" width="455.6953125" height="252"><defs/><g><g transform="translate(-734,-742) scale(1,1)"><rect fill="#C0C0C0" stroke="none" x="1087" y="759" width="99.6953125" height="87" opacity="0.2"/></g><g transform="translate(-734,-742) scale(1,1)"><rect fill="#e2e2e2" stroke="none" x="1080" y="752" width="99.6953125" height="87"/></g><g transform="translate(-734,-742) scale(1,1)"><path fill="none" stroke="#000000" d="M 1080 752 L 1179.6953125 752 L 1179.6953125 839 L 1080 839 L 1080 752 Z Z" stroke-miterlimit="10"/></g><g transform="translate(-734,-742) scale(1,1)"><path fill="none" stroke="#000000" d="M 1080 777 L 1179.6953125 777" stroke-miterlimit="10"/></g><g transform="translate(-734,-742) scale(1,1)"><g><path fill="none" stroke="none"/><text fill="#000000" stroke="none" font-family="Arial" font-size="13px" font-style="normal" font-weight="bold" text-decoration="none" x="1113.94677734375" y="771.5">Gene</text></g></g><g transform="translate(-734,-742) scale(1,1)"><g><path fill="none" stroke="none"/><text fill="#000000" stroke="none" font-family="Arial" font-size="13px" font-style="normal" font-weight="normal" text-decoration="none" x="1085" y="794.5">+name: String</text></g></g><g transform="translate(-734,-742) scale(1,1)"><g><path fill="none" stroke="none"/><text fill="#000000" stroke="none" font-family="Arial" font-size="13px" font-style="normal" font-weight="normal" text-decoration="none" x="1085" y="809.5">+symbol: String</text></g></g><g transform="translate(-734,-742) scale(1,1)"><g><path fill="none" stroke="none"/><text fill="#000000" stroke="none" font-family="Arial" font-size="13px" font-style="normal" font-weight="normal" text-decoration="none" x="1085" y="824.5">+biotype: String</text></g></g><g transform="translate(-734,-742) scale(1,1)"><rect fill="#C0C0C0" stroke="none" x="759" y="767" width="158.95068359375" height="72" opacity="0.2"/></g><g transform="translate(-734,-742) scale(1,1)"><rect fill="#d8ffd8" stroke="none" x="752" y="760" width="158.95068359375" height="72"/></g><g transform="translate(-734,-742) scale(1,1)"><path fill="none" stroke="#000000" d="M 752 760 L 910.95068359375 760 L 910.95068359375 832 L 752 832 L 752 760 Z Z" stroke-miterlimit="10"/></g><g transform="translate(-734,-742) scale(1,1)"><path fill="none" stroke="#000000" d="M 752 785 L 910.95068359375 785" stroke-miterlimit="10"/></g><g transform="translate(-734,-742) scale(1,1)"><g><path fill="none" stroke="none"/><text fill="#000000" stroke="none" font-family="Arial" font-size="13px" font-style="normal" font-weight="bold" text-decoration="none" x="778.612060546875" y="779.5">Tissue Expression</text></g></g><g transform="translate(-734,-742) scale(1,1)"><g><path fill="none" stroke="none"/><text fill="#000000" stroke="none" font-family="Arial" font-size="13px" font-style="normal" font-weight="normal" text-decoration="none" x="757" y="802.5">+tissue_name: String</text></g></g><g transform="translate(-734,-742) scale(1,1)"><g><path fill="none" stroke="none"/><text fill="#000000" stroke="none" font-family="Arial" font-size="13px" font-style="normal" font-weight="normal" text-decoration="none" x="757" y="817.5">+expression_value: String</text></g></g><g transform="translate(-734,-742) scale(1,1)"><rect fill="#C0C0C0" stroke="none" x="751" y="919" width="170.7890625" height="72" opacity="0.2"/></g><g transform="translate(-734,-742) scale(1,1)"><rect fill="#e2e2e2" stroke="none" x="744" y="912" width="170.7890625" height="72"/></g><g transform="translate(-734,-742) scale(1,1)"><path fill="none" stroke="#000000" d="M 744 912 L 914.7890625 912 L 914.7890625 984 L 744 984 L 744 912 Z Z" stroke-miterlimit="10"/></g><g transform="translate(-734,-742) scale(1,1)"><path fill="none" stroke="#000000" d="M 744 937 L 914.7890625 937" stroke-miterlimit="10"/></g><g transform="translate(-734,-742) scale(1,1)"><g><path fill="none" stroke="none"/><text fill="#000000" stroke="none" font-family="Arial" font-size="13px" font-style="normal" font-weight="bold" text-decoration="none" x="754.235107421875" y="931.5">Malfunction Consequence</text></g></g><g transform="translate(-734,-742) scale(1,1)"><g><path fill="none" stroke="none"/><text fill="#000000" stroke="none" font-family="Arial" font-size="13px" font-style="normal" font-weight="normal" text-decoration="none" x="749" y="954.5">+name: String</text></g></g><g transform="translate(-734,-742) scale(1,1)"><g><path fill="none" stroke="none"/><text fill="#000000" stroke="none" font-family="Arial" font-size="13px" font-style="normal" font-weight="normal" text-decoration="none" x="749" y="969.5">+description: String</text></g></g><g transform="translate(-734,-742) scale(1,1)"><path fill="none" stroke="#000000" d="M 831 833 L 829 911" stroke-miterlimit="10"/></g><g transform="translate(-734,-742) scale(1,1)"><g><path fill="none" stroke="none"/><text fill="#000000" stroke="none" font-family="Arial" font-size="13px" font-style="normal" font-weight="normal" text-decoration="none" x="802.5" y="851.5">0..1</text></g></g><g transform="translate(-734,-742) scale(1,1)"><g><path fill="none" stroke="none"/><text fill="#000000" stroke="none" font-family="Arial" font-size="13px" font-style="normal" font-weight="normal" text-decoration="none" x="814.220458984375" y="895.5">*</text></g></g><g transform="translate(-734,-742) scale(1,1)"><path fill="none" stroke="#000000" d="M 1079 795 L 912 796" stroke-miterlimit="10"/></g><g transform="translate(-734,-742) scale(1,1)"><g><path fill="none" stroke="none"/><text fill="#000000" stroke="none" font-family="Arial" font-size="13px" font-style="normal" font-weight="normal" text-decoration="none" x="957.5" y="815.5">+Is expressed in</text></g></g><g transform="translate(-734,-742) scale(1,1)"><g><path fill="none" stroke="none"/><text fill="#000000" stroke="none" font-family="Arial" font-size="13px" font-style="normal" font-weight="normal" text-decoration="none" x="1047.5" y="788.5">1..*</text></g></g><g transform="translate(-734,-742) scale(1,1)"><g><path fill="none" stroke="none"/><text fill="#000000" stroke="none" font-family="Arial" font-size="13px" font-style="normal" font-weight="normal" text-decoration="none" x="923.5" y="789.5">1..*</text></g></g></g></svg>