<svg version="1.1" xmlns="http://www.w3.org/2000/svg" xmlns:xlink="http://www.w3.org/1999/xlink" width="887.08447265625" height="492"><defs/><g><g transform="translate(-9,-94) scale(1,1)"><rect fill="#C0C0C0" stroke="none" x="274" y="296" width="171.9443359375" height="147" opacity="0.2"/></g><g transform="translate(-9,-94) scale(1,1)"><rect fill="#ffd8d8" stroke="none" x="267" y="289" width="171.9443359375" height="147"/></g><g transform="translate(-9,-94) scale(1,1)"><path fill="none" stroke="#000000" d="M 267 289 L 438.9443359375 289 L 438.9443359375 436 L 267 436 L 267 289 Z Z" stroke-miterlimit="10"/></g><g transform="translate(-9,-94) scale(1,1)"><path fill="none" stroke="#000000" d="M 267 314 L 438.9443359375 314" stroke-miterlimit="10"/></g><g transform="translate(-9,-94) scale(1,1)"><g><path fill="none" stroke="none"/><text fill="#000000" stroke="none" font-family="Arial" font-size="13px" font-style="normal" font-weight="bold" text-decoration="none" x="332.859619140625" y="308.5">Variant</text></g></g><g transform="translate(-9,-94) scale(1,1)"><g><path fill="none" stroke="none"/><text fill="#000000" stroke="none" font-family="Arial" font-size="13px" font-style="normal" font-weight="normal" text-decoration="none" x="272" y="331.5">+id: String</text></g></g><g transform="translate(-9,-94) scale(1,1)"><g><path fill="none" stroke="none"/><text fill="#000000" stroke="none" font-family="Arial" font-size="13px" font-style="normal" font-weight="normal" text-decoration="none" x="272" y="346.5">+name: String</text></g></g><g transform="translate(-9,-94) scale(1,1)"><g><path fill="none" stroke="none"/><text fill="#000000" stroke="none" font-family="Arial" font-size="13px" font-style="normal" font-weight="normal" text-decoration="none" x="272" y="361.5">+reference_allele: String</text></g></g><g transform="translate(-9,-94) scale(1,1)"><g><path fill="none" stroke="none"/><text fill="#000000" stroke="none" font-family="Arial" font-size="13px" font-style="normal" font-weight="normal" text-decoration="none" x="272" y="376.5">+alternative_allele: String</text></g></g><g transform="translate(-9,-94) scale(1,1)"><g><path fill="none" stroke="none"/><text fill="#000000" stroke="none" font-family="Arial" font-size="13px" font-style="normal" font-weight="normal" text-decoration="none" x="272" y="391.5">+start: Long</text></g></g><g transform="translate(-9,-94) scale(1,1)"><g><path fill="none" stroke="none"/><text fill="#000000" stroke="none" font-family="Arial" font-size="13px" font-style="normal" font-weight="normal" text-decoration="none" x="272" y="406.5">+end: Long</text></g></g><g transform="translate(-9,-94) scale(1,1)"><g><path fill="none" stroke="none"/><text fill="#000000" stroke="none" font-family="Arial" font-size="13px" font-style="normal" font-weight="normal" text-decoration="none" x="272" y="421.5">+clinical_significance: String</text></g></g><g transform="translate(-9,-94) scale(1,1)"><path fill="none" stroke="#000000" d="M 266 363 L 199 363" stroke-miterlimit="10"/></g><g transform="translate(-9,-94) scale(1,1)"><g><path fill="none" stroke="none"/><text fill="#000000" stroke="none" font-family="Arial" font-size="13px" font-style="normal" font-weight="normal" text-decoration="none" x="241.220458984375" y="356.5">*</text></g></g><g transform="translate(-9,-94) scale(1,1)"><g><path fill="none" stroke="none"/><text fill="#000000" stroke="none" font-family="Arial" font-size="13px" font-style="normal" font-weight="normal" text-decoration="none" x="217.726806640625" y="356.5">*</text></g></g><g transform="translate(-9,-94) scale(1,1)"><rect fill="#C0C0C0" stroke="none" x="26" y="320" width="179.193359375" height="102" opacity="0.2"/></g><g transform="translate(-9,-94) scale(1,1)"><rect fill="#e2e2e2" stroke="none" x="19" y="313" width="179.193359375" height="102"/></g><g transform="translate(-9,-94) scale(1,1)"><path fill="none" stroke="#000000" d="M 19 313 L 198.193359375 313 L 198.193359375 415 L 19 415 L 19 313 Z Z" stroke-miterlimit="10"/></g><g transform="translate(-9,-94) scale(1,1)"><path fill="none" stroke="#000000" d="M 19 338 L 198.193359375 338" stroke-miterlimit="10"/></g><g transform="translate(-9,-94) scale(1,1)"><g><path fill="none" stroke="none"/><text fill="#000000" stroke="none" font-family="Arial" font-size="13px" font-style="normal" font-weight="bold" text-decoration="none" x="33.818115234375" y="332.5">Observable Characteristic</text></g></g><g transform="translate(-9,-94) scale(1,1)"><g><path fill="none" stroke="none"/><text fill="#000000" stroke="none" font-family="Arial" font-size="13px" font-style="normal" font-weight="normal" text-decoration="none" x="24" y="355.5">+id: String</text></g></g><g transform="translate(-9,-94) scale(1,1)"><g><path fill="none" stroke="none"/><text fill="#000000" stroke="none" font-family="Arial" font-size="13px" font-style="normal" font-weight="normal" text-decoration="none" x="24" y="370.5">+name: String</text></g></g><g transform="translate(-9,-94) scale(1,1)"><g><path fill="none" stroke="none"/><text fill="#000000" stroke="none" font-family="Arial" font-size="13px" font-style="normal" font-weight="normal" text-decoration="none" x="24" y="385.5">+mode_of_inheritance: String</text></g></g><g transform="translate(-9,-94) scale(1,1)"><g><path fill="none" stroke="none"/><text fill="#000000" stroke="none" font-family="Arial" font-size="13px" font-style="normal" font-weight="normal" text-decoration="none" x="24" y="400.5">+description: String</text></g></g><g transform="translate(-9,-94) scale(1,1)"><rect fill="#C0C0C0" stroke="none" x="279" y="111" width="166.904296875" height="102" opacity="0.2"/></g><g transform="translate(-9,-94) scale(1,1)"><rect fill="#e2e2e2" stroke="none" x="272" y="104" width="166.904296875" height="102"/></g><g transform="translate(-9,-94) scale(1,1)"><path fill="none" stroke="#000000" d="M 272 104 L 438.904296875 104 L 438.904296875 206 L 272 206 L 272 104 Z Z" stroke-miterlimit="10"/></g><g transform="translate(-9,-94) scale(1,1)"><path fill="none" stroke="#000000" d="M 272 129 L 438.904296875 129" stroke-miterlimit="10"/></g><g transform="translate(-9,-94) scale(1,1)"><g><path fill="none" stroke="none"/><text fill="#000000" stroke="none" font-family="Arial" font-size="13px" font-style="normal" font-weight="bold" text-decoration="none" x="316.439453125" y="123.5">Chromosome</text></g></g><g transform="translate(-9,-94) scale(1,1)"><g><path fill="none" stroke="none"/><text fill="#000000" stroke="none" font-family="Arial" font-size="13px" font-style="normal" font-weight="normal" text-decoration="none" x="277" y="146.5">+id: String</text></g></g><g transform="translate(-9,-94) scale(1,1)"><g><path fill="none" stroke="none"/><text fill="#000000" stroke="none" font-family="Arial" font-size="13px" font-style="normal" font-weight="normal" text-decoration="none" x="277" y="161.5">+name: String</text></g></g><g transform="translate(-9,-94) scale(1,1)"><g><path fill="none" stroke="none"/><text fill="#000000" stroke="none" font-family="Arial" font-size="13px" font-style="normal" font-weight="normal" text-decoration="none" x="277" y="176.5">+sequence: String</text></g></g><g transform="translate(-9,-94) scale(1,1)"><g><path fill="none" stroke="none"/><text fill="#000000" stroke="none" font-family="Arial" font-size="13px" font-style="normal" font-weight="normal" text-decoration="none" x="277" y="191.5">+reference_genome: String</text></g></g><g transform="translate(-9,-94) scale(1,1)"><path fill="none" stroke="#000000" d="M 353 288 L 354 207" stroke-miterlimit="10"/></g><g transform="translate(-9,-94) scale(1,1)"><g><path fill="none" stroke="none"/><text fill="#000000" stroke="none" font-family="Arial" font-size="13px" font-style="normal" font-weight="normal" text-decoration="none" x="261.5" y="252.5">+Is located in</text></g></g><g transform="translate(-9,-94) scale(1,1)"><g><path fill="none" stroke="none"/><text fill="#000000" stroke="none" font-family="Arial" font-size="13px" font-style="normal" font-weight="normal" text-decoration="none" x="355.5" y="272.5">0..*</text></g></g><g transform="translate(-9,-94) scale(1,1)"><g><path fill="none" stroke="none"/><text fill="#000000" stroke="none" font-family="Arial" font-size="13px" font-style="normal" font-weight="normal" text-decoration="none" x="356.5" y="234.5">1..*</text></g></g><g transform="translate(-9,-94) scale(1,1)"><rect fill="#C0C0C0" stroke="none" x="775" y="327" width="118.08447265625" height="92" opacity="0.2"/></g><g transform="translate(-9,-94) scale(1,1)"><rect fill="#e2e2e2" stroke="none" x="768" y="320" width="118.08447265625" height="92"/></g><g transform="translate(-9,-94) scale(1,1)"><path fill="none" stroke="#000000" d="M 768 320 L 886.08447265625 320 L 886.08447265625 412 L 768 412 L 768 320 Z Z" stroke-miterlimit="10"/></g><g transform="translate(-9,-94) scale(1,1)"><path fill="none" stroke="#000000" d="M 768 345 L 886.08447265625 345" stroke-miterlimit="10"/></g><g transform="translate(-9,-94) scale(1,1)"><g><path fill="none" stroke="none"/><text fill="#000000" stroke="none" font-family="Arial" font-size="13px" font-style="normal" font-weight="bold" text-decoration="none" x="776.35302734375" y="339.5">Mature Transcript</text></g></g><g transform="translate(-9,-94) scale(1,1)"><g><path fill="none" stroke="none"/><text fill="#000000" stroke="none" font-family="Arial" font-size="13px" font-style="normal" font-weight="normal" text-decoration="none" x="773" y="362.5">+id: String</text></g></g><g transform="translate(-9,-94) scale(1,1)"><g><path fill="none" stroke="none"/><text fill="#000000" stroke="none" font-family="Arial" font-size="13px" font-style="normal" font-weight="normal" text-decoration="none" x="773" y="377.5">+start: Long</text></g></g><g transform="translate(-9,-94) scale(1,1)"><g><path fill="none" stroke="none"/><text fill="#000000" stroke="none" font-family="Arial" font-size="13px" font-style="normal" font-weight="normal" text-decoration="none" x="773" y="392.5">+end: Long</text></g></g><g transform="translate(-9,-94) scale(1,1)"><g><path fill="none" stroke="none"/><text fill="#000000" stroke="none" font-family="Arial" font-size="13px" font-style="normal" font-weight="normal" text-decoration="none" x="773" y="407.5">+/sequence: String</text></g></g><g transform="translate(-9,-94) scale(1,1)"><rect fill="#C0C0C0" stroke="none" x="511" y="207" width="197.9951171875" height="102" opacity="0.2"/></g><g transform="translate(-9,-94) scale(1,1)"><rect fill="#e2e2e2" stroke="none" x="504" y="200" width="197.9951171875" height="102"/></g><g transform="translate(-9,-94) scale(1,1)"><path fill="none" stroke="#000000" d="M 504 200 L 701.9951171875 200 L 701.9951171875 302 L 504 302 L 504 200 Z Z" stroke-miterlimit="10"/></g><g transform="translate(-9,-94) scale(1,1)"><path fill="none" stroke="#000000" d="M 504 225 L 701.9951171875 225" stroke-miterlimit="10"/></g><g transform="translate(-9,-94) scale(1,1)"><g><path fill="none" stroke="none"/><text fill="#000000" stroke="none" font-family="Arial" font-size="13px" font-style="normal" font-weight="bold" text-decoration="none" x="556.513671875" y="219.5">Molecular Effect</text></g></g><g transform="translate(-9,-94) scale(1,1)"><g><path fill="none" stroke="none"/><text fill="#000000" stroke="none" font-family="Arial" font-size="13px" font-style="normal" font-weight="normal" text-decoration="none" x="509" y="242.5">+name: String</text></g></g><g transform="translate(-9,-94) scale(1,1)"><g><path fill="none" stroke="none"/><text fill="#000000" stroke="none" font-family="Arial" font-size="13px" font-style="normal" font-weight="normal" text-decoration="none" x="509" y="257.5">+impact: String</text></g></g><g transform="translate(-9,-94) scale(1,1)"><g><path fill="none" stroke="none"/><text fill="#000000" stroke="none" font-family="Arial" font-size="13px" font-style="normal" font-weight="normal" text-decoration="none" x="509" y="272.5">+functional_consequence: String</text></g></g><g transform="translate(-9,-94) scale(1,1)"><g><path fill="none" stroke="none"/><text fill="#000000" stroke="none" font-family="Arial" font-size="13px" font-style="normal" font-weight="normal" text-decoration="none" x="509" y="287.5">+description: String</text></g></g><g transform="translate(-9,-94) scale(1,1)"><path fill="none" stroke="#000000" d="M 602 303 L 603 364" stroke-miterlimit="10" stroke-dasharray="3"/></g><g transform="translate(-9,-94) scale(1,1)"><path fill="none" stroke="#000000" d="M 440 363 L 767 365" stroke-miterlimit="10"/></g><g transform="translate(-9,-94) scale(1,1)"><g><path fill="none" stroke="none"/><text fill="#000000" stroke="none" font-family="Arial" font-size="13px" font-style="normal" font-weight="normal" text-decoration="none" x="689.34423828125" y="393.5">+Affects</text></g></g><g transform="translate(-9,-94) scale(1,1)"><g><path fill="none" stroke="none"/><text fill="#000000" stroke="none" font-family="Arial" font-size="13px" font-style="normal" font-weight="normal" text-decoration="none" x="458.726806640625" y="381.5">*</text></g></g><g transform="translate(-9,-94) scale(1,1)"><g><path fill="none" stroke="none"/><text fill="#000000" stroke="none" font-family="Arial" font-size="13px" font-style="normal" font-weight="normal" text-decoration="none" x="735.5" y="383.5">1..*</text></g></g><g transform="translate(-9,-94) scale(1,1)"><path fill="none" stroke="#000000" d="M 356 503 L 354 437" stroke-miterlimit="10"/></g><g transform="translate(-9,-94) scale(1,1)"><g><path fill="none" stroke="none"/><text fill="#000000" stroke="none" font-family="Arial" font-size="13px" font-style="normal" font-weight="normal" text-decoration="none" x="364.220458984375" y="486.5">*</text></g></g><g transform="translate(-9,-94) scale(1,1)"><g><path fill="none" stroke="none"/><text fill="#000000" stroke="none" font-family="Arial" font-size="13px" font-style="normal" font-weight="normal" text-decoration="none" x="364.220458984375" y="464.5">*</text></g></g><g transform="translate(-9,-94) scale(1,1)"><rect fill="#C0C0C0" stroke="none" x="279" y="511" width="170.7890625" height="72" opacity="0.2"/></g><g transform="translate(-9,-94) scale(1,1)"><rect fill="#e2e2e2" stroke="none" x="272" y="504" width="170.7890625" height="72"/></g><g transform="translate(-9,-94) scale(1,1)"><path fill="none" stroke="#000000" d="M 272 504 L 442.7890625 504 L 442.7890625 576 L 272 576 L 272 504 Z Z" stroke-miterlimit="10"/></g><g transform="translate(-9,-94) scale(1,1)"><path fill="none" stroke="#000000" d="M 272 529 L 442.7890625 529" stroke-miterlimit="10"/></g><g transform="translate(-9,-94) scale(1,1)"><g><path fill="none" stroke="none"/><text fill="#000000" stroke="none" font-family="Arial" font-size="13px" font-style="normal" font-weight="bold" text-decoration="none" x="282.235107421875" y="523.5">Malfunction Consequence</text></g></g><g transform="translate(-9,-94) scale(1,1)"><g><path fill="none" stroke="none"/><text fill="#000000" stroke="none" font-family="Arial" font-size="13px" font-style="normal" font-weight="normal" text-decoration="none" x="277" y="546.5">+name: String</text></g></g><g transform="translate(-9,-94) scale(1,1)"><g><path fill="none" stroke="none"/><text fill="#000000" stroke="none" font-family="Arial" font-size="13px" font-style="normal" font-weight="normal" text-decoration="none" x="277" y="561.5">+description: String</text></g></g></g></svg>