<svg version="1.1" xmlns="http://www.w3.org/2000/svg" xmlns:xlink="http://www.w3.org/1999/xlink" width="706.08447265625" height="676"><defs/><g><g transform="translate(-54,-94) scale(1,1)"><rect fill="#C0C0C0" stroke="none" x="319" y="319" width="171.9443359375" height="147" opacity="0.2"/></g><g transform="translate(-54,-94) scale(1,1)"><rect fill="#ffd8d8" stroke="none" x="312" y="312" width="171.9443359375" height="147"/></g><g transform="translate(-54,-94) scale(1,1)"><path fill="none" stroke="#000000" d="M 312 312 L 483.9443359375 312 L 483.9443359375 459 L 312 459 L 312 312 Z Z" stroke-miterlimit="10"/></g><g transform="translate(-54,-94) scale(1,1)"><path fill="none" stroke="#000000" d="M 312 337 L 483.9443359375 337" stroke-miterlimit="10"/></g><g transform="translate(-54,-94) scale(1,1)"><g><path fill="none" stroke="none"/><text fill="#000000" stroke="none" font-family="Arial" font-size="13px" font-style="normal" font-weight="bold" text-decoration="none" x="377.859619140625" y="331.5">Variant</text></g></g><g transform="translate(-54,-94) scale(1,1)"><g><path fill="none" stroke="none"/><text fill="#000000" stroke="none" font-family="Arial" font-size="13px" font-style="normal" font-weight="normal" text-decoration="none" x="317" y="354.5">+id: String</text></g></g><g transform="translate(-54,-94) scale(1,1)"><g><path fill="none" stroke="none"/><text fill="#000000" stroke="none" font-family="Arial" font-size="13px" font-style="normal" font-weight="normal" text-decoration="none" x="317" y="369.5">+name: String</text></g></g><g transform="translate(-54,-94) scale(1,1)"><g><path fill="none" stroke="none"/><text fill="#000000" stroke="none" font-family="Arial" font-size="13px" font-style="normal" font-weight="normal" text-decoration="none" x="317" y="384.5">+reference_allele: String</text></g></g><g transform="translate(-54,-94) scale(1,1)"><g><path fill="none" stroke="none"/><text fill="#000000" stroke="none" font-family="Arial" font-size="13px" font-style="normal" font-weight="normal" text-decoration="none" x="317" y="399.5">+alternative_allele: String</text></g></g><g transform="translate(-54,-94) scale(1,1)"><g><path fill="none" stroke="none"/><text fill="#000000" stroke="none" font-family="Arial" font-size="13px" font-style="normal" font-weight="normal" text-decoration="none" x="317" y="414.5">+start: Long</text></g></g><g transform="translate(-54,-94) scale(1,1)"><g><path fill="none" stroke="none"/><text fill="#000000" stroke="none" font-family="Arial" font-size="13px" font-style="normal" font-weight="normal" text-decoration="none" x="317" y="429.5">+end: Long</text></g></g><g transform="translate(-54,-94) scale(1,1)"><g><path fill="none" stroke="none"/><text fill="#000000" stroke="none" font-family="Arial" font-size="13px" font-style="normal" font-weight="normal" text-decoration="none" x="317" y="444.5">+clinical_significance: String</text></g></g><g transform="translate(-54,-94) scale(1,1)"><path fill="none" stroke="#000000" d="M 311 385 L 235 384" stroke-miterlimit="10"/></g><g transform="translate(-54,-94) scale(1,1)"><g><path fill="none" stroke="none"/><text fill="#000000" stroke="none" font-family="Arial" font-size="13px" font-style="normal" font-weight="normal" text-decoration="none" x="286.220458984375" y="378.5">*</text></g></g><g transform="translate(-54,-94) scale(1,1)"><g><path fill="none" stroke="none"/><text fill="#000000" stroke="none" font-family="Arial" font-size="13px" font-style="normal" font-weight="normal" text-decoration="none" x="253.726806640625" y="377.5">*</text></g></g><g transform="translate(-54,-94) scale(1,1)"><rect fill="#C0C0C0" stroke="none" x="319" y="111" width="166.904296875" height="102" opacity="0.2"/></g><g transform="translate(-54,-94) scale(1,1)"><rect fill="#e2e2e2" stroke="none" x="312" y="104" width="166.904296875" height="102"/></g><g transform="translate(-54,-94) scale(1,1)"><path fill="none" stroke="#000000" d="M 312 104 L 478.904296875 104 L 478.904296875 206 L 312 206 L 312 104 Z Z" stroke-miterlimit="10"/></g><g transform="translate(-54,-94) scale(1,1)"><path fill="none" stroke="#000000" d="M 312 129 L 478.904296875 129" stroke-miterlimit="10"/></g><g transform="translate(-54,-94) scale(1,1)"><g><path fill="none" stroke="none"/><text fill="#000000" stroke="none" font-family="Arial" font-size="13px" font-style="normal" font-weight="bold" text-decoration="none" x="356.439453125" y="123.5">Chromosome</text></g></g><g transform="translate(-54,-94) scale(1,1)"><g><path fill="none" stroke="none"/><text fill="#000000" stroke="none" font-family="Arial" font-size="13px" font-style="normal" font-weight="normal" text-decoration="none" x="317" y="146.5">+id: String</text></g></g><g transform="translate(-54,-94) scale(1,1)"><g><path fill="none" stroke="none"/><text fill="#000000" stroke="none" font-family="Arial" font-size="13px" font-style="normal" font-weight="normal" text-decoration="none" x="317" y="161.5">+name: String</text></g></g><g transform="translate(-54,-94) scale(1,1)"><g><path fill="none" stroke="none"/><text fill="#000000" stroke="none" font-family="Arial" font-size="13px" font-style="normal" font-weight="normal" text-decoration="none" x="317" y="176.5">+sequence: String</text></g></g><g transform="translate(-54,-94) scale(1,1)"><g><path fill="none" stroke="none"/><text fill="#000000" stroke="none" font-family="Arial" font-size="13px" font-style="normal" font-weight="normal" text-decoration="none" x="317" y="191.5">+reference_genome: String</text></g></g><g transform="translate(-54,-94) scale(1,1)"><rect fill="#C0C0C0" stroke="none" x="639" y="351" width="118.08447265625" height="80" opacity="0.2"/></g><g transform="translate(-54,-94) scale(1,1)"><rect fill="#e2e2e2" stroke="none" x="632" y="344" width="118.08447265625" height="80"/></g><g transform="translate(-54,-94) scale(1,1)"><path fill="none" stroke="#000000" d="M 632 344 L 750.08447265625 344 L 750.08447265625 424 L 632 424 L 632 344 Z Z" stroke-miterlimit="10"/></g><g transform="translate(-54,-94) scale(1,1)"><path fill="none" stroke="#000000" d="M 632 369 L 750.08447265625 369" stroke-miterlimit="10"/></g><g transform="translate(-54,-94) scale(1,1)"><g><path fill="none" stroke="none"/><text fill="#000000" stroke="none" font-family="Arial" font-size="13px" font-style="normal" font-weight="bold" text-decoration="none" x="640.35302734375" y="363.5">Mature Transcript</text></g></g><g transform="translate(-54,-94) scale(1,1)"><g><path fill="none" stroke="none"/><text fill="#000000" stroke="none" font-family="Arial" font-size="13px" font-style="normal" font-weight="normal" text-decoration="none" x="637" y="386.5">+id: String</text></g></g><g transform="translate(-54,-94) scale(1,1)"><g><path fill="none" stroke="none"/><text fill="#000000" stroke="none" font-family="Arial" font-size="13px" font-style="normal" font-weight="normal" text-decoration="none" x="637" y="401.5">+start: Long</text></g></g><g transform="translate(-54,-94) scale(1,1)"><g><path fill="none" stroke="none"/><text fill="#000000" stroke="none" font-family="Arial" font-size="13px" font-style="normal" font-weight="normal" text-decoration="none" x="637" y="416.5">+end: Long</text></g></g><g transform="translate(-54,-94) scale(1,1)"><rect fill="#C0C0C0" stroke="none" x="71" y="351" width="170.13525390625" height="80" opacity="0.2"/></g><g transform="translate(-54,-94) scale(1,1)"><rect fill="#e2e2e2" stroke="none" x="64" y="344" width="170.13525390625" height="80"/></g><g transform="translate(-54,-94) scale(1,1)"><path fill="none" stroke="#000000" d="M 64 344 L 234.13525390625 344 L 234.13525390625 424 L 64 424 L 64 344 Z Z" stroke-miterlimit="10"/></g><g transform="translate(-54,-94) scale(1,1)"><path fill="none" stroke="#000000" d="M 64 369 L 234.13525390625 369" stroke-miterlimit="10"/></g><g transform="translate(-54,-94) scale(1,1)"><g><path fill="none" stroke="none"/><text fill="#000000" stroke="none" font-family="Arial" font-size="13px" font-style="normal" font-weight="bold" text-decoration="none" x="74.2890625" y="363.5">Observable Characteristic</text></g></g><g transform="translate(-54,-94) scale(1,1)"><g><path fill="none" stroke="none"/><text fill="#000000" stroke="none" font-family="Arial" font-size="13px" font-style="normal" font-weight="normal" text-decoration="none" x="69" y="386.5">+id: String</text></g></g><g transform="translate(-54,-94) scale(1,1)"><g><path fill="none" stroke="none"/><text fill="#000000" stroke="none" font-family="Arial" font-size="13px" font-style="normal" font-weight="normal" text-decoration="none" x="69" y="401.5">+name: String</text></g></g><g transform="translate(-54,-94) scale(1,1)"><g><path fill="none" stroke="none"/><text fill="#000000" stroke="none" font-family="Arial" font-size="13px" font-style="normal" font-weight="normal" text-decoration="none" x="69" y="416.5">+description: String</text></g></g><g transform="translate(-54,-94) scale(1,1)"><rect fill="#C0C0C0" stroke="none" x="471" y="519" width="197.9951171875" height="102" opacity="0.2"/></g><g transform="translate(-54,-94) scale(1,1)"><rect fill="#e2e2e2" stroke="none" x="464" y="512" width="197.9951171875" height="102"/></g><g transform="translate(-54,-94) scale(1,1)"><path fill="none" stroke="#000000" d="M 464 512 L 661.9951171875 512 L 661.9951171875 614 L 464 614 L 464 512 Z Z" stroke-miterlimit="10"/></g><g transform="translate(-54,-94) scale(1,1)"><path fill="none" stroke="#000000" d="M 464 537 L 661.9951171875 537" stroke-miterlimit="10"/></g><g transform="translate(-54,-94) scale(1,1)"><g><path fill="none" stroke="none"/><text fill="#000000" stroke="none" font-family="Arial" font-size="13px" font-style="normal" font-weight="bold" text-decoration="none" x="516.513671875" y="531.5">Molecular Effect</text></g></g><g transform="translate(-54,-94) scale(1,1)"><g><path fill="none" stroke="none"/><text fill="#000000" stroke="none" font-family="Arial" font-size="13px" font-style="normal" font-weight="normal" text-decoration="none" x="469" y="554.5">+name: String</text></g></g><g transform="translate(-54,-94) scale(1,1)"><g><path fill="none" stroke="none"/><text fill="#000000" stroke="none" font-family="Arial" font-size="13px" font-style="normal" font-weight="normal" text-decoration="none" x="469" y="569.5">+impact: String</text></g></g><g transform="translate(-54,-94) scale(1,1)"><g><path fill="none" stroke="none"/><text fill="#000000" stroke="none" font-family="Arial" font-size="13px" font-style="normal" font-weight="normal" text-decoration="none" x="469" y="584.5">+functional_consequence: String</text></g></g><g transform="translate(-54,-94) scale(1,1)"><g><path fill="none" stroke="none"/><text fill="#000000" stroke="none" font-family="Arial" font-size="13px" font-style="normal" font-weight="normal" text-decoration="none" x="469" y="599.5">+description: String</text></g></g><g transform="translate(-54,-94) scale(1,1)"><path fill="none" stroke="#000000" d="M 485 385 L 631 384" stroke-miterlimit="10"/></g><g transform="translate(-54,-94) scale(1,1)"><g><path fill="none" stroke="none"/><text fill="#000000" stroke="none" font-family="Arial" font-size="13px" font-style="normal" font-weight="normal" text-decoration="none" x="528.34423828125" y="378.5">+Affects</text></g></g><g transform="translate(-54,-94) scale(1,1)"><g><path fill="none" stroke="none"/><text fill="#000000" stroke="none" font-family="Arial" font-size="13px" font-style="normal" font-weight="normal" text-decoration="none" x="503.726806640625" y="403.5">*</text></g></g><g transform="translate(-54,-94) scale(1,1)"><g><path fill="none" stroke="none"/><text fill="#000000" stroke="none" font-family="Arial" font-size="13px" font-style="normal" font-weight="normal" text-decoration="none" x="599.5" y="402.5">1..*</text></g></g><g transform="translate(-54,-94) scale(1,1)"><path fill="none" stroke="#000000" d="M 561 511 L 558 384" stroke-miterlimit="10" stroke-dasharray="3"/></g><g transform="translate(-54,-94) scale(1,1)"><path fill="none" stroke="#000000" d="M 396 311 L 395 207" stroke-miterlimit="10"/></g><g transform="translate(-54,-94) scale(1,1)"><g><path fill="none" stroke="none"/><text fill="#000000" stroke="none" font-family="Arial" font-size="13px" font-style="normal" font-weight="normal" text-decoration="none" x="301.5" y="264.5">+Is located in</text></g></g><g transform="translate(-54,-94) scale(1,1)"><g><path fill="none" stroke="none"/><text fill="#000000" stroke="none" font-family="Arial" font-size="13px" font-style="normal" font-weight="normal" text-decoration="none" x="398.5" y="295.5">0..*</text></g></g><g transform="translate(-54,-94) scale(1,1)"><g><path fill="none" stroke="none"/><text fill="#000000" stroke="none" font-family="Arial" font-size="13px" font-style="normal" font-weight="normal" text-decoration="none" x="397.5" y="234.5">1..*</text></g></g><g transform="translate(-54,-94) scale(1,1)"><path fill="none" stroke="#000000" d="M 397 687 L 397 460" stroke-miterlimit="10"/></g><g transform="translate(-54,-94) scale(1,1)"><g><path fill="none" stroke="none"/><text fill="#000000" stroke="none" font-family="Arial" font-size="13px" font-style="normal" font-weight="normal" text-decoration="none" x="406.220458984375" y="671.5">*</text></g></g><g transform="translate(-54,-94) scale(1,1)"><g><path fill="none" stroke="none"/><text fill="#000000" stroke="none" font-family="Arial" font-size="13px" font-style="normal" font-weight="normal" text-decoration="none" x="406.220458984375" y="487.5">*</text></g></g><g transform="translate(-54,-94) scale(1,1)"><rect fill="#C0C0C0" stroke="none" x="319" y="695" width="170.7890625" height="72" opacity="0.2"/></g><g transform="translate(-54,-94) scale(1,1)"><rect fill="#e2e2e2" stroke="none" x="312" y="688" width="170.7890625" height="72"/></g><g transform="translate(-54,-94) scale(1,1)"><path fill="none" stroke="#000000" d="M 312 688 L 482.7890625 688 L 482.7890625 760 L 312 760 L 312 688 Z Z" stroke-miterlimit="10"/></g><g transform="translate(-54,-94) scale(1,1)"><path fill="none" stroke="#000000" d="M 312 713 L 482.7890625 713" stroke-miterlimit="10"/></g><g transform="translate(-54,-94) scale(1,1)"><g><path fill="none" stroke="none"/><text fill="#000000" stroke="none" font-family="Arial" font-size="13px" font-style="normal" font-weight="bold" text-decoration="none" x="322.235107421875" y="707.5">Malfunction Consequence</text></g></g><g transform="translate(-54,-94) scale(1,1)"><g><path fill="none" stroke="none"/><text fill="#000000" stroke="none" font-family="Arial" font-size="13px" font-style="normal" font-weight="normal" text-decoration="none" x="317" y="730.5">+name: String</text></g></g><g transform="translate(-54,-94) scale(1,1)"><g><path fill="none" stroke="none"/><text fill="#000000" stroke="none" font-family="Arial" font-size="13px" font-style="normal" font-weight="normal" text-decoration="none" x="317" y="745.5">+description: String</text></g></g></g></svg>